<?xml version="1.0" standalone="no"?>
<!DOCTYPE svg PUBLIC "-//W3C//DTD SVG 1.1//EN" "http://www.w3.org/Graphics/SVG/1.1/DTD/svg11.dtd" >
<svg>
<metadata>
Created by FontForge 20090914 at Tue May  2 00:06:03 2017
 By www-data
Generated in 2009 by FontLab Studio. Copyright info pending.
</metadata>
<defs>
<font id="ChunkFiveEx" horiz-adv-x="740" >
  <font-face 
    font-family="ChunkFive Ex"
    font-weight="400"
    font-stretch="normal"
    units-per-em="1000"
    panose-1="0 0 0 0 0 0 0 0 0 0"
    ascent="750"
    descent="-250"
    x-height="499.998"
    cap-height="699"
    bbox="-228.999 -360 1654 1101"
    underline-thickness="50"
    underline-position="-50"
    unicode-range="U+0020-U+FB06"
  />
<missing-glyph horiz-adv-x="280" 
 />
    <glyph glyph-name=".notdef" horiz-adv-x="280" 
 />
    <glyph glyph-name="space" unicode=" " horiz-adv-x="250" 
 />
    <glyph glyph-name="exclam" unicode="!" horiz-adv-x="308" 
d="M28 102c0 12.667 2.49902 25.3359 7.49902 38.0029s12.5 24 22.5 34s22 18.167 36 24.5s30 9.5 48 9.5s34.167 -2.83301 48.5 -8.5s26.833 -13.334 37.5 -23.001s18.834 -21 24.501 -34s8.5 -26.5 8.5 -40.5c0 -28 -10.667 -52.167 -32 -72.5s-50.333 -30.5 -87 -30.5
c-16 0 -31 3 -45 9s-26.167 13.667 -36.5 23s-18.333 20.166 -24 32.499s-8.5 25.166 -8.5 38.499zM31.999 509.002v190h239v-190l-53 -252h-132z" />
    <glyph glyph-name="quotedbl" unicode="&#x22;" horiz-adv-x="516" 
d="M485 701l-36 -299h-125l-37 299h198zM234 701l-36 -299h-125l-37 299h198z" />
    <glyph glyph-name="numbersign" unicode="#" horiz-adv-x="569" 
d="M249 410l-14 -111h81l14 111h-81zM448 410l-15 -111h75v-106h-88l-27 -193h-117l27 193h-81l-27 -193h-117l27 193h-75v106h88l15 111h-75v106h88l25 181h117l-24 -181h80l25 181h117l-24 -181h74v-106h-88z" />
    <glyph glyph-name="dollar" unicode="$" horiz-adv-x="710" 
d="M285 17c-16 8.66699 -30.1709 18.165 -42.5039 28.498s-22.833 20.833 -31.5 31.5l-11 -77h-175v252h186c0 -20.667 4.66699 -37.5 14 -50.5s20.5 -23.167 33.5 -30.5s26.667 -12.333 41 -15s26.833 -4 37.5 -4c8.66699 0 18 0.666992 28 2s19.167 3.83301 27.5 7.5
s15.333 8.66699 21 15s8.5 14.833 8.5 25.5c0 12.667 -9.5 23.167 -28.5 31.5s-42.667 16.5 -71 24.5s-59.166 17.167 -92.499 27.5s-64.166 24.5 -92.499 42.5s-52 40.833 -71 68.5s-28.5 62.834 -28.5 105.501c0 36.667 7.83301 68.667 23.5 96
s35.334 49.666 59.001 66.999s49.334 30.333 77.001 39s53.834 13 78.501 13h9v47h154v-95c9.33301 -7.33301 17.833 -15.333 25.5 -24s14.5 -18.667 20.5 -30l10 84h172v-251h-181c0 18.667 -3.33301 35.167 -10 49.5s-15.834 26.5 -27.501 36.5s-25.334 17.5 -41.001 22.5
s-32.167 7.5 -49.5 7.5c-7.33301 0 -15 -1.16699 -23 -3.5s-15.5 -5.66602 -22.5 -9.99902s-12.667 -9.83301 -17 -16.5s-6.5 -14.334 -6.5 -23.001c0 -17.333 9.83301 -31.666 29.5 -42.999s44.167 -22 73.5 -32l95 -32.5c34 -11.667 65.667 -26.167 95 -43.5
s53.833 -39 73.5 -65s29.5 -58.667 29.5 -98c0 -37.333 -7.5 -69 -22.5 -95s-34.167 -47.333 -57.5 -64s-49.666 -29.167 -78.999 -37.5s-58.333 -13.166 -87 -14.499v-51h-154v82z" />
    <glyph glyph-name="percent" unicode="%" horiz-adv-x="1177" 
d="M1146 161c0 -29.333 -7 -55.5 -21 -78.5s-32.333 -42.5 -55 -58.5s-48.334 -28.167 -77.001 -36.5s-57.334 -12.5 -86.001 -12.5c-39.333 0 -73.833 5 -103.5 15s-54.5 23.833 -74.5 41.5s-35.167 38.5 -45.5 62.5s-15.5 50 -15.5 78c0 29.333 7 55.5 21 78.5
s32.333 42.5 55 58.5s48.334 28.167 77.001 36.5s57.334 12.5 86.001 12.5c38 0 71.833 -5 101.5 -15s54.667 -23.833 75 -41.5s35.833 -38.5 46.5 -62.5s16 -50 16 -78zM977 184c0 7.33301 -2.50195 14.001 -7.50195 20.001s-11.167 11 -18.5 15
s-15.166 7.16699 -23.499 9.5s-15.833 3.5 -22.5 3.5c-18 0 -34.333 -6.33301 -49 -19s-22 -29 -22 -49c0 -18.667 7.83301 -33.834 23.5 -45.501s32.834 -17.5 51.501 -17.5c18 0 34.333 6.33301 49 19s22 29 22 49c0 4.66699 -1 9.66699 -3 15zM695.998 707.001h170
l-373 -704h-170zM524.998 514.001c0 -29.333 -7 -55.5 -21 -78.5s-32.333 -42.5 -55 -58.5s-48.334 -28.167 -77.001 -36.5s-57.334 -12.5 -86.001 -12.5c-39.333 0 -73.833 5 -103.5 15s-54.5 23.833 -74.5 41.5s-35.167 38.5 -45.5 62.5s-15.5 50 -15.5 78
c0 29.333 7 55.5 21 78.5s32.333 42.5 55 58.5s48.334 28.167 77.001 36.5s57.334 12.5 86.001 12.5c38 0 71.833 -5 101.5 -15s54.667 -23.833 75 -41.5s35.833 -38.5 46.5 -62.5s16 -50 16 -78zM355.998 537.001c0 7.33301 -2.50195 14.001 -7.50195 20.001
s-11.167 11 -18.5 15s-15.166 7.16699 -23.499 9.5s-15.833 3.5 -22.5 3.5c-18 0 -34.333 -6.33301 -49 -19s-22 -29 -22 -49c0 -18.667 7.83301 -33.834 23.5 -45.501s32.834 -17.5 51.501 -17.5c18 0 34.333 6.33301 49 19s22 29 22 49c0 4.66699 -1 9.66699 -3 15z" />
    <glyph glyph-name="ampersand" unicode="&#x26;" horiz-adv-x="734" 
d="M243 256c-16 -16 -24.001 -36 -24.001 -60c0 -22 7 -41.333 21 -58s35 -25 63 -25c24.667 0 46.334 5.33301 65.001 16zM337.999 508c0 14 -3.5 25.333 -10.5 34s-16.167 13 -27.5 13c-16 0 -27.167 -5 -33.5 -15s-9.5 -20.667 -9.5 -32s1.66699 -20.5 5 -27.5
s8 -14.167 14 -21.5l21 -25c9.33301 6 18.5 15.667 27.5 29s13.5 28.333 13.5 45zM495.999 0l-35.001 36.001c-25.333 -16 -55.833 -28.167 -91.5 -36.5s-70.5 -12.5 -104.5 -12.5c-33.333 0 -64.166 4 -92.499 12s-52.666 20 -72.999 36s-36.333 36 -48 60
s-17.5 51.667 -17.5 83c0 36 9.5 69.167 28.5 99.5s49.5 54.833 91.5 73.5c-25.333 16 -44.5 36.5 -57.5 61.5s-19.5 53.5 -19.5 85.5c0 26 5.33301 49.667 16 71s25.667 39.833 45 55.5s42.666 27.667 69.999 36s57.666 12.5 90.999 12.5s63.333 -4.16699 90 -12.5
s49.334 -19.833 68.001 -34.5s33 -31.834 43 -51.501s15 -40.5 15 -62.5c0 -18 -2.16699 -34.5 -6.5 -49.5s-11.5 -29.167 -21.5 -42.5s-23.5 -26.166 -40.5 -38.499s-37.833 -24.833 -62.5 -37.5l100 -100c7.33301 11.333 15 26.166 23 44.499s14.667 35.5 20 51.5l138 -40
c-8 -28 -19.5 -56.333 -34.5 -85s-30.167 -53 -45.5 -73l141 -142h-230z" />
    <glyph glyph-name="quotesingle" unicode="'" horiz-adv-x="273" 
d="M234 701l-36 -299h-125l-37 299h198z" />
    <glyph glyph-name="parenleft" unicode="(" horiz-adv-x="388" 
d="M363 709l-44.499 -56.5c-17.667 -23 -34.5 -50.667 -50.5 -83s-29.833 -69.833 -41.5 -112.5s-17.5 -91 -17.5 -145c0 -56 5.33301 -105.667 16 -149s23.667 -81.833 39 -115.5s32 -62.667 50 -87s34.333 -45.166 49 -62.499l-103 -107
c-27.333 24.667 -54.833 55 -82.5 91s-52.834 76.333 -75.501 121s-41.167 93 -55.5 145s-21.5 106.667 -21.5 164c0 58.667 8.33301 114.667 25 168s37.167 101.666 61.5 144.999s50 81.333 77 114s50.833 58 71.5 76z" />
    <glyph glyph-name="parenright" unicode=")" horiz-adv-x="388" 
d="M128 814c20.667 -18 44.5 -43.333 71.5 -76s52.667 -70.667 77 -114s44.833 -91.666 61.5 -144.999s25 -109.333 25 -168c0 -57.333 -7.16699 -112 -21.5 -164s-32.833 -100.333 -55.5 -145s-48 -85 -76 -121s-55.333 -66.333 -82 -91l-103 107
c14.667 17.333 31 38.166 49 62.499s34.667 53.333 50 87s28.333 72.167 39 115.5s16 93 16 149c0 54 -5.83301 102.333 -17.5 145s-25.5 80.167 -41.5 112.5s-32.833 60 -50.5 83l-44.5 56.5z" />
    <glyph glyph-name="asterisk" unicode="*" horiz-adv-x="508" 
d="M354 461l79 -111l-106 -76l-80 109l-78 -102l-102 77l83 103l-127 45l40 120l124 -47v131h130v-131l124 40l37 -120z" />
    <glyph glyph-name="plus" unicode="+" horiz-adv-x="722" 
d="M432 262v-238h-163v238h-233v158h233v234h163v-234h233v-158h-233z" />
    <glyph glyph-name="comma" unicode="," horiz-adv-x="272" 
d="M-6 -129c16 20 30 39.834 42 59.501s22 40.5 30 62.5s14.167 45.5 18.5 70.5s6.5 52.5 6.5 82.5c0 8 -0.166992 16.167 -0.5 24.5s-0.833008 16.833 -1.5 25.5l182 -48v-12c0 -62.667 -14.5 -122.334 -43.5 -179.001s-68.5 -107 -118.5 -151z" />
    <glyph glyph-name="hyphen" unicode="-" horiz-adv-x="386" 
d="M47 305h290v-133h-290v133z" />
    <glyph glyph-name="period" unicode="." horiz-adv-x="258" 
d="M15 104c0 12.667 2.50195 25.834 7.50195 39.501s12.167 26 21.5 37s21.166 20 35.499 27s30.5 10.5 48.5 10.5s34.167 -3.5 48.5 -10.5s26.5 -16 36.5 -27s17.5 -23.333 22.5 -37s7.5 -26.834 7.5 -39.501c0 -30 -9.66699 -55.5 -29 -76.5s-48 -31.5 -86 -31.5
c-16.667 0 -31.834 3.16699 -45.501 9.5s-25.5 14.5 -35.5 24.5s-17.833 21.5 -23.5 34.5s-8.5 26.167 -8.5 39.5z" />
    <glyph glyph-name="slash" unicode="/" horiz-adv-x="567" 
d="M417 750h117l-415 -805h-117z" />
    <glyph glyph-name="zero" unicode="0" horiz-adv-x="599" 
d="M302 -12c-42 0 -80.5 7.5 -115.5 22.5s-65.167 37.667 -90.5 68s-45.166 68.333 -59.499 114s-21.5 99.167 -21.5 160.5c0 52.667 6.83301 101.167 20.5 145.5s33 82.166 58 113.499s54.833 55.833 89.5 73.5s72.667 26.5 114 26.5c48.667 0 91.167 -8.66699 127.5 -26
s66.166 -42 89.499 -74s40.833 -70.5 52.5 -115.5s17.5 -95.167 17.5 -150.5s-6.16699 -105.166 -18.5 -149.499s-30.5 -82 -54.5 -113s-53.5 -54.667 -88.5 -71s-75.167 -24.5 -120.5 -24.5zM302 143c11.333 0 22 4.83203 32 14.499s18.667 23.334 26 41.001s13 39 17 64
s6 52.833 6 83.5c0 30 -2.33301 57.5 -7 82.5s-11 46.667 -19 65s-17.333 32.5 -28 42.5s-22 15 -34 15c-9.33301 0 -18.833 -4.66699 -28.5 -14s-18.5 -22.5 -26.5 -39.5s-14.5 -37.833 -19.5 -62.5s-7.5 -52 -7.5 -82c0 -32 2.83301 -61 8.5 -87s12.667 -48.167 21 -66.5
s17.833 -32.333 28.5 -42s21 -14.5 31 -14.5z" />
    <glyph glyph-name="one" unicode="1" horiz-adv-x="496" 
d="M25 568l41 20c13.333 6.66699 26.833 14.5 40.5 23.5s28.167 20.333 43.5 34s32 31.5 50 53.5h178v-566h93v-133h-400v133h100v371l-100 -47z" />
    <glyph glyph-name="two" unicode="2" horiz-adv-x="590" 
d="M33 586c35.333 40.667 74.998 71.5 118.998 92.5s91 31.5 141 31.5c33.333 0 64.5 -5 93.5 -15s54.167 -24.5 75.5 -43.5s38.166 -42 50.499 -69s18.5 -57.5 18.5 -91.5c0 -28.667 -3.33301 -53.334 -10 -74.001s-16.667 -39.167 -30 -55.5s-30 -31.833 -50 -46.5
s-43.333 -30.667 -70 -48c-12 -8 -25.5 -17.5 -40.5 -28.5s-29.667 -22.667 -44 -35s-27.333 -24.666 -39 -36.999s-20.5 -23.5 -26.5 -33.5h176v80h168v-213h-540v145c14 22.667 26.333 41.834 37 57.501s21.5 29.667 32.5 42s22.5 24 34.5 35s26 22.833 42 35.5
c18 16 37.333 30.667 58 44s39.834 26.5 57.501 39.5s32.334 26.333 44.001 40s17.5 28.167 17.5 43.5c0 25.333 -8.16699 42.666 -24.5 51.999s-36.166 14 -59.499 14c-13.333 0 -25.833 -2.5 -37.5 -7.5s-22.667 -11.167 -33 -18.5s-19.833 -15.5 -28.5 -24.5l-24 -25.5z
" />
    <glyph glyph-name="three" unicode="3" horiz-adv-x="540" 
d="M248 -13c-24 0 -47.6738 3.16602 -71.0068 9.49902s-45.5 14.666 -66.5 24.999s-39.667 22.333 -56 36s-29.5 27.834 -39.5 42.501l102 106c18.667 -18.667 38.167 -34.167 58.5 -46.5s44.833 -18.5 73.5 -18.5c28 0 50 6.5 66 19.5s24 32.167 24 57.5
c0 27.333 -7.5 46.333 -22.5 57s-35.167 16 -60.5 16h-75v119h73c24 0 44.167 5.83301 60.5 17.5s24.5 28.834 24.5 51.501c0 13.333 -2.66699 25 -8 35s-12.166 18.167 -20.499 24.5s-17.666 11.166 -27.999 14.499s-20.833 5 -31.5 5c-19.333 0 -39.333 -5.33301 -60 -16
s-39.667 -25.334 -57 -44.001l-97 117c8.66699 10 20.5 20.5 35.5 31.5s32 21.167 51 30.5s39.333 17.166 61 23.499s43.834 9.5 66.501 9.5c40.667 0 76.834 -5 108.501 -15s58.334 -24.333 80.001 -43s38.167 -41 49.5 -67s17 -55 17 -87
c0 -17.333 -2.66699 -32.666 -8 -45.999s-11.833 -25.166 -19.5 -35.499s-15.667 -19.333 -24 -27s-15.833 -13.834 -22.5 -18.501c8 -6 17.333 -13.667 28 -23s20.834 -20.666 30.501 -33.999s17.834 -28.833 24.501 -46.5s10 -37.834 10 -60.501
c0 -37.333 -8.16699 -69.666 -24.5 -96.999s-37.5 -50.166 -63.5 -68.499s-55.5 -32 -88.5 -41s-66.5 -13.5 -100.5 -13.5z" />
    <glyph glyph-name="four" unicode="4" horiz-adv-x="584" 
d="M10 340l288 359h207v-394h53v-108h-53v-65h54v-132h-324v132h63v65h-288v143zM298 305v185l-148 -185h148z" />
    <glyph glyph-name="five" unicode="5" horiz-adv-x="577" 
d="M263 -13c-25.333 0 -50.5 3.33301 -75.5 10s-48.667 15.667 -71 27s-42.333 24.333 -60 39s-31.5 29.667 -41.5 45l109 113c19.333 -20 40.166 -37.333 62.499 -52s48.166 -22 77.499 -22c34 0 60.833 9.33301 80.5 28s29.5 42.667 29.5 72
c0 13.333 -2.66699 25.833 -8 37.5s-12.5 22 -21.5 31s-19.833 16 -32.5 21s-26 7.5 -40 7.5c-23.333 0 -42.166 -4.83301 -56.499 -14.5s-26.833 -20.167 -37.5 -31.5l-128 57l61 344h396v-149h-269l-17 -97c10 6.66699 24.333 12.334 43 17.001s40.334 7 65.001 7
c29.333 0 58 -5 86 -15s52.833 -25 74.5 -45s39.167 -44.833 52.5 -74.5s20 -63.834 20 -102.501c0 -42 -8.83301 -78.833 -26.5 -110.5s-40.667 -58 -69 -79s-60.333 -36.833 -96 -47.5s-71.5 -16 -107.5 -16z" />
    <glyph glyph-name="six" unicode="6" horiz-adv-x="581" 
d="M478 501c-17.333 10 -38.332 21.001 -62.999 33.001s-52.334 18 -83.001 18c-18.667 0 -35.5 -3.66699 -50.5 -11s-28 -17.333 -39 -30s-20 -27.167 -27 -43.5s-11.833 -33.5 -14.5 -51.5c14 14 33.833 26 59.5 36s52.834 15 81.501 15c30.667 0 59.667 -5.5 87 -16.5
s51.166 -26.167 71.499 -45.5s36.333 -42.833 48 -70.5s17.5 -57.834 17.5 -90.501c0 -34 -6.16699 -66.333 -18.5 -97s-30 -57.5 -53 -80.5s-51.167 -41.333 -84.5 -55s-71 -20.5 -113 -20.5c-40.667 0 -78.167 7.5 -112.5 22.5s-64 36.5 -89 64.5s-44.5 62.333 -58.5 103
s-21 86.667 -21 138c0 22.667 1.33301 48 4 76s8 56.5 16 85.5s19 57.167 33 84.5s32 51.833 54 73.5s48.833 39 80.5 52s69.167 19.5 112.5 19.5c16.667 0 35.5 -1.83301 56.5 -5.5s42 -9 63 -16s41.167 -15.333 60.5 -25s36 -20.5 50 -32.5zM306.001 323.001
c-12 -0.666992 -23.3359 -2.99512 -34.0029 -6.99512s-20.5 -8.83301 -29.5 -14.5s-16.833 -11.834 -23.5 -18.501s-12 -12.334 -16 -17.001c0 -12.667 1.83301 -25.834 5.5 -39.501s9.33398 -26.334 17.001 -38.001s17.334 -21.334 29.001 -29.001s25.5 -11.5 41.5 -11.5
c26 0 47.667 8.33301 65 25s26 37 26 61c0 10 -1.5 20.333 -4.5 31s-7.66699 20.167 -14 28.5s-14.666 15.333 -24.999 21s-22.833 8.5 -37.5 8.5z" />
    <glyph glyph-name="seven" unicode="7" horiz-adv-x="566" 
d="M15 699h541v-133l-269 -566h-216l268 566h-164v-65h-160v198z" />
    <glyph glyph-name="eight" unicode="8" horiz-adv-x="559" 
d="M15 205c0 16 2.5 32.666 7.5 49.999s12.167 34 21.5 50s20.666 30.667 33.999 44s28.333 24 45 32c-25.333 15.333 -44.166 35.333 -56.499 60s-18.5 49 -18.5 73c0 28 5.33301 54 16 78s26.167 44.833 46.5 62.5s45.333 31.5 75 41.5s63.167 15 100.5 15
c38.667 0 72.834 -5 102.501 -15s54.667 -23.833 75 -41.5s35.666 -38.5 45.999 -62.5s15.5 -50 15.5 -78c0 -33.333 -8.5 -61.666 -25.5 -84.999s-36.5 -40.333 -58.5 -51c34 -16.667 59.667 -41.167 77 -73.5s26 -65.5 26 -99.5c0 -30.667 -6.16699 -59.334 -18.5 -86.001
s-30 -49.667 -53 -69s-50.833 -34.666 -83.5 -45.999s-69 -17 -109 -17c-41.333 0 -78.5 5.66699 -111.5 17s-60.833 26.666 -83.5 45.999s-40 42.333 -52 69s-18 55.334 -18 86.001zM188 210.999c0 -12 2.50098 -23.001 7.50098 -33.001s11.667 -18.667 20 -26
s18.166 -13 29.499 -17s23.333 -6 36 -6c24 0 45.333 6.66699 64 20s28 34 28 62c0 17.333 -4.5 31.666 -13.5 42.999s-20 20.333 -33 27s-26.833 11.334 -41.5 14.001s-27.667 4.33398 -39 5.00098c-15.333 -8.66699 -28.833 -21 -40.5 -37s-17.5 -33.333 -17.5 -52z
M359.001 521.998c0 18 -7.5 33.002 -22.5 45.002s-32.5 18 -52.5 18c-19.333 0 -36.166 -6.33301 -50.499 -19s-21.5 -27.334 -21.5 -44.001c0 -14 3.66699 -25.167 11 -33.5s16.166 -14.833 26.499 -19.5s21.166 -8 32.499 -10s21 -3 29 -3
c12.667 6 23.834 14.667 33.501 26s14.5 24.666 14.5 39.999z" />
    <glyph glyph-name="nine" unicode="9" horiz-adv-x="587" 
d="M103 200c17.333 -10 38.3291 -21 62.9961 -33s52.334 -18 83.001 -18c38 0 67.833 11.667 89.5 35s32.5 57 32.5 101c-14 -14 -32.167 -26 -54.5 -36s-48.166 -15 -77.499 -15c-31.333 0 -60.5 5.33301 -87.5 16s-50.667 25.834 -71 45.501s-36.333 43.167 -48 70.5
s-17.5 57.666 -17.5 90.999c0 34 6.16699 66.333 18.5 97s30 57.5 53 80.5s51.167 41.333 84.5 55s71 20.5 113 20.5c41.333 0 79.5 -7.66699 114.5 -23s65.333 -37.166 91 -65.499s45.667 -63 60 -104s21.5 -87.5 21.5 -139.5c0 -25.333 -1.66699 -52.333 -5 -81
s-9.16602 -57.334 -17.499 -86.001s-19.666 -56.334 -33.999 -83.001s-32.833 -50.167 -55.5 -70.5s-50 -36.5 -82 -48.5s-69.333 -18 -112 -18c-17.333 0 -36.333 1.83301 -57 5.5s-41.5 8.83398 -62.5 15.501s-41.167 15 -60.5 25s-36 21 -50 33zM274.996 378
c12 0.666992 22.833 2.99805 32.5 6.99805s18.334 8.83301 26.001 14.5s14.5 11.667 20.5 18s11 12.166 15 17.499c0 12.667 -1.33301 25.834 -4 39.501s-7.33398 26.334 -14.001 38.001s-15.334 21.334 -26.001 29.001s-24 11.5 -40 11.5c-26 0 -47.667 -8.33301 -65 -25
s-26 -37 -26 -61c0 -10 1.33301 -20.333 4 -31s7.33398 -20.167 14.001 -28.5s15 -15.333 25 -21s22.667 -8.5 38 -8.5z" />
    <glyph glyph-name="colon" unicode=":" horiz-adv-x="254" 
d="M15 98c0 12.667 2.33105 25.5 6.99805 38.5s11.834 25 21.501 36s21.334 20 35.001 27s29.5 10.5 47.5 10.5s34 -3.5 48 -10.5s25.833 -16 35.5 -27s17 -23 22 -36s7.5 -25.833 7.5 -38.5c0 -14.667 -2.66699 -28.5 -8 -41.5s-13 -24.167 -23 -33.5
s-22 -16.833 -36 -22.5s-29.333 -8.5 -46 -8.5c-16 0 -30.833 3 -44.5 9s-25.5 14 -35.5 24s-17.667 21.333 -23 34s-8 25.667 -8 39zM14.998 402c0 12.667 2.33105 25.5 6.99805 38.5s11.834 25 21.501 36s21.334 20 35.001 27s29.5 10.5 47.5 10.5s34 -3.5 48 -10.5
s25.833 -16 35.5 -27s17 -23 22 -36s7.5 -25.833 7.5 -38.5c0 -30 -9.83301 -55.167 -29.5 -75.5s-47.5 -30.5 -83.5 -30.5c-15.333 0 -29.833 3 -43.5 9s-25.5 14 -35.5 24s-17.833 21.333 -23.5 34s-8.5 25.667 -8.5 39z" />
    <glyph glyph-name="semicolon" unicode=";" horiz-adv-x="302" 
d="M5 -129c16 20 30 39.834 42 59.501s22 40.5 30 62.5s14.167 45.5 18.5 70.5s6.5 52.5 6.5 82.5c0 8 -0.166992 16.167 -0.5 24.5s-0.833008 16.833 -1.5 25.5l182 -48v-12c0 -62.667 -14.5 -122.334 -43.5 -179.001s-68.5 -107 -118.5 -151zM59 385.001
c0 12.667 2.50098 25.834 7.50098 39.501s12.167 26 21.5 37s21.166 20 35.499 27s30.5 10.5 48.5 10.5s34.167 -3.5 48.5 -10.5s26.5 -16 36.5 -27s17.5 -23.333 22.5 -37s7.5 -26.834 7.5 -39.501c0 -30 -10.167 -55.5 -30.5 -76.5s-48.5 -31.5 -84.5 -31.5
c-16 0 -30.833 3.16699 -44.5 9.5s-25.5 14.5 -35.5 24.5s-18 21.5 -24 34.5s-9 26.167 -9 39.5z" />
    <glyph glyph-name="less" unicode="&#x3c;" horiz-adv-x="341" 
d="M198 496l126 -79l-121 -160l121 -159l-126 -81l-178 240z" />
    <glyph glyph-name="equal" unicode="=" horiz-adv-x="502" 
d="M44 305h412v-133h-412v133zM44 526h412v-133h-412v133z" />
    <glyph glyph-name="greater" unicode="&#x3e;" horiz-adv-x="341" 
d="M146 17l-126 81l121 159l-121 160l126 79l178 -239z" />
    <glyph glyph-name="question" unicode="?" horiz-adv-x="520" 
d="M2 586c35.333 40.667 75.0039 72.3281 119.004 94.9951s91 34 141 34c33.333 0 64.5 -4.33301 93.5 -13s54.167 -21.667 75.5 -39s38.166 -38.666 50.499 -63.999s18.5 -55 18.5 -89c0 -22 -4 -41.167 -12 -57.5s-17.833 -31.166 -29.5 -44.499
s-24.334 -25.166 -38.001 -35.499l-38 -29c-11.667 -9 -21.5 -18 -29.5 -27s-12 -18.5 -12 -28.5v-55h-185l-1 80c0 22.667 8.16699 43.334 24.5 62.001s34.5 35.834 54.5 51.501l55 44c16.667 13.667 25 27.5 25 41.5c0 9.33301 -2.16699 17 -6.5 23s-10 10.833 -17 14.5
s-15 6.16699 -24 7.5s-17.833 2 -26.5 2c-10.667 0 -21.834 -2.33301 -33.501 -7s-23.334 -11 -35.001 -19s-22.667 -16.833 -33 -26.5s-19.833 -19.5 -28.5 -29.5zM129.004 101.994c0 12.667 2.49902 25.3359 7.49902 38.0029s12.5 24 22.5 34s22 18.167 36 24.5
s30 9.5 48 9.5s34.167 -2.83301 48.5 -8.5s26.833 -13.334 37.5 -23.001s18.834 -21 24.501 -34s8.5 -26.5 8.5 -40.5c0 -28 -10.667 -52.167 -32 -72.5s-50.333 -30.5 -87 -30.5c-16 0 -31 3 -45 9s-26.167 13.667 -36.5 23s-18.333 20.166 -24 32.499
s-8.5 25.166 -8.5 38.499z" />
    <glyph glyph-name="at" unicode="@" horiz-adv-x="929" 
d="M904 336c0 -61.333 -6.16113 -112.998 -18.4941 -154.998s-28.5 -76.333 -48.5 -103s-43.167 -45.834 -69.5 -57.501s-53.5 -17.5 -81.5 -17.5c-26.667 0 -48.334 3.83301 -65.001 11.5s-29.667 17.167 -39 28.5s-15.833 23.833 -19.5 37.5
s-5.83398 26.167 -6.50098 37.5c-5.33301 -13.333 -12.166 -26.833 -20.499 -40.5s-18.833 -26.334 -31.5 -38.001s-27.834 -21.167 -45.501 -28.5s-38.5 -11 -62.5 -11c-18 -0 -36.333 2.83301 -55 8.5s-35.667 16 -51 31s-27.833 35.5 -37.5 61.5s-14.5 59.333 -14.5 100
c0 50 6.16699 93.5 18.5 130.5s28.666 67.833 48.999 92.5s44.166 43.167 71.499 55.5s56 18.5 86 18.5c24 0 42.667 -4 56 -12s23.666 -16 30.999 -24l24 28h119l-44 -269c-2 -12 -3 -23.333 -3 -34c0 -17.333 3.33301 -31.833 10 -43.5s18.667 -17.5 36 -17.5
c18 0 32 14.833 42 44.5s15 81.5 15 155.5c0 43.333 -4.5 81.666 -13.5 114.999s-23.5 61.5 -43.5 84.5s-46.167 40.333 -78.5 52s-71.833 17.5 -118.5 17.5c-48.667 0 -92.334 -8.66699 -131.001 -26s-71.667 -42.166 -99 -74.499s-48.333 -71.166 -63 -116.499
s-22 -96 -22 -152c0 -59.333 7.16699 -108.833 21.5 -148.5s33.5 -71.5 57.5 -95.5s51.333 -41.167 82 -51.5s62 -15.5 94 -15.5c51.333 0 96.333 3.33301 135 10s71.667 14 99 22v-130c-25.333 -7.33301 -57.166 -14.5 -95.499 -21.5s-84.5 -10.5 -138.5 -10.5
c-48 0 -96.5 6.66699 -145.5 20s-93 36.666 -132 69.999s-70.833 78.333 -95.5 135s-37 128.667 -37 216c0 84.667 13.167 158.334 39.5 221.001s61.5 114.5 105.5 155.5s94.167 71.667 150.5 92s114.5 30.5 174.5 30.5c59.333 0 114 -7.83301 164 -23.5
s93.167 -39.5 129.5 -71.5s64.666 -72.333 84.999 -121s30.5 -106.334 30.5 -173.001zM524.006 373.002l-18.5 8.00098c-7.66699 3.33301 -16.5 5 -26.5 5c-14 0 -26.167 -6 -36.5 -18s-18.833 -27 -25.5 -45s-11.667 -37.833 -15 -59.5s-5 -41.834 -5 -60.501
c0 -34.667 2 -58 6 -70s12.333 -18 25 -18c8 0 15.5 3.33301 22.5 10s13.5 15 19.5 25s11.5 21.167 16.5 33.5s9.16699 24.5 12.5 36.5z" />
    <glyph glyph-name="A" unicode="A" horiz-adv-x="823" 
d="M808 0h-401v131h95l-21 68h-205l-21 -68h78v-131h-318v131h68l135 439h-41v129h384l177 -568h70v-131zM313 319h131l-66 216z" />
    <glyph glyph-name="B" unicode="B" horiz-adv-x="687" 
d="M25 0v129.999h58v440h-58v129h373c83.333 0 145 -14.833 185 -44.5s60 -71.834 60 -126.501c0 -21.333 -1.66699 -39.833 -5 -55.5s-8.66602 -29.667 -15.999 -42s-17.333 -23.166 -30 -32.499s-28.334 -17.666 -47.001 -24.999c18 -5.33301 35 -12.5 51 -21.5
s30 -20.5 42 -34.5s21.5 -30.5 28.5 -49.5s10.5 -40.5 10.5 -64.5c0 -70.667 -21.167 -122.167 -63.5 -154.5s-111.833 -48.5 -208.5 -48.5h-380zM370 129.999c21.333 0 40.167 7.5 56.5 22.5s24.5 36.167 24.5 63.5c0 25.333 -7 46.333 -21 63s-35 25 -63 25h-77v-174h80z
M290.001 566.999l-0.000976562 -150h61c26.667 0 44.667 6.83301 54 20.5s14 32.5 14 56.5c0 23.333 -6.16699 41.333 -18.5 54s-28.166 19 -47.499 19h-63z" />
    <glyph glyph-name="C" unicode="C" horiz-adv-x="686" 
d="M671 125c-17.333 -18.667 -36.6699 -36.5 -58.0029 -53.5s-44.666 -32 -69.999 -45s-52.666 -23.333 -81.999 -31s-60.333 -11.5 -93 -11.5c-53.333 0 -101.666 8.16699 -144.999 24.5s-80.333 40 -111 71s-54.5 68.667 -71.5 113s-25.5 94.5 -25.5 150.5
c0 57.333 9.66699 108.833 29 154.5s44 84.334 74 116.001s62.833 55.834 98.5 72.501s69.834 25 102.501 25c24.667 0 46.167 -3 64.5 -9s33.833 -12.833 46.5 -20.5s22.5 -15.334 29.5 -23.001s11.5 -12.834 13.5 -15.501l23 56h157v-284h-179
c-0.666992 16 -3.33398 31.667 -8.00098 47s-11.167 28.833 -19.5 40.5s-19 21 -32 28s-28.5 10.5 -46.5 10.5s-34.333 -5.16699 -49 -15.5s-27.167 -24.5 -37.5 -42.5s-18.333 -39 -24 -63s-8.5 -49.667 -8.5 -77c0 -24.667 3.16699 -48.334 9.5 -71.001
s15.666 -42.667 27.999 -60s27.5 -31.166 45.5 -41.499s39 -15.5 63 -15.5c20.667 0 40.334 4.66699 59.001 14s35 19.833 49 31.5s25.5 22.667 34.5 33s14.5 16.833 16.5 19.5z" />
    <glyph glyph-name="D" unicode="D" horiz-adv-x="720" 
d="M25 0v132.999h62v434h-62v132h305c60.667 0 114.5 -8.83301 161.5 -26.5s86.667 -41.667 119 -72s57 -66.166 74 -107.499s25.5 -86 25.5 -134c0 -114.667 -33 -203.167 -99 -265.5s-161 -93.5 -285 -93.5h-301zM480 358.999c0 26.667 -2.83301 52.502 -8.5 77.502
s-14.5 47.167 -26.5 66.5s-27.5 34.833 -46.5 46.5s-41.833 17.5 -68.5 17.5h-38v-434h38c26.667 0 49.5 6 68.5 18s34.5 28.167 46.5 48.5s20.833 44.166 26.5 71.499s8.5 56.666 8.5 87.999z" />
    <glyph glyph-name="E" unicode="E" horiz-adv-x="653" 
d="M25 699h603v-221h-173v89h-160v-138h190v-133h-190v-163h160v93h173v-226h-603v133h63v434h-63v132z" />
    <glyph glyph-name="F" unicode="F" horiz-adv-x="638" 
d="M25 699h598v-221h-177v89h-151v-174h190v-133h-190v-127h102v-133h-372v133h62v434h-62v132z" />
    <glyph glyph-name="G" unicode="G" horiz-adv-x="776" 
d="M490 63c-11.333 -18.667 -31.332 -35.3359 -59.999 -50.0029s-62.334 -22 -101.001 -22c-44 0 -85 8.16699 -123 24.5s-71.167 39.833 -99.5 70.5s-50.666 67.667 -66.999 111s-24.5 92 -24.5 146c0 54.667 8.66699 104.5 26 149.5s40.333 83.667 69 116
s61.334 57.5 98.001 75.5s74.667 27 114 27c36 0 65.667 -3.66699 89 -11s42.166 -15.666 56.499 -24.999s25.166 -18.666 32.499 -27.999s13 -16 17 -20l21 72h149v-295h-179c-0.666992 20 -4.16699 38 -10.5 54s-14.833 29.333 -25.5 40s-22.667 18.834 -36 24.501
s-27.333 8.5 -42 8.5c-20 0 -38.5 -5.16699 -55.5 -15.5s-31.5 -24 -43.5 -41s-21.333 -37 -28 -60s-10 -46.833 -10 -71.5c0 -25.333 3 -49.166 9 -71.499s14.833 -41.833 26.5 -58.5s26 -29.834 43 -39.501s36.5 -14.5 58.5 -14.5c28.667 0 50 4.83301 64 14.5
s24.667 21.167 32 34.5v42h-61v107h332v-107h-40v-250h-200z" />
    <glyph glyph-name="H" unicode="H" horiz-adv-x="768" 
d="M25 699h324v-132h-62v-151h190v151h-59v132h325v-132h-58v-435h58v-132h-325v132h59v151h-190v-151h62v-132h-324v132h55v435h-55v132z" />
    <glyph glyph-name="I" unicode="I" horiz-adv-x="382" 
d="M25 699h332v-132h-62v-434h62v-133h-332v133h63v434h-63v132z" />
    <glyph glyph-name="J" unicode="J" horiz-adv-x="463" 
d="M20 -61c12.667 -6 27.667 -8.99805 45 -8.99805c24.667 0 44.667 10.667 60 32s23 58.666 23 111.999v494h-86v131h376v-131h-83v-494c0 -44 -5 -83.333 -15 -118s-26.167 -63.834 -48.5 -87.501s-51.5 -41.667 -87.5 -54s-79.667 -18.5 -131 -18.5
c-9.33301 0 -18.5 1 -27.5 3s-17.167 4.66699 -24.5 8z" />
    <glyph glyph-name="K" unicode="K" horiz-adv-x="815" 
d="M340 570h-54v-163l186 163h-72v129h333v-129h-58l-145 -125l202 -315h58v-130h-390v130h68l-108 170l-74 -63v-107h54v-130h-315v130h54v440h-54v129h315v-129z" />
    <glyph glyph-name="L" unicode="L" horiz-adv-x="610" 
d="M25 699h316v-132h-53v-434h129v127h168v-260h-560v133h55v434h-55v132z" />
    <glyph glyph-name="M" unicode="M" horiz-adv-x="1008" 
d="M719 523c-2 -11.333 -4.33203 -23.6689 -6.99902 -37.002l-8 -38.5c-2.66699 -12.333 -5.33398 -23.666 -8.00098 -33.999s-4.66699 -18.5 -6 -24.5l-105 -389h-209l-112 399c-1.33301 4 -3 10.5 -5 19.5s-4 19.167 -6 30.5s-4 23.333 -6 36s-3.33301 25.334 -4 38.001
h-4v-394h57v-129h-271v129h54v441h-53v129h379l101 -374l96 374h381v-129h-55v-440h55v-130h-316v130h57v393h-5z" />
    <glyph glyph-name="N" unicode="N" horiz-adv-x="816" 
d="M791 570h-66v-570h-215l-255 381v-252h77v-129h-307v129h59v441h-58v129h287l246 -367v238h-69v129h301v-129z" />
    <glyph glyph-name="O" unicode="O" 
d="M373 -18c-52 0 -99.998 7.66699 -143.998 23s-81.833 38.333 -113.5 69s-56.334 69.167 -74.001 115.5s-26.5 100.833 -26.5 163.5c0 54 8.5 103.333 25.5 148s41 83.167 72 115.5s68 57.333 111 75s90.5 26.5 142.5 26.5c61.333 0 114.5 -8.83301 159.5 -26.5
s82.333 -42.667 112 -75s51.667 -71.5 66 -117.5s21.5 -97 21.5 -153c0 -56.667 -7.66699 -107.5 -23 -152.5s-38 -83.167 -68 -114.5s-66.833 -55.333 -110.5 -72s-93.834 -25 -150.501 -25zM373.002 139c16 0 30.1641 5.00098 42.4971 15.001s23 24 32 42
s15.833 39.667 20.5 65s7 53.666 7 84.999c0 30.667 -2.16699 59.167 -6.5 85.5s-11 49.333 -20 69s-20.5 35.167 -34.5 46.5s-30.667 17 -50 17c-15.333 0 -29.166 -5.16699 -41.499 -15.5s-23 -24.833 -32 -43.5s-16 -41 -21 -67s-7.5 -54.333 -7.5 -85
c0 -32.667 2.83301 -62.167 8.5 -88.5s13.334 -48.833 23.001 -67.5s21.334 -33 35.001 -43s28.5 -15 44.5 -15z" />
    <glyph glyph-name="P" unicode="P" horiz-adv-x="640" 
d="M25 699l324 0.00195312c58 0 105 -5.83301 141 -17.5s64 -27.334 84 -47.001s33.5 -42.334 40.5 -68.001s10.5 -52.834 10.5 -81.501c0 -33.333 -7 -62.333 -21 -87s-33 -45.167 -57 -61.5s-51.833 -28.666 -83.5 -36.999s-65.5 -12.5 -101.5 -12.5h-76v-155h61v-132
h-322v132h56v436h-56v131zM286 569.002l-0.000976562 -174h45c29.333 0 53 7.16699 71 21.5s27 34.833 27 61.5c0 30 -8.16699 52.667 -24.5 68s-39.166 23 -68.499 23h-50z" />
    <glyph glyph-name="Q" unicode="Q" horiz-adv-x="755" 
d="M357 0c-50.667 0 -97 7.33008 -139 21.9971s-78 36.834 -108 66.501s-53.333 66.5 -70 110.5s-25 95.667 -25 155c0 50.667 8 97.334 24 140.001s38.833 79.5 68.5 110.5s65.167 55 106.5 72s87 25.5 137 25.5c58.667 0 109.5 -8.5 152.5 -25.5s78.5 -41 106.5 -72
s48.833 -68.333 62.5 -112s20.5 -92.167 20.5 -145.5c0 -106 -27.667 -189.333 -83 -250c4 -15.333 9.16699 -30 15.5 -44s15.833 -21 28.5 -21c8.66699 0 14.167 5.33301 16.5 16s3.5 20.334 3.5 29.001v29h66v-51c0 -22 -3.16699 -42.833 -9.5 -62.5
s-15.666 -36.667 -27.999 -51s-28 -25.666 -47 -33.999s-40.833 -12.5 -65.5 -12.5c-20.667 0 -39.334 3 -56.001 9s-31.334 14.167 -44.001 24.5s-23.667 22.166 -33 35.499s-16.666 27.333 -21.999 42c-24 -4 -50 -6 -78 -6zM357 346.997
c21.333 0 41.333 -3.66895 60 -11.002s36 -16.666 52 -27.999c0.666992 6 1.16699 12.167 1.5 18.5s0.5 13.166 0.5 20.499c0 28.667 -2.83301 55.834 -8.5 81.501s-13.834 47.834 -24.501 66.501s-23.5 33.5 -38.5 44.5s-31.833 16.5 -50.5 16.5
c-15.333 0 -29.833 -5.16699 -43.5 -15.5s-25.667 -24.5 -36 -42.5s-18.666 -39.333 -24.999 -64s-9.5 -51.334 -9.5 -80.001c0 -21.333 1.33301 -39.666 4 -54.999c11.333 12 26.333 23 45 33s43 15 73 15zM357 149.995c18.667 0 36.3301 7.33398 52.9971 22.001
c-3.33301 25.333 -8.66602 45.666 -15.999 60.999s-19.666 23 -36.999 23c-16.667 0 -30.167 -7.16699 -40.5 -21.5s-19.166 -31.5 -26.499 -51.5c20 -22 42.333 -33 67 -33z" />
    <glyph glyph-name="R" unicode="R" horiz-adv-x="737" 
d="M25 699l325.002 -0.000976562c58 0 105 -5.33301 141 -16s64.167 -25.334 84.5 -44.001s34 -40.5 41 -65.5s10.5 -51.833 10.5 -80.5c0 -19.333 -3.66699 -37.333 -11 -54s-17.5 -31.167 -30.5 -43.5s-28.333 -22.666 -46 -30.999s-36.834 -13.833 -57.501 -16.5
c17.333 -2.66699 33.833 -8.16699 49.5 -16.5s29.5 -18.833 41.5 -31.5s21.667 -27 29 -43s11 -33 11 -51c0 -21.333 1.66699 -38 5 -50s9.66602 -18 18.999 -18c15.333 0 23 10.667 23 32v33h67v-55c0 -20.667 -2.33301 -40.667 -7 -60s-12.667 -36.333 -24 -51
s-26.333 -26.5 -45 -35.5s-42 -13.5 -70 -13.5c-66 0 -114.833 16.333 -146.5 49s-47.5 78.334 -47.5 137.001c0 22.667 -1 41.334 -3 56.001s-6.5 26.167 -13.5 34.5s-17.167 14.166 -30.5 17.499s-31 5 -53 5v-155h61v-132h-323v132h56v436h-56v131zM287.002 568.999
l0.000976562 -170.001h45c29.333 0 52.666 6.83301 69.999 20.5s26 33.834 26 60.501c0 30 -7.83301 52.333 -23.5 67s-38.167 22 -67.5 22h-50z" />
    <glyph glyph-name="S" unicode="S" horiz-adv-x="710" 
d="M25 0l-0.00683594 251.999h186c0 -20.667 4.66699 -37.5 14 -50.5s20.5 -23.167 33.5 -30.5s26.667 -12.333 41 -15s26.833 -4 37.5 -4c8.66699 0 18 0.666992 28 2s19.167 3.83301 27.5 7.5s15.333 8.66699 21 15s8.5 14.833 8.5 25.5c0 12.667 -9.5 23.167 -28.5 31.5
s-42.667 16.5 -71 24.5s-59.166 17.167 -92.499 27.5s-64.166 24.5 -92.499 42.5s-52 40.833 -71 68.5s-28.5 62.834 -28.5 105.501c0 36.667 7.83301 68.667 23.5 96s35.334 49.666 59.001 66.999s49.334 30.333 77.001 39s53.834 13 78.501 13
c20.667 0 41.334 -1.83301 62.001 -5.5s40.334 -9.5 59.001 -17.5s35.5 -18.5 50.5 -31.5s27.5 -28.833 37.5 -47.5l10 84h172v-251h-181c0 18.667 -3.33301 35.167 -10 49.5s-15.834 26.5 -27.501 36.5s-25.334 17.5 -41.001 22.5s-32.167 7.5 -49.5 7.5
c-7.33301 0 -15 -1.16699 -23 -3.5s-15.5 -5.66602 -22.5 -9.99902s-12.667 -9.83301 -17 -16.5s-6.5 -14.334 -6.5 -23.001c0 -17.333 9.83301 -31.666 29.5 -42.999s44.167 -22 73.5 -32l95 -32.5c34 -11.667 65.667 -26.167 95 -43.5s53.833 -39 73.5 -65
s29.5 -58.667 29.5 -98s-8.16699 -72.333 -24.5 -99s-37.333 -48.5 -63 -65.5s-54.167 -29.167 -85.5 -36.5s-62 -11 -92 -11c-25.333 0 -48.666 2.66699 -69.999 8s-40.666 12.333 -57.999 21s-32.833 18.5 -46.5 29.5s-25.167 22.167 -34.5 33.5l-11 -77h-175z" />
    <glyph glyph-name="T" unicode="T" horiz-adv-x="701" 
d="M686 699v-260h-147v128h-84v-434h83v-133h-372v133h82v434h-86v-128h-147v260h671z" />
    <glyph glyph-name="U" unicode="U" horiz-adv-x="737" 
d="M15 699l318.001 -0.00195312v-129h-54v-216c0 -40 2.16699 -72.667 6.5 -98s10.833 -45.166 19.5 -59.499s19.167 -24.166 31.5 -29.499s26.5 -8 42.5 -8c15.333 0 29.166 2.16699 41.499 6.5s23 13.333 32 27s15.833 33.334 20.5 59.001s7 60.167 7 103.5v212h-54v132
h296v-129h-54v-243c0 -118.667 -24.333 -205.667 -73 -261s-120 -83 -214 -83c-101.333 3.33301 -178.333 32.166 -231 86.499s-79 138.5 -79 252.5v247h-56v130z" />
    <glyph glyph-name="V" unicode="V" horiz-adv-x="773" 
d="M425 224c1.33301 14 5 32.333 11 55s14.333 46.667 25 72l91 218h-52v130h283v-130h-49l-240 -569h-184l-265 569h-55v130h369v-130h-55l85 -224c8 -24.667 14.833 -47.5 20.5 -68.5s9.16699 -38.5 10.5 -52.5h5z" />
    <glyph glyph-name="W" unicode="W" horiz-adv-x="1015" 
d="M325 226c0.666992 6.66699 2.66797 19.002 6.00098 37.002l12 62l15 74l16 75l50 225h208l63 -276c4 -16 7.5 -33 10.5 -51s5.66699 -35.667 8 -53l6.5 -50c2 -16 3.66699 -30.333 5 -43h5c0.666992 11.333 2.16699 25.666 4.5 42.999s5 35.166 8 53.499l9 53
c3 17 5.83301 30.833 8.5 41.5l34 152h-55v130h286v-130h-55l-149 -569h-237l-60 238l-7 29.5c-2.66699 11 -5 22.167 -7 33.5l-6 33c-2 10.667 -3.66699 20 -5 28h-4c-1.33301 -7.33301 -2.83301 -16.5 -4.5 -27.5s-3.66699 -22.333 -6 -34l-7 -33.5
c-2.33301 -10.667 -4.5 -19.667 -6.5 -27l-61 -240h-232l-132 569h-56v130h330v-130h-58l26 -146c2.66699 -12 5.66699 -27.667 9 -47s6.5 -38.833 9.5 -58.5s5.66699 -38 8 -55s4.16602 -29.167 5.49902 -36.5h5z" />
    <glyph glyph-name="X" unicode="X" horiz-adv-x="835" 
d="M357 0h-332v129h87l147 191l-181 249h-52v130h396v-130h-58l98 -133l102 133h-88v130h332v-130h-85l-151 -193l180 -246h58v-130h-399v130h57l-97 130l-103 -131h89v-129z" />
    <glyph glyph-name="Y" unicode="Y" horiz-adv-x="669" 
d="M373 384c0.666992 4.66699 2.5 10.667 5.5 18s6.33301 15 10 23l11.5 24c4 8 7.33301 15 10 21l55 101h-55v128h269v-128h-54l-185 -325v-116h56v-130h-320v130h57v118l-194 323h-49v128h342v-128h-52l58 -106c1.33301 -4.66699 3.5 -10.667 6.5 -18l9.5 -23
c3.33301 -8 6.33301 -15.667 9 -23s4.66699 -13 6 -17h4z" />
    <glyph glyph-name="Z" unicode="Z" horiz-adv-x="714" 
d="M31 436v263h656v-133l-364 -434h185v128h178v-260h-661v130l364 437h-189v-131h-169z" />
    <glyph glyph-name="bracketleft" unicode="[" horiz-adv-x="720" 
d="M29 700l324 -0.000976562c58 0 105 -6.5 141 -19.5s64 -30.167 84 -51.5s33.5 -45.666 40.5 -72.999s10.5 -55.333 10.5 -84c0 -37.333 -10 -69.833 -30 -97.5s-46 -50.167 -78 -67.5l112 -177h58v-130h-192l-166 268h-43v-136h61v-132h-322v132h56v436h-56v132z
M290 568.999l-0.000976562 -174h45c29.333 0 53 7.16699 71 21.5s27 34.833 27 61.5c0 30 -8.16699 52.667 -24.5 68s-39.166 23 -68.499 23h-50z" />
    <glyph glyph-name="backslash" unicode="\" horiz-adv-x="567" 
d="M534 -55h-117l-415 805h117z" />
    <glyph glyph-name="bracketright" unicode="]" horiz-adv-x="647" 
d="M30 0v130h41v489h-41v131h231v-452l116 69h-72v133h280v-133h-77l-63 -37l139 -199h41v-131h-162l-168 239l-35 -24v-84h71v-131h-301z" />
    <glyph glyph-name="asciicircum" unicode="^" horiz-adv-x="666" 
d="M400 389l-65 163l-67 -163h-186l151 319h204l151 -319h-188z" />
    <glyph glyph-name="underscore" unicode="_" horiz-adv-x="500" 
d="M0 -125v50h500v-50h-500z" />
    <glyph glyph-name="grave" unicode="`" horiz-adv-x="509" 
d="M53 701l78 -142h-125l-151 142h198z" />
    <glyph glyph-name="a" unicode="a" horiz-adv-x="600" 
d="M36 458c10 6 22.667 13.001 38 21.001s32.5 15.833 51.5 23.5s39.333 14 61 19s44.167 7.5 67.5 7.5c30 0 61 -3.16699 93 -9.5s61.167 -17.333 87.5 -33s48 -36.834 65 -63.501s25.5 -60 25.5 -100v-195h60v-128h-214l-24 45
c-9.33301 -12.667 -19.833 -23.167 -31.5 -31.5s-23.667 -14.833 -36 -19.5s-24.5 -8 -36.5 -10s-22.333 -3 -31 -3c-24 0 -47.667 3.33301 -71 10s-44.333 16.667 -63 30s-33.834 30.5 -45.501 51.5s-17.5 46.167 -17.5 75.5c0 28 5.5 53.333 16.5 76s26 42 45 58
s41.167 28.333 66.5 37s52 13 80 13c14.667 0 27.834 -1.5 39.501 -4.5s21.667 -6.5 30 -10.5s15 -8 20 -12s8.16699 -6.66699 9.5 -8v35c0 22.667 -9 37.667 -27 45s-40.667 11 -68 11c-30 0 -57.5 -5 -82.5 -15s-47.167 -20.333 -66.5 -31zM258 111.001
c15.333 0 28.667 3.66797 40 11.001s19.333 14.666 24 21.999v38c-0.666992 1.33301 -2.16699 3.5 -4.5 6.5s-5.83301 6.16699 -10.5 9.5s-10.5 6.33301 -17.5 9s-15.833 4 -26.5 4c-20 0 -34.667 -5 -44 -15s-14 -22.667 -14 -38c0 -14 5 -25.333 15 -34s22.667 -13 38 -13
z" />
    <glyph glyph-name="b" unicode="b" horiz-adv-x="656" 
d="M31 0l-0.000976562 130.002h42v489h-42v131h242v-289c5.33301 6.66699 12.833 12.834 22.5 18.501s20.5 10.667 32.5 15s24.667 7.66602 38 9.99902s26 3.5 38 3.5c38.667 0 72.334 -7.33301 101.001 -22s52.5 -34.167 71.5 -58.5s33.333 -52.333 43 -84
s14.5 -64.167 14.5 -97.5c-0.666992 -38.667 -6.5 -73.834 -17.5 -105.501s-26.5 -58.667 -46.5 -81s-44 -39.666 -72 -51.999s-59.667 -18.5 -95 -18.5c-19.333 0 -35.666 1.16699 -48.999 3.5s-25 5.66602 -35 9.99902s-18.833 9.16602 -26.5 14.499
s-14.834 11 -21.501 17l-15 -34h-225zM413.999 244.002c0 14.667 -1.66699 29.501 -5 44.501s-8.16602 28.167 -14.499 39.5s-14 20.666 -23 27.999s-18.833 11 -29.5 11c-18.667 0 -35.167 -10.333 -49.5 -31s-21.5 -49 -21.5 -85c0 -18.667 1.66699 -36 5 -52
s8.16602 -30 14.499 -42s14 -21.333 23 -28s18.833 -10 29.5 -10c21.333 0 38.5 11.333 51.5 34s19.5 53 19.5 91z" />
    <glyph glyph-name="c" unicode="c" horiz-adv-x="531" 
d="M360 274c-0.666992 12 -2.16797 24.1709 -4.50098 36.5039s-5.83301 23.666 -10.5 33.999s-11 18.666 -19 24.999s-17.667 9.5 -29 9.5c-14.667 0 -27.5 -3.66699 -38.5 -11s-20.167 -17 -27.5 -29s-12.833 -25.667 -16.5 -41s-5.5 -31 -5.5 -47
c0 -34 9.33301 -62.167 28 -84.5s44.667 -33.5 78 -33.5c25.333 0 47.333 5.16699 66 15.5s36 24.166 52 41.499l88 -102c-12 -12.667 -26.333 -25.167 -43 -37.5s-35.5 -23.166 -56.5 -32.499s-43.833 -17 -68.5 -23s-50.334 -9 -77.001 -9
c-36.667 0 -71.667 5.5 -105 16.5s-62.5 27.667 -87.5 50s-45 50.166 -60 83.499s-22.5 72.333 -22.5 117c0 44 6.83301 82.167 20.5 114.5s31.834 59 54.501 80s48.834 36.5 78.501 46.5s60.5 15 92.5 15c16.667 0 31.834 -2 45.501 -6s25.667 -9 36 -15
s19.166 -12.333 26.499 -19s13 -12.334 17 -17.001l17 48h118v-226h-147z" />
    <glyph glyph-name="d" unicode="d" horiz-adv-x="634" 
d="M368 620h-46v130h249v-620h48v-130h-234l-17 37c-3.33301 -3.33301 -8.5 -7.5 -15.5 -12.5s-15.833 -10 -26.5 -15s-23 -9.33301 -37 -13s-29.667 -5.5 -47 -5.5c-35.333 0 -67.333 7.16699 -96 21.5s-53 33.666 -73 57.999s-35.5 52.5 -46.5 84.5
s-16.5 65.333 -16.5 100c0 38.667 6.33301 73.834 19 105.501s29.667 58.5 51 80.5s46 39 74 51s57.333 18 88 18c35.333 0 62.833 -4.83301 82.5 -14.5s34.167 -17.5 43.5 -23.5v148zM225 255c0 -15.333 1.66699 -30.334 5 -45.001s8.16602 -27.667 14.499 -39
s13.833 -20.666 22.5 -27.999s18.667 -11 30 -11c18.667 0 35.167 10.333 49.5 31s21.5 49 21.5 85c0 18.667 -1.66699 36 -5 52s-8.16602 30 -14.499 42s-14 21.333 -23 28s-18.833 10 -29.5 10c-21.333 0 -38.5 -11.333 -51.5 -34s-19.5 -53 -19.5 -91z" />
    <glyph glyph-name="e" unicode="e" horiz-adv-x="542" 
d="M527 69c-37.333 -32 -76.667 -54.499 -118 -67.499s-88 -19.5 -140 -19.5c-31.333 0 -62.666 5.16699 -93.999 15.5s-59.5 26.333 -84.5 48s-45.5 49.667 -61.5 84s-24 75.5 -24 123.5c0 40.667 7 77.167 21 109.5s33 59.833 57 82.5s52.333 39.834 85 51.501
s68 17.5 106 17.5c41.333 0 77.833 -6 109.5 -18s58.167 -28.667 79.5 -50s37.333 -46.5 48 -75.5s16 -60.5 16 -94.5c0 -13.333 -1 -26.5 -3 -39.5s-5 -25.167 -9 -36.5h-315c1.33301 -6.66699 3.5 -14.667 6.5 -24s8.16699 -18.333 15.5 -27s17.333 -16 30 -22
s29.667 -9 51 -9c8.66699 0 18.167 0.333008 28.5 1s21.5 2.66699 33.5 6s24.667 8.16602 38 14.499s26.666 15.166 39.999 26.499zM279.999 379.001c-15.333 0 -27.832 -3.00293 -37.499 -9.00293s-17.334 -13.167 -23.001 -21.5s-9.66699 -17.166 -12 -26.499
s-3.83301 -17 -4.5 -23h151c0 9.33301 -1 18.833 -3 28.5s-5.5 18.334 -10.5 26.001s-12.333 13.834 -22 18.501s-22.5 7 -38.5 7z" />
    <glyph glyph-name="f" unicode="f" horiz-adv-x="386" 
d="M351 628c-5.33301 2.66699 -12.501 4.99902 -21.501 6.99902s-20.167 3 -33.5 3c-21.333 0 -32 -17.667 -32 -53v-85h91v-130h-91v-239h60v-131h-298v131h40v239h-41v130h41v85c0 14 1.83301 31.5 5.5 52.5s12.334 41.167 26.001 60.5s33.5 35.833 59.5 49.5
s61.667 20.5 107 20.5c12.667 0 26.334 -0.666992 41.001 -2s28.667 -3.16602 42 -5.49902s25.666 -5 36.999 -8s20.333 -6.16699 27 -9.5z" />
    <glyph glyph-name="g" unicode="g" horiz-adv-x="640" 
d="M77 -6c6 -5.33301 14.8369 -11.499 26.5039 -18.499s25.167 -14 40.5 -21s32.166 -12.833 50.499 -17.5s37.166 -7 56.499 -7c22.667 0 41.334 3 56.001 9s26.5 13.5 35.5 22.5s15.333 19 19 30s5.5 21.833 5.5 32.5v34c-3.33301 -4.66699 -8.33301 -10.167 -15 -16.5
s-14.834 -12.333 -24.501 -18s-21 -10.5 -34 -14.5s-27.5 -6 -43.5 -6c-43.333 0 -80.166 7.16699 -110.499 21.5s-55 33.166 -74 56.499s-33 50 -42 80s-13.5 60.667 -13.5 92c0 38.667 5.33301 73.834 16 105.501s26.5 58.667 47.5 81s47.167 39.666 78.5 51.999
s67.666 18.5 108.999 18.5c22 0 42.667 -4.33301 62 -13s34 -18 44 -28l20 31h238v-131h-60v-299c0 -41.333 -6.33301 -78.833 -19 -112.5s-32 -62.5 -58 -86.5s-58.5 -42.667 -97.5 -56s-84.833 -20 -137.5 -20c-27.333 0 -52.833 3 -76.5 9s-45.334 13.5 -65.001 22.5
s-36.834 18.5 -51.501 28.5s-26.667 19.333 -36 28zM223.004 255.001c0 -15.333 1.66699 -30.334 5 -45.001s8.16602 -27.667 14.499 -39s13.833 -20.666 22.5 -27.999s18.667 -11 30 -11c18.667 0 35.167 10.333 49.5 31s21.5 49 21.5 85c0 18.667 -1.66699 36 -5 52
s-8.16602 30 -14.499 42s-14 21.333 -23 28s-18.833 10 -29.5 10c-21.333 0 -38.5 -11.333 -51.5 -34s-19.5 -53 -19.5 -91z" />
    <glyph glyph-name="h" unicode="h" horiz-adv-x="661" 
d="M339 0l-313.998 -0.00195312v131h42v489h-42v130h242v-312c2.66699 4.66699 9 11.334 19 20.001s22.167 17.5 36.5 26.5s30.333 16.833 48 23.5s35.5 10 53.5 10c38.667 0 69.5 -6.5 92.5 -19.5s40.667 -30 53 -51s20.333 -44.667 24 -71s5.5 -52.5 5.5 -78.5v-167h47
v-131h-257v272c0 8.66699 -0.333008 18.334 -1 29.001s-2.83398 20.667 -6.50098 30s-9.5 17.333 -17.5 24s-19.333 10 -34 10c-12.667 0 -23.167 -2.83301 -31.5 -8.5s-14.833 -13 -19.5 -22s-7.83398 -19 -9.50098 -30s-2.5 -21.833 -2.5 -32.5v-141h72v-131z" />
    <glyph glyph-name="i" unicode="i" horiz-adv-x="330" 
d="M305 0h-280v131h42v239h-42v130h232v-369h48v-131zM53 646c0 11.333 2.33301 23 7 35s11.5 23 20.5 33s20.333 18.167 34 24.5s29.167 9.5 46.5 9.5s32.833 -3.16699 46.5 -9.5s25.167 -14.5 34.5 -24.5s16.5 -21 21.5 -33s7.5 -23.667 7.5 -35
c0 -28 -9.33301 -51.833 -28 -71.5s-46 -29.5 -82 -29.5c-16 0 -30.5 3 -43.5 9s-24.333 13.833 -34 23.5s-17.167 20.5 -22.5 32.5s-8 24 -8 36z" />
    <glyph glyph-name="j" unicode="j" horiz-adv-x="360" 
d="M128 370l-42.001 -0.000976562v130h232v-430c0 -31.333 -3.33301 -63.333 -10 -96s-20.667 -62.667 -42 -90s-52 -49.666 -92 -66.999s-93.333 -26 -160 -26v134c28.667 0 50.834 5.33301 66.501 16s27 23.5 34 38.5s11 30.833 12 47.5s1.5 31 1.5 43v300z
M113.999 645.999c0 11.333 2.33301 23 7 35s11.5 23 20.5 33s20.333 18.167 34 24.5s29.167 9.5 46.5 9.5s32.833 -3.16699 46.5 -9.5s25.167 -14.5 34.5 -24.5s16.5 -21 21.5 -33s7.5 -23.667 7.5 -35c0 -28 -9.33301 -51.833 -28 -71.5s-46 -29.5 -82 -29.5
c-16 0 -30.5 3 -43.5 9s-24.333 13.833 -34 23.5s-17.167 20.5 -22.5 32.5s-8 24 -8 36z" />
    <glyph glyph-name="k" unicode="k" horiz-adv-x="654" 
d="M38 0v130h41v489h-41v131h231v-452l116 69h-72v132h280v-132h-77l-68 -43l135 -193h50v-131h-296v131h42l-76 108l-35 -24v-84h37v-131h-267z" />
    <glyph glyph-name="l" unicode="l" horiz-adv-x="332" 
d="M317 0h-292v131h43v490h-42v129h232v-619h59v-131z" />
    <glyph glyph-name="m" unicode="m" horiz-adv-x="908" 
d="M322 0h-296.999v131h42v236h-42v132h189l22 -59l17.5 19.5c7.66699 8.33301 16.834 16.5 27.501 24.5s22.667 14.833 36 20.5s28 8.5 44 8.5c25.333 0 46.5 -2.66699 63.5 -8s31.167 -11.666 42.5 -18.999s20.333 -15.166 27 -23.499s12 -15.5 16 -21.5
c15.333 17.333 35 33.666 59 48.999s53.333 23 88 23c40.667 0 73.167 -6.83301 97.5 -20.5s43.166 -31.667 56.499 -54s22.166 -47.833 26.499 -76.5s6.5 -58.334 6.5 -89.001v-138h49v-135h-254v245c0 6.66699 0.166992 13.667 0.5 21s0.5 15 0.5 23
c0 10 -0.5 19.833 -1.5 29.5s-2.83301 18.167 -5.5 25.5s-6.5 13.333 -11.5 18s-11.833 7 -20.5 7c-21.333 0 -35.5 -6.83301 -42.5 -20.5s-10.5 -31.167 -10.5 -52.5v-162h60v-134h-259v255c0 40.667 -2 69.834 -6 87.501s-16 26.5 -36 26.5
c-16 0 -27.5 -4.83301 -34.5 -14.5s-10.5 -24.834 -10.5 -45.501v-178h60v-131z" />
    <glyph glyph-name="n" unicode="n" horiz-adv-x="647" 
d="M333 0l-308 -0.000976562v131h42v239h-42v130h213l23 -62c17.333 23.333 37.5 42.5 60.5 57.5s50.5 22.5 82.5 22.5c38.667 0 69.834 -6.5 93.501 -19.5s42 -30 55 -51s21.667 -44.667 26 -71s6.5 -52.5 6.5 -78.5v-167h47v-131h-252v273
c0 8.66699 -0.166992 18.334 -0.5 29.001s-2.16602 20.667 -5.49902 30s-8.83301 17.333 -16.5 24s-18.834 10 -33.501 10c-12.667 0 -23.167 -2.83301 -31.5 -8.5s-14.833 -13 -19.5 -22s-7.83398 -19 -9.50098 -30s-2.5 -21.833 -2.5 -32.5v-142h72v-131z" />
    <glyph glyph-name="o" unicode="o" horiz-adv-x="574" 
d="M290 -13c-36 0 -70.834 5.5 -104.501 16.5s-63.5 27.5 -89.5 49.5s-46.667 49.667 -62 83s-23 72 -23 116c0 42 7.83301 79.167 23.5 111.5s36.334 59.5 62.001 81.5s55 38.667 88 50s66.5 17 100.5 17c39.333 0 76 -6.16699 110 -18.5s63.5 -30 88.5 -53
s44.5 -51 58.5 -84s21 -70.5 21 -112.5c0 -41.333 -7.16699 -77.833 -21.5 -109.5s-33.833 -58.5 -58.5 -80.5s-53.5 -38.667 -86.5 -50s-68.5 -17 -106.5 -17zM289.999 115c10.667 0 20.167 3.33301 28.5 10s15.5 16 21.5 28s10.5 26.167 13.5 42.5s4.5 33.833 4.5 52.5
s-1.66699 36.167 -5 52.5s-8 30.5 -14 42.5s-13.5 21.5 -22.5 28.5s-19.5 10.5 -31.5 10.5c-10 0 -19.167 -3.33301 -27.5 -10s-15.5 -16 -21.5 -28s-10.833 -26 -14.5 -42s-5.5 -33 -5.5 -51c0 -41.333 7 -74.333 21 -99s31.667 -37 53 -37z" />
    <glyph glyph-name="p" unicode="p" horiz-adv-x="638" 
d="M413 244c0 14.667 -1.66699 29.501 -5 44.501s-8.16602 28.167 -14.499 39.5s-14 20.666 -23 27.999s-18.833 11 -29.5 11c-18.667 0 -35.167 -10.333 -49.5 -31s-21.5 -49 -21.5 -85c0 -18.667 1.66699 -36 5 -52s8.16602 -30 14.499 -42s14 -21.333 23 -28
s18.833 -10 29.5 -10c21.333 0 38.5 11.333 51.5 34s19.5 53 19.5 91zM25 -72.999l41.998 0.00195312v440h-42v133h229l17 -35c4.66699 3.33301 10.834 7.5 18.501 12.5s16.5 9.66699 26.5 14s21.333 8.16602 34 11.499s26.667 5 42 5c38.667 0 72.834 -7 102.501 -21
s54.334 -33 74.001 -57s34.5 -51.833 44.5 -83.5s15 -65.167 15 -100.5c0 -40 -5.83301 -75.833 -17.5 -107.5s-27.667 -58.5 -48 -80.5s-44.5 -39 -72.5 -51s-58 -18 -90 -18c-20.667 0 -38.834 1.66699 -54.501 5s-28.667 7.33301 -39 12s-18.5 9.16699 -24.5 13.5
s-10 7.16602 -12 8.49902v-101h54v-131h-299v131z" />
    <glyph glyph-name="q" unicode="q" horiz-adv-x="660" 
d="M383 257c0 14.667 -1.66699 29.501 -5 44.501s-8.16602 28.167 -14.499 39.5s-14 20.666 -23 27.999s-18.833 11 -29.5 11c-18.667 0 -35.167 -10.333 -49.5 -31s-21.5 -49 -21.5 -85c0 -18.667 1.66699 -36 5 -52s8.16602 -30 14.499 -42s14 -21.333 23 -28
s18.833 -10 29.5 -10c21.333 0 38.5 11.333 51.5 34s19.5 53 19.5 91zM318 -98.999l64.999 -0.000976562v132c-11.333 -9.33301 -28 -18.666 -50 -27.999s-48 -14 -78 -14c-32 0 -62 6.16699 -90 18.5s-52.333 29.833 -73 52.5s-37 50.167 -49 82.5s-18 68.5 -18 108.5
c0 43.333 6.16699 81 18.5 113s29.333 58.667 51 80s47 37.333 76 48s60.167 16 93.5 16c32.667 0 59.334 -5 80.001 -15s33.667 -18.333 39 -25l19 30h233v-130h-49v-466h49v-134h-317v131z" />
    <glyph glyph-name="r" unicode="r" horiz-adv-x="414" 
d="M308 0h-283v131h44v239h-43v130h188l30 -64c6.66699 12 13.667 23.333 21 34s16.666 20.167 27.999 28.5s25.333 14.833 42 19.5s38 7 64 7v-180c-45.333 0 -80.166 -7.5 -104.499 -22.5s-36.5 -44.5 -36.5 -88.5v-103h50v-131z" />
    <glyph glyph-name="s" unicode="s" horiz-adv-x="508" 
d="M15 0l0.000976562 180.004h134c0 -13.333 4.16699 -24.333 12.5 -33s18.166 -15.5 29.499 -20.5s23 -8.5 35 -10.5s21.667 -3 29 -3c10 0 19.833 2.16699 29.5 6.5s14.5 13.5 14.5 27.5c0 9.33301 -6.83301 16.833 -20.5 22.5s-31 11.167 -52 16.5
s-43.5 11.666 -67.5 18.999s-46.5 17.5 -67.5 30.5s-38.333 30 -52 51s-20.5 47.833 -20.5 80.5c0 25.333 5.83301 47.166 17.5 65.499s26.334 33.333 44.001 45s36.667 20.334 57 26.001s39.5 8.5 57.5 8.5c34 0 64.667 -7.66699 92 -23s46.333 -33.666 57 -54.999l8 66
h123v-180h-130c0 10.667 -3 20.5 -9 29.5s-13.833 17 -23.5 24s-20.5 12.5 -32.5 16.5s-24.333 6 -37 6c-10.667 0 -19.834 -2.83301 -27.501 -8.5s-11.5 -14.834 -11.5 -27.501c0 -11.333 7 -20.333 21 -27s31.5 -13.167 52.5 -19.5l68.5 -21
c24.667 -7.66699 47.5 -17.834 68.5 -30.501s38.5 -28.834 52.5 -48.501s21 -44.834 21 -75.501c0 -23.333 -5.16699 -44.333 -15.5 -63s-24 -34.5 -41 -47.5s-36.833 -22.833 -59.5 -29.5s-46 -10 -70 -10c-36 0 -67.5 7.33301 -94.5 22s-46.5 31.667 -58.5 51l-9 -61h-125
z" />
    <glyph glyph-name="t" unicode="t" horiz-adv-x="363" 
d="M15 500l53.999 -0.00195312v92l184 59v-151h95v-130h-95v-178c0 -4.66699 -0.166992 -9.33398 -0.5 -14.001s-0.5 -9.66699 -0.5 -15c0 -13.333 1.83301 -25.166 5.5 -35.499s12.834 -15.5 27.501 -15.5c6.66699 0 16.5 1.83301 29.5 5.5s24.167 7.5 33.5 11.5v-128
c-7.33301 -3.33301 -16.666 -6.16602 -27.999 -8.49902s-23 -4.16602 -35 -5.49902s-23.167 -2.5 -33.5 -3.5s-18.5 -1.5 -24.5 -1.5c-37.333 0 -66.5 5 -87.5 15s-36.5 24 -46.5 42s-16.333 40 -19 66s-4.33398 55 -5.00098 87v178h-54v130z" />
    <glyph glyph-name="u" unicode="u" horiz-adv-x="631" 
d="M15 500l242.001 -0.000976562v-241c0 -43.333 3.83301 -75.166 11.5 -95.499s21.834 -30.5 42.501 -30.5c17.333 0 32.166 7 44.499 21s18.5 32.333 18.5 55v159h-66v132h259v-367h49v-133h-189l-27 63l-19.5 -22.5c-7.66699 -9 -17 -17.5 -28 -25.5
s-24.167 -14.833 -39.5 -20.5s-33.666 -8.5 -54.999 -8.5c-38 0 -69.833 5 -95.5 15s-46.334 25 -62.001 45s-26.834 45.333 -33.501 76s-10 66.667 -10 108v138h-42v132z" />
    <glyph glyph-name="v" unicode="v" horiz-adv-x="613" 
d="M330 162c0 5.33301 0.830078 12.167 2.49707 20.5s3.83398 17.5 6.50098 27.5s5.83398 20.333 9.50098 31s7.5 21 11.5 31l48 101h-53v127h258v-127h-52l-173 -373h-155l-186 373h-47v127h304v-127h-50l46 -106c6.66699 -19.333 12.334 -39 17.001 -59
s7.66699 -35.333 9 -46h4z" />
    <glyph glyph-name="w" unicode="w" horiz-adv-x="872" 
d="M284 153c0.666992 10 1.83203 23.3311 3.49902 39.998s4 35.167 7 55.5s7 42.333 12 66s11.167 48.167 18.5 73.5l32 112h185l38 -130c6 -19.333 11.333 -40 16 -62l13 -63c4 -20 7.16699 -38.167 9.5 -54.5s3.83301 -28.833 4.5 -37.5h2
c0.666992 8 1.83398 18.167 3.50098 30.5l5.5 40.5c2 14.667 4.5 29.5 7.5 44.5s6.5 29.167 10.5 42.5l17 59h-41v130h244v-130h-41l-117 -370h-211l-69 226l-72 -226h-206l-113 370h-43v130h269v-130h-34l22 -73c3.33301 -12 6.5 -24.833 9.5 -38.5s5.5 -27.167 7.5 -40.5
s3.66699 -25.666 5 -36.999s2.33301 -20.666 3 -27.999h2z" />
    <glyph glyph-name="x" unicode="x" horiz-adv-x="649" 
d="M375 500h255v-125h-66l-106 -107l126 -144h47v-124h-319v124h47l-76 81l-72 -81h65v-124h-256v124h67l102 115l-124 136h-45v125h324v-125h-47l70 -76l75 76h-67v125z" />
    <glyph glyph-name="y" unicode="y" horiz-adv-x="580" 
d="M382 373l-46.001 0.00488281v127h254v-124h-48l-190 -462c-7.33301 -16 -15.833 -32.333 -25.5 -49s-22.5 -31.834 -38.5 -45.501s-36.167 -24.834 -60.5 -33.501s-54.5 -13 -90.5 -13c-26 1.33301 -48.833 6.66602 -68.5 15.999s-37.167 20.666 -52.5 33.999l75 118
c9.33301 -8.66699 19.833 -16.667 31.5 -24s23.167 -11 34.5 -11c13.333 0 24.833 5.66699 34.5 17s16.834 23.666 21.501 36.999l14 42l-195 370h-41v128h308v-127h-47l65 -156z" />
    <glyph glyph-name="z" unicode="z" horiz-adv-x="553" 
d="M25 300v200h495v-129l-238 -240h105v68h141v-199h-503v131l241 240h-111v-71h-130z" />
    <glyph glyph-name="braceleft" unicode="{" horiz-adv-x="429" 
d="M289 -156c-21.333 0 -40.833 2.83789 -58.5 8.50488s-33 14.667 -46 27s-23 28.666 -30 48.999s-10.5 45.5 -10.5 75.5v156c0 14 -1.16699 25 -3.5 33s-6.16602 14.167 -11.499 18.5s-12.333 7.16602 -21 8.49902s-19 2 -31 2v134c26.667 0 44.5 4.16699 53.5 12.5
s13.5 24.166 13.5 47.499v157c0 60 12.667 101.5 38 124.5s61 34.5 107 34.5h79v-151h-23c-11.333 0 -20.166 -2 -26.499 -6s-11 -8.66699 -14 -14s-5 -11 -6 -17s-1.5 -11.333 -1.5 -16v-151c0 -22.667 -3 -40 -9 -52s-13 -20.667 -21 -26s-16 -8.33301 -24 -9
s-14.333 -1 -19 -1v-2c4.66699 0 11 -0.5 19 -1.5s16 -4.16699 24 -9.5s15 -13.833 21 -25.5s9 -27.834 9 -48.501v-154c0 -4.66699 0.666992 -10 2 -16s3.66602 -11.833 6.99902 -17.5s8.16602 -10.334 14.499 -14.001s14.5 -5.5 24.5 -5.5h23v-151h-79z" />
    <glyph glyph-name="bar" unicode="|" horiz-adv-x="222" 
d="M28 -59v808h166v-808h-166z" />
    <glyph glyph-name="braceright" unicode="}" horiz-adv-x="432" 
d="M78 -5l23.001 -0.00488281c10 0 18.167 1.83301 24.5 5.5s11.166 8.33398 14.499 14.001s5.66602 11.5 6.99902 17.5s2 11.333 2 16v154c0 20.667 3 36.834 9 48.501s13 20.167 21 25.5s16 8.5 24 9.5s14.333 1.5 19 1.5v2c-4.66699 0 -11 0.333008 -19 1
s-16 3.66699 -24 9s-15 14 -21 26s-9 29.333 -9 52v151c0 4.66699 -0.5 10 -1.5 16s-3 11.667 -6 17s-7.83301 10 -14.5 14s-15.334 6 -26.001 6h-23v151h79c46 0 81.667 -11.5 107 -34.5s38 -64.5 38 -124.5v-157c0 -23.333 4.5 -39.166 13.5 -47.499
s26.833 -12.5 53.5 -12.5v-134c-12.667 0 -23.167 -0.666992 -31.5 -2s-15.166 -4.16602 -20.499 -8.49902s-9.16602 -10.5 -11.499 -18.5s-3.5 -19 -3.5 -33v-156c0 -30 -3.5 -55.167 -10.5 -75.5s-17 -36.666 -30 -48.999s-28.333 -21.333 -46 -27
s-37.167 -8.5 -58.5 -8.5h-79v151z" />
    <glyph glyph-name="asciitilde" unicode="~" horiz-adv-x="666" 
d="M568 248c-28 -37.333 -70.6689 -55.999 -128.002 -55.999c-26 0 -48.167 3 -66.5 9s-35.166 12.667 -50.499 20s-30.166 14 -44.499 20s-30.5 9 -48.5 9c-18.667 0 -35 -3 -49 -9s-28.333 -15.333 -43 -28l-38 154c12 11.333 28 22.166 48 32.499s46 15.5 78 15.5
c22.667 0 42.5 -3 59.5 -9s33.333 -12.5 49 -19.5s31.667 -13.5 48 -19.5s34.5 -9 54.5 -9c18.667 0 36.5 4 53.5 12s31.5 19.333 43.5 34z" />
    <glyph glyph-name="uni00A0" unicode="&#xa0;" horiz-adv-x="0" 
 />
    <glyph glyph-name="exclamdown" unicode="&#xa1;" horiz-adv-x="308" 
d="M271 400c0 -12.667 -2.49902 -25.333 -7.49902 -38s-12.5 -24 -22.5 -34s-22 -18.167 -36 -24.5s-30 -9.5 -48 -9.5s-34.167 2.83301 -48.5 8.5s-26.833 13.334 -37.5 23.001s-18.834 21 -24.501 34s-8.5 26.5 -8.5 40.5c0 28 10.667 52.167 32 72.5s50.333 30.5 87 30.5
c16 0 30.833 -3 44.5 -9s25.667 -13.667 36 -23s18.5 -20.333 24.5 -33s9 -25.334 9 -38.001zM267.001 -6.99902v-190h-239v190l53 252h132z" />
    <glyph glyph-name="cent" unicode="&#xa2;" horiz-adv-x="531" 
d="M246 -59v45.998c-33.333 2.66699 -64.833 10.334 -94.5 23.001s-55.667 30 -78 52s-40 49 -53 81s-19.5 68.667 -19.5 110c0 44 6.83301 82 20.5 114s31.667 58.5 54 79.5s48.333 36.667 78 47s60.5 15.5 92.5 15.5v38h84v-60c10 -6 18.333 -12.167 25 -18.5l17 -16.5
l17 48h118v-226h-147c-1.33301 17.333 -4.16602 34.5 -8.49902 51.5s-11.5 30.5 -21.5 40.5v-233c21.333 2 40.166 8 56.499 18s31.833 23 46.5 39l88 -102c-19.333 -21.333 -45.5 -41.166 -78.5 -59.499s-70.5 -30.833 -112.5 -37.5v-50h-84zM209 250.998
c0 -19.333 3.16699 -37 9.5 -53s15.5 -29.333 27.5 -40v200c-12.667 -12 -22 -27.5 -28 -46.5s-9 -39.167 -9 -60.5z" />
    <glyph glyph-name="sterling" unicode="&#xa3;" horiz-adv-x="746" 
d="M29 360l75.001 0.00195312c2 54.667 11.333 103.667 28 147s38 80.166 64 110.499s55 53.5 87 69.5s64 24 96 24c24.667 0 46.167 -3 64.5 -9s33.833 -12.833 46.5 -20.5s22.5 -15.334 29.5 -23.001s11.5 -12.834 13.5 -15.501l23 56h157v-284h-179
c-0.666992 16 -3.33398 31.667 -8.00098 47s-11.167 28.833 -19.5 40.5s-19 21 -32 28s-28.5 10.5 -46.5 10.5c-17.333 0 -33 -4.66699 -47 -14s-26.167 -22.166 -36.5 -38.499s-18.5 -35.5 -24.5 -57.5s-9.66699 -45.667 -11 -71h168v-133h-168v-94h239v93h173v-226h-690
v133h73v94h-75v133z" />
    <glyph glyph-name="currency" unicode="&#xa4;" horiz-adv-x="785" 
d="M393 77c-40 0 -78.3301 6.66406 -114.997 19.9971s-68.334 33.666 -95.001 60.999l-42 -57l-126 81l100 131c-0.666992 4.66699 -1 9.33398 -1 14.001v15v13.5c0 4.33301 0.333008 8.5 1 12.5l-100 133l126 79l44 -59c26 26.667 56.833 46.834 92.5 60.501
s72.5 20.5 110.5 20.5c43.333 0 82.666 -7.33301 117.999 -22s65.666 -34.667 90.999 -60l43 57l126 -81l-102 -134c0.666992 -4 1.16699 -8 1.5 -12s0.5 -8 0.5 -12c0 -5.33301 -0.166992 -10.166 -0.5 -14.499s-0.5 -8.83301 -0.5 -13.5l101 -133l-126 -79l-43 57
c-25.333 -25.333 -55.5 -44.666 -90.5 -57.999s-72.833 -20 -113.5 -20zM393.003 204.997c10.667 0 20.167 3.33301 28.5 10s15.5 16 21.5 28s10.5 26.167 13.5 42.5s4.5 33.833 4.5 52.5s-1.66699 36.167 -5 52.5s-8 30.5 -14 42.5s-13.5 21.5 -22.5 28.5
s-19.5 10.5 -31.5 10.5c-10 0 -19.167 -3.33301 -27.5 -10s-15.5 -16 -21.5 -28s-10.833 -26 -14.5 -42s-5.5 -33 -5.5 -51c0 -41.333 7 -74.333 21 -99s31.667 -37 53 -37z" />
    <glyph glyph-name="yen" unicode="&#xa5;" horiz-adv-x="669" 
d="M141 400h66l-168 171h-49v128h342v-128h-52l89 -91h4l92 91h-55v128h269v-128h-54l-159 -171h76v-77h-102v-51h102v-76h-102v-66h56v-130h-320v130h57v66h-92v76h92v51h-92v77z" />
    <glyph glyph-name="brokenbar" unicode="&#xa6;" horiz-adv-x="222" 
d="M28 -59v316h166v-316h-166zM194 463h-166v286h166v-286z" />
    <glyph glyph-name="section" unicode="&#xa7;" horiz-adv-x="480" 
d="M460 296c0 -20 -3.16699 -37.334 -9.5 -52.001s-14.333 -26.667 -24 -36s-20 -16.833 -31 -22.5s-21.5 -9.5 -31.5 -11.5c6.66699 -4 14 -9.16699 22 -15.5s15.5 -14.333 22.5 -24s12.667 -21 17 -34s6.5 -27.833 6.5 -44.5c0 -32.667 -6 -59.334 -18 -80.001
s-28.167 -36.667 -48.5 -48s-43.666 -19.166 -69.999 -23.499s-53.833 -6.5 -82.5 -6.5c-39.333 0 -73.5 2.33301 -102.5 7s-53.167 10.334 -72.5 17.001v139c26.667 -7.33301 54.167 -14 82.5 -20s51.5 -9 69.5 -9c15.333 0 28.166 2.16699 38.499 6.5
s15.5 13.166 15.5 26.499c0 10.667 -5.83301 19.167 -17.5 25.5s-25.834 13.166 -42.501 20.499l-48 21c-14 6 -28 13 -42 21s-26.5 17.5 -37.5 28.5s-19.833 24 -26.5 39s-10 32.833 -10 53.5c0 18.667 3.16699 34.5 9.5 47.5s14.5 24 24.5 33s21 16.167 33 21.5
s23.667 9.66602 35 12.999c-8 4 -16.333 9.16699 -25 15.5s-16.667 14.666 -24 24.999s-13.333 22.833 -18 37.5s-7 31.667 -7 51c0 28.667 6 52.834 18 72.501s28.333 35.334 49 47.001s45 20 73 25s57.667 7.5 89 7.5c42.667 0 76.834 -3.5 102.501 -10.5
s46.5 -13.5 62.5 -19.5v-135c-25.333 6.66699 -52.166 13.334 -80.499 20.001s-55.5 10 -81.5 10c-13.333 0 -24 -2.16699 -32 -6.5s-12 -12.5 -12 -24.5c0 -11.333 6.83301 -20.333 20.5 -27l49.5 -23l53 -25c12.667 -6 25.167 -12.667 37.5 -20
s23.166 -16.166 32.499 -26.499s16.833 -22.5 22.5 -36.5s8.5 -30.667 8.5 -50zM289 275.999c0 14.667 -2.66895 25.502 -8.00195 32.502s-13.666 13.167 -24.999 18.5l-30 14c-7.33301 -4.66699 -14.666 -11.334 -21.999 -20.001s-11 -18.667 -11 -30
c0 -13.333 4 -24 12 -32s17.333 -14.333 28 -19l30 -13c5.33301 4.66699 11 11.167 17 19.5s9 18.166 9 29.499z" />
    <glyph glyph-name="dieresis" unicode="&#xa8;" horiz-adv-x="586" 
d="M328 646c0 11.333 2.33301 23 7 35s11.5 23 20.5 33s20.333 18.167 34 24.5s29.167 9.5 46.5 9.5s32.833 -3.16699 46.5 -9.5s25.167 -14.5 34.5 -24.5s16.5 -21 21.5 -33s7.5 -23.667 7.5 -35c0 -28 -9.33301 -51.833 -28 -71.5s-46 -29.5 -82 -29.5
c-16 0 -30.5 3 -43.5 9s-24.333 13.833 -34 23.5s-17.167 20.5 -22.5 32.5s-8 24 -8 36zM53 646c0 11.333 2.33301 23 7 35s11.5 23 20.5 33s20.333 18.167 34 24.5s29.167 9.5 46.5 9.5s32.833 -3.16699 46.5 -9.5s25.167 -14.5 34.5 -24.5s16.5 -21 21.5 -33
s7.5 -23.667 7.5 -35c0 -28 -9.33301 -51.833 -28 -71.5s-46 -29.5 -82 -29.5c-16 0 -30.5 3 -43.5 9s-24.333 13.833 -34 23.5s-17.167 20.5 -22.5 32.5s-8 24 -8 36z" />
    <glyph glyph-name="copyright" unicode="&#xa9;" horiz-adv-x="780" 
d="M755 345c0 -62.667 -9.33301 -117.999 -28 -165.999s-44.334 -88.167 -77.001 -120.5s-71.167 -56.833 -115.5 -73.5s-92.5 -25 -144.5 -25s-100.167 8 -144.5 24s-82.833 40 -115.5 72s-58.334 72.167 -77.001 120.5s-28 104.5 -28 168.5c0 63.333 9.33301 119 28 167
s44.334 88.167 77.001 120.5s71.167 56.666 115.5 72.999s92.5 24.5 144.5 24.5s100.167 -8.5 144.5 -25.5s82.833 -41.667 115.5 -74s58.334 -72.5 77.001 -120.5s28 -103 28 -165zM605 345.001c0 85.333 -18.168 150.833 -54.501 196.5s-89.833 68.5 -160.5 68.5
s-124.167 -21.5 -160.5 -64.5s-54.5 -109.833 -54.5 -200.5c0 -45.333 5.16699 -84.666 15.5 -117.999s24.833 -60.833 43.5 -82.5s41.334 -37.834 68.001 -48.501s56 -16 88 -16c66.667 0 119.167 21.667 157.5 65s57.5 110 57.5 200zM495.999 163.001
c-10 -4 -21.335 -7.5 -34.002 -10.5s-28.334 -4.5 -47.001 -4.5c-18 0 -37.5 2.33301 -58.5 7s-40.5 14 -58.5 28s-33.167 34 -45.5 60s-18.5 60.667 -18.5 104c0 42 6.33301 75.833 19 101.5s28.334 45.5 47.001 59.5s39 23.5 61 28.5s42 7.5 60 7.5
c18.667 0 34 -1.83301 46 -5.5s21.667 -7.16699 29 -10.5v-95l-31 10c-10.667 3.33301 -23.667 5 -39 5c-21.333 0 -38.333 -7.33301 -51 -22s-19 -41 -19 -79c0 -32 5.33301 -56.667 16 -74s26.667 -26 48 -26c14.667 0 28.334 1.33301 41.001 4s24.334 6 35.001 10v-98z
" />
    <glyph glyph-name="ordfeminine" unicode="&#xaa;" horiz-adv-x="450" 
d="M27 651c7.33301 4.66699 16.835 10.001 28.502 16.001s24.5 11.833 38.5 17.5s29.167 10.5 45.5 14.5s33.166 6 50.499 6c22.667 0 46 -2.33301 70 -7s46 -13 66 -25s36.333 -28 49 -48s19 -45 19 -75v-146h45v-96h-161l-18 34c-7.33301 -10 -15.333 -18 -24 -24
s-17.667 -10.833 -27 -14.5s-18.333 -6.16699 -27 -7.5s-16.334 -2 -23.001 -2c-18 0 -35.833 2.5 -53.5 7.5s-33.5 12.5 -47.5 22.5s-25.333 22.833 -34 38.5s-13 34.5 -13 56.5c0 21.333 4.16699 40.5 12.5 57.5s19.5 31.5 33.5 43.5s30.5 21.167 49.5 27.5
s39.167 9.5 60.5 9.5c22 0 39.5 -3.83301 52.5 -11.5s20.167 -12.5 21.5 -14.5v26c0 17.333 -6.66699 28.666 -20 33.999s-30.333 8 -51 8c-22 0 -42.5 -3.83301 -61.5 -11.5s-35.833 -15.5 -50.5 -23.5zM193.002 391.001c11.333 0 21.334 2.83301 30.001 8.5
s14.667 11.167 18 16.5v28c-1.33301 2 -5 6.16699 -11 12.5s-17 9.5 -33 9.5c-15.333 0 -26.333 -3.66699 -33 -11s-10 -17 -10 -29c0 -10.667 3.66699 -19.167 11 -25.5s16.666 -9.5 27.999 -9.5zM12.0029 228.001h425v-133h-425v133z" />
    <glyph glyph-name="guillemotleft" unicode="&#xab;" horiz-adv-x="564" 
d="M170 8l-170 247l170 248l115 -78l-115 -170l115 -170zM450 8l-165 247l165 248l115 -78l-115 -170l115 -170z" />
    <glyph glyph-name="logicalnot" unicode="&#xac;" horiz-adv-x="610" 
d="M410 99v161h-380v160h550v-321h-170z" />
    <glyph glyph-name="uni00AD" unicode="&#xad;" horiz-adv-x="447" 
d="M32 305h377v-133h-377v133z" />
    <glyph glyph-name="registered" unicode="&#xae;" horiz-adv-x="780" 
d="M755 345c0 -62.667 -9.33301 -117.999 -28 -165.999s-44.334 -88.167 -77.001 -120.5s-71.167 -56.833 -115.5 -73.5s-92.5 -25 -144.5 -25s-100.167 8 -144.5 24s-82.833 40 -115.5 72s-58.334 72.167 -77.001 120.5s-28 104.5 -28 168.5c0 63.333 9.33301 119 28 167
s44.334 88.167 77.001 120.5s71.167 56.666 115.5 72.999s92.5 24.5 144.5 24.5s100.167 -8.5 144.5 -25.5s82.833 -41.667 115.5 -74s58.334 -72.5 77.001 -120.5s28 -103 28 -165zM605 345.001c0 85.333 -18.168 150.833 -54.501 196.5s-89.833 68.5 -160.5 68.5
s-124.167 -21.5 -160.5 -64.5s-54.5 -109.833 -54.5 -200.5c0 -45.333 5.16699 -84.666 15.5 -117.999s24.833 -60.833 43.5 -82.5s41.334 -37.834 68.001 -48.501s56 -16 88 -16c66.667 0 119.167 21.667 157.5 65s57.5 110 57.5 200zM425.999 167.001l-10.999 59
c-3.33301 17.333 -6.83301 31.833 -10.5 43.5s-10.167 22.167 -19.5 31.5l-16 -3v-131h-111v370h121c19.333 0 38.5 -0.833008 57.5 -2.5s36.167 -6.16699 51.5 -13.5s27.666 -18.333 36.999 -33s14 -34.667 14 -60c0 -26 -6.66699 -46.167 -20 -60.5
s-31.333 -26.5 -54 -36.5c16.667 -10 29 -22.5 37 -37.5s15 -31.167 21 -48.5l26 -78h-123zM427 423.001c0 20 -4.33301 31.999 -13 35.999s-20 6 -34 6h-11v-101c12 2.66699 21.833 5.33398 29.5 8.00098s13.5 6 17.5 10s6.83301 9.16699 8.5 15.5s2.5 14.833 2.5 25.5z
" />
    <glyph glyph-name="macron" unicode="&#xaf;" horiz-adv-x="647" 
d="M27 698h558v-133h-558v133z" />
    <glyph glyph-name="degree" unicode="&#xb0;" horiz-adv-x="574" 
d="M525 514c0 -29.333 -7 -55.5 -21 -78.5s-32.333 -42.5 -55 -58.5s-48.334 -28.167 -77.001 -36.5s-57.334 -12.5 -86.001 -12.5c-39.333 0 -73.833 5 -103.5 15s-54.5 23.833 -74.5 41.5s-35.167 38.5 -45.5 62.5s-15.5 50 -15.5 78c0 29.333 7 55.5 21 78.5
s32.333 42.5 55 58.5s48.334 28.167 77.001 36.5s57.334 12.5 86.001 12.5c38 0 71.833 -5 101.5 -15s54.667 -23.833 75 -41.5s35.833 -38.5 46.5 -62.5s16 -50 16 -78zM356 537c0 7.33301 -2.50195 14.001 -7.50195 20.001s-11.167 11 -18.5 15
s-15.166 7.16699 -23.499 9.5s-15.833 3.5 -22.5 3.5c-18 0 -34.333 -6.33301 -49 -19s-22 -29 -22 -49c0 -18.667 7.83301 -33.834 23.5 -45.501s32.834 -17.5 51.501 -17.5c18 0 34.333 6.33301 49 19s22 29 22 49c0 4.66699 -1 9.66699 -3 15z" />
    <glyph glyph-name="plusminus" unicode="&#xb1;" horiz-adv-x="722" 
d="M34 64v158h629v-158h-629zM430 458v-165h-163v165h-233v158h233v157h163v-157h233v-158h-233z" />
    <glyph glyph-name="twosuperior" unicode="&#xb2;" horiz-adv-x="354" 
d="M42 633c43.333 49.333 95.334 74 156.001 74c20 0 38.667 -3 56 -9s32.5 -14.667 45.5 -26s23.167 -25.166 30.5 -41.499s11 -34.5 11 -54.5c0 -17.333 -2 -32.166 -6 -44.499s-10 -23.5 -18 -33.5s-18 -19.5 -30 -28.5s-26 -18.5 -42 -28.5
c-7.33301 -4.66699 -15.5 -10.334 -24.5 -17.001s-17.833 -13.667 -26.5 -21s-16.5 -14.666 -23.5 -21.999s-12.167 -14 -15.5 -20h105v48h101v-128h-324v87c8 13.333 15.333 24.666 22 33.999s13.167 17.833 19.5 25.5s13.166 14.667 20.499 21l26 21.5
c10.667 9.33301 22.167 18.166 34.5 26.499l34.5 24c10.667 7.66699 19.5 15.5 26.5 23.5s10.5 16.667 10.5 26c0 15.333 -5 25.833 -15 31.5s-22 8.5 -36 8.5c-16 0 -29.833 -5.33301 -41.5 -16l-31.5 -30z" />
    <glyph glyph-name="threesuperior" unicode="&#xb3;" horiz-adv-x="344" 
d="M158 274c-14 0 -28.165 1.8291 -42.498 5.49609s-27.833 8.66699 -40.5 15s-23.834 13.666 -33.501 21.999s-17.5 16.833 -23.5 25.5l61 64c11.333 -11.333 23 -20.666 35 -27.999s26.667 -11 44 -11s30.666 3.83301 39.999 11.5s14 19.167 14 34.5
c0 16 -4.33301 27.333 -13 34s-20.667 10 -36 10h-45v71h43c14.667 0 26.834 3.5 36.501 10.5s14.5 17.167 14.5 30.5c0 16.667 -5.5 28.834 -16.5 36.501s-22.833 11.5 -35.5 11.5c-11.333 0 -23.333 -3.16699 -36 -9.5s-24.334 -15.166 -35.001 -26.499l-58 70
c5.33301 6 12.5 12.333 21.5 19s19.167 12.834 30.5 18.501s23.5 10.334 36.5 14.001s26.5 5.5 40.5 5.5c48.667 0 86.334 -11.5 113.001 -34.5s40 -53.833 40 -92.5c0 -20.667 -5.5 -37 -16.5 -49s-20.5 -21 -28.5 -27c4.66699 -3.33301 10.167 -7.83301 16.5 -13.5
s12.5 -12.667 18.5 -21s11 -17.833 15 -28.5s6 -22.667 6 -36c0 -22 -4.83301 -41.333 -14.5 -58s-22.334 -30.5 -38.001 -41.5s-33.5 -19.167 -53.5 -24.5s-40 -8 -60 -8z" />
    <glyph glyph-name="acute" unicode="&#xb4;" horiz-adv-x="509" 
d="M237 701l-151 -142h-125l78 142h198z" />
    <glyph glyph-name="mu" unicode="&#xb5;" horiz-adv-x="631" 
d="M57 368l-42.002 -0.00292969v132h242v-241c0 -43.333 3.83301 -75.166 11.5 -95.499s21.834 -30.5 42.501 -30.5c17.333 0 32.166 7 44.499 21s18.5 32.333 18.5 55v159h-66v132h259v-367h49v-133h-189l-24 48c0 -5.33301 -2.5 -11.666 -7.5 -18.999
s-11.667 -14.333 -20 -21s-17.833 -12.167 -28.5 -16.5s-21.667 -6.5 -33 -6.5s-22.166 3.16699 -32.499 9.5s-18.5 17.833 -24.5 34.5c-5.33301 -25.333 -14.833 -52 -28.5 -80s-33 -53.667 -58 -77s-56.167 -42.666 -93.5 -57.999s-82 -23 -134 -23v134
c28.667 0 50.834 5.33301 66.501 16s27 23.5 34 38.5s11 30.833 12 47.5s1.5 31 1.5 43v298z" />
    <glyph glyph-name="paragraph" unicode="&#xb6;" horiz-adv-x="627" 
d="M455 -126v733h-69v-733h-117v467c-76.667 0 -132.5 15.667 -167.5 47s-52.5 75.333 -52.5 132c0 34 5.83301 62.5 17.5 85.5s28 41.167 49 54.5s46 22.833 75 28.5s60.833 8.5 95.5 8.5h286v-823h-117z" />
    <glyph glyph-name="periodcentered" unicode="&#xb7;" horiz-adv-x="254" 
d="M15 402c0 12.667 2.33105 25.5 6.99805 38.5s11.834 25 21.501 36s21.334 20 35.001 27s29.5 10.5 47.5 10.5s34 -3.5 48 -10.5s25.833 -16 35.5 -27s17 -23 22 -36s7.5 -25.833 7.5 -38.5c0 -30 -9.83301 -55.167 -29.5 -75.5s-47.5 -30.5 -83.5 -30.5
c-15.333 0 -29.833 3 -43.5 9s-25.5 14 -35.5 24s-17.833 21.333 -23.5 34s-8.5 25.667 -8.5 39z" />
    <glyph glyph-name="cedilla" unicode="&#xb8;" horiz-adv-x="429" 
d="M340 -98c0 -12 -2.16992 -24.167 -6.50293 -36.5s-11.166 -23.333 -20.499 -33s-21.666 -17.5 -36.999 -23.5s-34.333 -9 -57 -9c-15.333 0 -31.166 2 -47.499 6s-29.833 8.66699 -40.5 14l32 62c16 -7.33301 32 -11 48 -11c22 0 33 8 33 24s-11 24 -33 24
c-6 0 -11.333 -0.166992 -16 -0.5s-8.66699 -0.833008 -12 -1.5l-10 17l27 86l79 -10l-16 -35c24 -2 42.833 -9.83301 56.5 -23.5s20.5 -30.167 20.5 -49.5z" />
    <glyph glyph-name="onesuperior" unicode="&#xb9;" horiz-adv-x="311" 
d="M14 619c8.66699 4 16.833 8 24.5 12s15.667 8.66699 24 14s17 12 26 20s19.167 18.667 30.5 32h107v-339h56v-80h-240v80h60v222l-60 -28z" />
    <glyph glyph-name="ordmasculine" unicode="&#xba;" horiz-adv-x="430" 
d="M217 312c-27.333 0 -53.498 4.16797 -78.498 12.501s-47.167 20.666 -66.5 36.999s-34.833 37 -46.5 62s-17.5 54.167 -17.5 87.5c0 31.333 5.83301 59.166 17.5 83.499s27.167 44.666 46.5 60.999s41.333 28.833 66 37.5s50 13 76 13c30 0 57.667 -4.66699 83 -14
s47.166 -22.666 65.499 -39.999s32.833 -38.5 43.5 -63.5s16 -53.167 16 -84.5c0 -30.667 -5.33301 -58 -16 -82s-25.334 -44.167 -44.001 -60.5s-40.5 -28.666 -65.5 -36.999s-51.5 -12.5 -79.5 -12.5zM217.002 408.001c16.667 0 29.332 9.66797 37.999 29.001s13 43 13 71
s-4.66699 51.667 -14 71s-22.666 29 -39.999 29c-15.333 0 -27.833 -9.33301 -37.5 -28s-14.5 -42 -14.5 -70c0 -30.667 5.33301 -55.334 16 -74.001s23.667 -28 39 -28zM12 228.002h410v-133h-410v133z" />
    <glyph glyph-name="guillemotright" unicode="&#xbb;" horiz-adv-x="564" 
d="M115 8l-115 77l115 170l-115 170l115 78l170 -248zM395 8l-110 77l110 170l-115 170l115 78l170 -248z" />
    <glyph glyph-name="onequarter" unicode="&#xbc;" horiz-adv-x="827" 
d="M45 620c8.66699 4 16.833 8 24.5 12s15.667 8.66699 24 14s17 12 26 20s19.167 18.667 30.5 32h107v-339h56v-80h-240v80h60v222l-60 -28zM449.999 204l173 215h124v-236h32v-65h-32v-39h32v-79h-194v79h38v39h-173v86zM622.999 183v111l-89 -111h89zM576.999 750h117
l-415 -805h-117z" />
    <glyph glyph-name="onehalf" unicode="&#xbd;" horiz-adv-x="875" 
d="M45 620c8.66699 4 16.833 8 24.5 12s15.667 8.66699 24 14s17 12 26 20s19.167 18.667 30.5 32h107v-339h56v-80h-240v80h60v222l-60 -28zM576.999 750h117l-415 -805h-117zM513.999 352c43.333 49.333 95.334 74 156.001 74c20 0 38.667 -3 56 -9s32.5 -14.667 45.5 -26
s23.167 -25.166 30.5 -41.499s11 -34.5 11 -54.5c0 -17.333 -2 -32.166 -6 -44.499s-10 -23.5 -18 -33.5s-18 -19.5 -30 -28.5s-26 -18.5 -42 -28.5c-7.33301 -4.66699 -15.5 -10.334 -24.5 -17.001s-17.833 -13.667 -26.5 -21s-16.5 -14.666 -23.5 -21.999
s-12.167 -14 -15.5 -20h105v48h101v-128h-324v87c8 13.333 15.333 24.666 22 33.999s13.167 17.833 19.5 25.5s13.166 14.667 20.499 21l26 21.5c10.667 9.33301 22.167 18.166 34.5 26.499l34.5 24c10.667 7.66699 19.5 15.5 26.5 23.5s10.5 16.667 10.5 26
c0 15.333 -5 25.833 -15 31.5s-22 8.5 -36 8.5c-16 0 -29.833 -5.33301 -41.5 -16l-31.5 -30z" />
    <glyph glyph-name="threequarters" unicode="&#xbe;" horiz-adv-x="827" 
d="M450 204l173 215h124v-236h32v-65h-32v-39h32v-79h-194v79h38v39h-173v86zM623 183v111l-89 -111h89zM577 750h117l-415 -805h-117zM180 275c-14 0 -28.165 1.8291 -42.498 5.49609s-27.833 8.66699 -40.5 15s-23.834 13.666 -33.501 21.999s-17.5 16.833 -23.5 25.5
l61 64c11.333 -11.333 23 -20.666 35 -27.999s26.667 -11 44 -11s30.666 3.83301 39.999 11.5s14 19.167 14 34.5c0 16 -4.33301 27.333 -13 34s-20.667 10 -36 10h-45v71h43c14.667 0 26.834 3.5 36.501 10.5s14.5 17.167 14.5 30.5c0 16.667 -5.5 28.834 -16.5 36.501
s-22.833 11.5 -35.5 11.5c-11.333 0 -23.333 -3.16699 -36 -9.5s-24.334 -15.166 -35.001 -26.499l-58 70c5.33301 6 12.5 12.333 21.5 19s19.167 12.834 30.5 18.501s23.5 10.334 36.5 14.001s26.5 5.5 40.5 5.5c48.667 0 86.334 -11.5 113.001 -34.5s40 -53.833 40 -92.5
c0 -20.667 -5.5 -37 -16.5 -49s-20.5 -21 -28.5 -27c4.66699 -3.33301 10.167 -7.83301 16.5 -13.5s12.5 -12.667 18.5 -21s11 -17.833 15 -28.5s6 -22.667 6 -36c0 -22 -4.83301 -41.333 -14.5 -58s-22.334 -30.5 -38.001 -41.5s-33.5 -19.167 -53.5 -24.5s-40 -8 -60 -8z
" />
    <glyph glyph-name="questiondown" unicode="&#xbf;" horiz-adv-x="520" 
d="M500 -86c-35.333 -40.667 -75.0039 -72.335 -119.004 -95.002s-91 -34 -141 -34c-33.333 0 -64.5 4.33301 -93.5 13s-54.167 21.667 -75.5 39s-38.166 38.666 -50.499 63.999s-18.5 55 -18.5 89c0 21.333 4 40.333 12 57s17.833 31.667 29.5 45
s24.334 25.166 38.001 35.499l38 29.5c11.667 9.33301 21.5 18.333 29.5 27s12 18 12 28v55h185l1 -80c0 -23.333 -8.16699 -44.166 -24.5 -62.499s-34.5 -35.333 -54.5 -51l-55 -44c-16.667 -13.667 -25 -27.5 -25 -41.5c0 -9.33301 2.16699 -17.166 6.5 -23.499
s10 -11.166 17 -14.499s15 -5.66602 24 -6.99902s17.833 -2 26.5 -2c10.667 0 21.834 2.33301 33.501 7s23.334 11 35.001 19s22.667 16.833 33 26.5s19.833 19.5 28.5 29.5zM372.996 397.999c0 -12.667 -2.49902 -25.333 -7.49902 -38s-12.5 -24 -22.5 -34
s-22 -18.167 -36 -24.5s-30 -9.5 -48 -9.5s-34.167 2.83301 -48.5 8.5s-26.833 13.334 -37.5 23.001s-18.834 21 -24.501 34s-8.5 26.5 -8.5 40.5c0 28 10.667 52.167 32 72.5s50.333 30.5 87 30.5c16 0 31 -3 45 -9s26.167 -13.667 36.5 -23s18.333 -20.333 24 -33
s8.5 -25.334 8.5 -38.001z" />
    <glyph glyph-name="Agrave" unicode="&#xc0;" horiz-adv-x="823" 
d="M808 0h-401v131h95l-21 68h-205l-21 -68h78v-131h-318v131h68l135 439h-41v129h384l177 -568h70v-131zM313 319h131l-66 216zM410 900l78 -142h-125l-151 142h198z" />
    <glyph glyph-name="Aacute" unicode="&#xc1;" horiz-adv-x="823" 
d="M808 0h-401v131h95l-21 68h-205l-21 -68h78v-131h-318v131h68l135 439h-41v129h384l177 -568h70v-131zM313 319h131l-66 216zM594 900l-151 -142h-125l78 142h198z" />
    <glyph glyph-name="Acircumflex" unicode="&#xc2;" horiz-adv-x="823" 
d="M808 0h-401v131h95l-21 68h-205l-21 -68h78v-131h-318v131h68l135 439h-41v129h384l177 -568h70v-131zM313 319h131l-66 216zM529 745l-151 70l-123 -70l-50 93l191 119l189 -119z" />
    <glyph glyph-name="Atilde" unicode="&#xc3;" horiz-adv-x="823" 
d="M808 0h-401v131h95l-21 68h-205l-21 -68h78v-131h-318v131h68l135 439h-41v129h384l177 -568h70v-131zM313 319h131l-66 216zM597 805c-14.667 -18 -31.6719 -31.667 -51.0049 -41s-43.333 -14 -72 -14c-15.333 0 -28.166 2 -38.499 6s-20.166 8.16699 -29.499 12.5
s-19 8.5 -29 12.5s-22.333 6 -37 6c-26.667 0 -50 -10 -70 -30l-44 100c15.333 19.333 32.333 34 51 44s40.667 15 66 15c16 0 29.333 -1.83301 40 -5.5s20.834 -7.66699 30.501 -12s19.5 -8.33301 29.5 -12s22 -5.5 36 -5.5c14.667 0 28.834 3 42.501 9
s23.834 12.667 30.501 20z" />
    <glyph glyph-name="Adieresis" unicode="&#xc4;" horiz-adv-x="823" 
d="M808 0h-401v131h95l-21 68h-205l-21 -68h78v-131h-318v131h68l135 439h-41v129h384l177 -568h70v-131zM313 319h131l-66 216zM440 845c0 11.333 2.33301 23 7 35s11.5 23 20.5 33s20.333 18.167 34 24.5s29.167 9.5 46.5 9.5s32.833 -3.16699 46.5 -9.5
s25.167 -14.5 34.5 -24.5s16.5 -21 21.5 -33s7.5 -23.667 7.5 -35c0 -28 -9.33301 -51.833 -28 -71.5s-46 -29.5 -82 -29.5c-16 0 -30.5 3 -43.5 9s-24.333 13.833 -34 23.5s-17.167 20.5 -22.5 32.5s-8 24 -8 36zM165 845c0 11.333 2.33301 23 7 35s11.5 23 20.5 33
s20.333 18.167 34 24.5s29.167 9.5 46.5 9.5s32.833 -3.16699 46.5 -9.5s25.167 -14.5 34.5 -24.5s16.5 -21 21.5 -33s7.5 -23.667 7.5 -35c0 -28 -9.33301 -51.833 -28 -71.5s-46 -29.5 -82 -29.5c-16 0 -30.5 3 -43.5 9s-24.333 13.833 -34 23.5s-17.167 20.5 -22.5 32.5
s-8 24 -8 36z" />
    <glyph glyph-name="Aring" unicode="&#xc5;" horiz-adv-x="823" 
d="M427 822c0 12 -4.00098 22 -12.001 30s-17 12 -27 12c-13.333 0 -24 -4 -32 -12s-12 -18 -12 -30s4 -22 12 -30s17.667 -12 29 -12c12.667 0 22.834 4 30.501 12s11.5 18 11.5 30zM501.999 822c0 -14.667 -3.16797 -28.334 -9.50098 -41.001
s-14.833 -23.834 -25.5 -33.501s-23 -17.334 -37 -23.001s-28.333 -8.5 -43 -8.5c-16.667 0 -32.167 2.83301 -46.5 8.5s-26.833 13.334 -37.5 23.001s-19 20.834 -25 33.501s-9 26.334 -9 41.001s3.16699 28.334 9.5 41.001s15 23.834 26 33.501s23.5 17.334 37.5 23.001
s29 8.5 45 8.5s30.833 -2.83301 44.5 -8.5s25.834 -13.334 36.501 -23.001s19 -20.834 25 -33.501s9 -26.334 9 -41.001zM807.998 0h-401v131h95l-21 68h-205l-21 -68h78v-131h-318v131h68l135 439h-41v129h384l177 -568h70v-131zM312.998 319h131l-66 216z" />
    <glyph glyph-name="AE" unicode="&#xc6;" horiz-adv-x="1162" 
d="M330 699h783v-221h-173v89h-160v-138h190v-133h-190v-163h160v93h173v-226h-603v133h63v66h-219l-41 -68h77v-131h-347v131h68l260 439h-41v129zM573 319v251l-148 -251h148z" />
    <glyph glyph-name="Ccedilla" unicode="&#xc7;" horiz-adv-x="686" 
d="M447 -119c0 -12 -2.16895 -24.167 -6.50195 -36.5s-11.166 -23.333 -20.499 -33s-21.666 -17.5 -36.999 -23.5s-34.333 -9 -57 -9c-15.333 0 -31.166 2 -47.499 6s-29.833 8.66699 -40.5 14l32 62c16 -7.33301 32 -11 48 -11c22 0 33 8 33 24s-11 24 -33 24
c-6 0 -11.333 -0.166992 -16 -0.5s-8.66699 -0.833008 -12 -1.5l-10 17l23 76c-44 6 -83.667 18.5 -119 37.5s-65.5 43.5 -90.5 73.5s-44.333 65.5 -58 106.5s-20.5 86.5 -20.5 136.5c0 57.333 9.66699 108.833 29 154.5s44 84.334 74 116.001s62.833 55.834 98.5 72.501
s69.834 25 102.501 25c24.667 0 46.167 -3 64.5 -9s33.833 -12.833 46.5 -20.5s22.5 -15.334 29.5 -23.001s11.5 -12.834 13.5 -15.501l23 56h157v-284h-179c-0.666992 16 -3.33398 31.667 -8.00098 47s-11.167 28.833 -19.5 40.5s-19 21 -32 28s-28.5 10.5 -46.5 10.5
s-34.333 -5.16699 -49 -15.5s-27.167 -24.5 -37.5 -42.5s-18.333 -39 -24 -63s-8.5 -49.667 -8.5 -77c0 -24.667 3.16699 -48.334 9.5 -71.001s15.666 -42.667 27.999 -60s27.5 -31.166 45.5 -41.499s39 -15.5 63 -15.5c20.667 0 40.334 4.66699 59.001 14
s35 19.833 49 31.5s25.5 22.667 34.5 33s14.5 16.833 16.5 19.5l117 -128c-16 -18 -34.333 -35.167 -55 -51.5s-43 -30.833 -67 -43.5s-49.833 -23 -77.5 -31s-56.834 -12.667 -87.501 -14l-14 -31c24 -2 42.833 -9.83301 56.5 -23.5s20.5 -30.167 20.5 -49.5z" />
    <glyph glyph-name="Egrave" unicode="&#xc8;" horiz-adv-x="653" 
d="M25 699h603v-221h-173v89h-160v-138h190v-133h-190v-163h160v93h173v-226h-603v133h63v434h-63v132zM386 900l78 -142h-125l-151 142h198z" />
    <glyph glyph-name="Eacute" unicode="&#xc9;" horiz-adv-x="653" 
d="M25 699h603v-221h-173v89h-160v-138h190v-133h-190v-163h160v93h173v-226h-603v133h63v434h-63v132zM509 900l-151 -142h-125l78 142h198z" />
    <glyph glyph-name="Ecircumflex" unicode="&#xca;" horiz-adv-x="653" 
d="M25 699h603v-221h-173v89h-160v-138h190v-133h-190v-163h160v93h173v-226h-603v133h63v434h-63v132zM444 745l-139 70l-135 -70l-50 93l191 119l189 -119z" />
    <glyph glyph-name="Edieresis" unicode="&#xcb;" horiz-adv-x="653" 
d="M25 699h603v-221h-173v89h-160v-138h190v-133h-190v-163h160v93h173v-226h-603v133h63v434h-63v132zM355 845c0 11.333 2.33301 23 7 35s11.5 23 20.5 33s20.333 18.167 34 24.5s29.167 9.5 46.5 9.5s32.833 -3.16699 46.5 -9.5s25.167 -14.5 34.5 -24.5
s16.5 -21 21.5 -33s7.5 -23.667 7.5 -35c0 -28 -9.33301 -51.833 -28 -71.5s-46 -29.5 -82 -29.5c-16 0 -30.5 3 -43.5 9s-24.333 13.833 -34 23.5s-17.167 20.5 -22.5 32.5s-8 24 -8 36zM80 845c0 11.333 2.33301 23 7 35s11.5 23 20.5 33s20.333 18.167 34 24.5
s29.167 9.5 46.5 9.5s32.833 -3.16699 46.5 -9.5s25.167 -14.5 34.5 -24.5s16.5 -21 21.5 -33s7.5 -23.667 7.5 -35c0 -28 -9.33301 -51.833 -28 -71.5s-46 -29.5 -82 -29.5c-16 0 -30.5 3 -43.5 9s-24.333 13.833 -34 23.5s-17.167 20.5 -22.5 32.5s-8 24 -8 36z" />
    <glyph glyph-name="Igrave" unicode="&#xcc;" horiz-adv-x="382" 
d="M25 699h332v-132h-62v-434h62v-133h-332v133h63v434h-63v132zM251 900l78 -142h-125l-151 142h198z" />
    <glyph glyph-name="Iacute" unicode="&#xcd;" horiz-adv-x="382" 
d="M25 699h332v-132h-62v-434h62v-133h-332v133h63v434h-63v132zM374 900l-151 -142h-125l78 142h198z" />
    <glyph glyph-name="Icircumflex" unicode="&#xce;" horiz-adv-x="382" 
d="M25 699h332v-132h-62v-434h62v-133h-332v133h63v434h-63v132zM331 745l-139 70l-135 -70l-50 93l191 119l189 -119z" />
    <glyph glyph-name="Idieresis" unicode="&#xcf;" horiz-adv-x="382" 
d="M25 699h332v-132h-62v-434h62v-133h-332v133h63v434h-63v132zM220 845c0 11.333 2.33301 23 7 35s11.5 23 20.5 33s20.333 18.167 34 24.5s29.167 9.5 46.5 9.5s32.833 -3.16699 46.5 -9.5s25.167 -14.5 34.5 -24.5s16.5 -21 21.5 -33s7.5 -23.667 7.5 -35
c0 -28 -9.33301 -51.833 -28 -71.5s-46 -29.5 -82 -29.5c-16 0 -30.5 3 -43.5 9s-24.333 13.833 -34 23.5s-17.167 20.5 -22.5 32.5s-8 24 -8 36zM-55 845c0 11.333 2.33301 23 7 35s11.5 23 20.5 33s20.333 18.167 34 24.5s29.167 9.5 46.5 9.5s32.833 -3.16699 46.5 -9.5
s25.167 -14.5 34.5 -24.5s16.5 -21 21.5 -33s7.5 -23.667 7.5 -35c0 -28 -9.33301 -51.833 -28 -71.5s-46 -29.5 -82 -29.5c-16 0 -30.5 3 -43.5 9s-24.333 13.833 -34 23.5s-17.167 20.5 -22.5 32.5s-8 24 -8 36z" />
    <glyph glyph-name="Eth" unicode="&#xd0;" horiz-adv-x="720" 
d="M42 418l45 -0.000976562v149h-62v132h305c60.667 0 114.5 -8.83301 161.5 -26.5s86.667 -41.667 119 -72s57 -66.166 74 -107.499s25.5 -86 25.5 -134c0 -114.667 -33 -203.167 -99 -265.5s-161 -93.5 -285 -93.5h-301v133h62v152h-45v133zM480 358.999
c0 26.667 -2.83301 52.502 -8.5 77.502s-14.5 47.167 -26.5 66.5s-27.5 34.833 -46.5 46.5s-41.833 17.5 -68.5 17.5h-38v-149h40v-133h-40v-152h38c26.667 0 49.5 6 68.5 18s34.5 28.167 46.5 48.5s20.833 44.166 26.5 71.499s8.5 56.666 8.5 87.999z" />
    <glyph glyph-name="Ntilde" unicode="&#xd1;" horiz-adv-x="816" 
d="M791 570h-66v-570h-215l-255 381v-252h77v-129h-307v129h59v441h-58v129h287l246 -367v238h-69v129h301v-129zM593 805c-14.667 -18 -31.6719 -31.667 -51.0049 -41s-43.333 -14 -72 -14c-15.333 0 -28.166 2 -38.499 6s-20.166 8.16699 -29.499 12.5s-19 8.5 -29 12.5
s-22.333 6 -37 6c-26.667 0 -50 -10 -70 -30l-44 100c15.333 19.333 32.333 34 51 44s40.667 15 66 15c16 0 29.333 -1.83301 40 -5.5s20.834 -7.66699 30.501 -12s19.5 -8.33301 29.5 -12s22 -5.5 36 -5.5c14.667 0 28.834 3 42.501 9s23.834 12.667 30.501 20z" />
    <glyph glyph-name="Ograve" unicode="&#xd2;" 
d="M373 -18c-52 0 -99.998 7.66699 -143.998 23s-81.833 38.333 -113.5 69s-56.334 69.167 -74.001 115.5s-26.5 100.833 -26.5 163.5c0 54 8.5 103.333 25.5 148s41 83.167 72 115.5s68 57.333 111 75s90.5 26.5 142.5 26.5c61.333 0 114.5 -8.83301 159.5 -26.5
s82.333 -42.667 112 -75s51.667 -71.5 66 -117.5s21.5 -97 21.5 -153c0 -56.667 -7.66699 -107.5 -23 -152.5s-38 -83.167 -68 -114.5s-66.833 -55.333 -110.5 -72s-93.834 -25 -150.501 -25zM373.002 139c16 0 30.1641 5.00098 42.4971 15.001s23 24 32 42
s15.833 39.667 20.5 65s7 53.666 7 84.999c0 30.667 -2.16699 59.167 -6.5 85.5s-11 49.333 -20 69s-20.5 35.167 -34.5 46.5s-30.667 17 -50 17c-15.333 0 -29.166 -5.16699 -41.499 -15.5s-23 -24.833 -32 -43.5s-16 -41 -21 -67s-7.5 -54.333 -7.5 -85
c0 -32.667 2.83301 -62.167 8.5 -88.5s13.334 -48.833 23.001 -67.5s21.334 -33 35.001 -43s28.5 -15 44.5 -15zM429.999 900.001l78 -142h-125l-151 142h198z" />
    <glyph glyph-name="Oacute" unicode="&#xd3;" 
d="M373 -18c-52 0 -99.998 7.66699 -143.998 23s-81.833 38.333 -113.5 69s-56.334 69.167 -74.001 115.5s-26.5 100.833 -26.5 163.5c0 54 8.5 103.333 25.5 148s41 83.167 72 115.5s68 57.333 111 75s90.5 26.5 142.5 26.5c61.333 0 114.5 -8.83301 159.5 -26.5
s82.333 -42.667 112 -75s51.667 -71.5 66 -117.5s21.5 -97 21.5 -153c0 -56.667 -7.66699 -107.5 -23 -152.5s-38 -83.167 -68 -114.5s-66.833 -55.333 -110.5 -72s-93.834 -25 -150.501 -25zM373.002 139c16 0 30.1641 5.00098 42.4971 15.001s23 24 32 42
s15.833 39.667 20.5 65s7 53.666 7 84.999c0 30.667 -2.16699 59.167 -6.5 85.5s-11 49.333 -20 69s-20.5 35.167 -34.5 46.5s-30.667 17 -50 17c-15.333 0 -29.166 -5.16699 -41.499 -15.5s-23 -24.833 -32 -43.5s-16 -41 -21 -67s-7.5 -54.333 -7.5 -85
c0 -32.667 2.83301 -62.167 8.5 -88.5s13.334 -48.833 23.001 -67.5s21.334 -33 35.001 -43s28.5 -15 44.5 -15zM552.999 900.001l-151 -142h-125l78 142h198z" />
    <glyph glyph-name="Ocircumflex" unicode="&#xd4;" 
d="M373 -18c-52 0 -99.998 7.66699 -143.998 23s-81.833 38.333 -113.5 69s-56.334 69.167 -74.001 115.5s-26.5 100.833 -26.5 163.5c0 54 8.5 103.333 25.5 148s41 83.167 72 115.5s68 57.333 111 75s90.5 26.5 142.5 26.5c61.333 0 114.5 -8.83301 159.5 -26.5
s82.333 -42.667 112 -75s51.667 -71.5 66 -117.5s21.5 -97 21.5 -153c0 -56.667 -7.66699 -107.5 -23 -152.5s-38 -83.167 -68 -114.5s-66.833 -55.333 -110.5 -72s-93.834 -25 -150.501 -25zM373.002 139c16 0 30.1641 5.00098 42.4971 15.001s23 24 32 42
s15.833 39.667 20.5 65s7 53.666 7 84.999c0 30.667 -2.16699 59.167 -6.5 85.5s-11 49.333 -20 69s-20.5 35.167 -34.5 46.5s-30.667 17 -50 17c-15.333 0 -29.166 -5.16699 -41.499 -15.5s-23 -24.833 -32 -43.5s-16 -41 -21 -67s-7.5 -54.333 -7.5 -85
c0 -32.667 2.83301 -62.167 8.5 -88.5s13.334 -48.833 23.001 -67.5s21.334 -33 35.001 -43s28.5 -15 44.5 -15zM486.999 745.001l-139 70l-135 -70l-50 93l191 119l189 -119z" />
    <glyph glyph-name="Otilde" unicode="&#xd5;" 
d="M373 -18c-52 0 -99.998 7.66699 -143.998 23s-81.833 38.333 -113.5 69s-56.334 69.167 -74.001 115.5s-26.5 100.833 -26.5 163.5c0 54 8.5 103.333 25.5 148s41 83.167 72 115.5s68 57.333 111 75s90.5 26.5 142.5 26.5c61.333 0 114.5 -8.83301 159.5 -26.5
s82.333 -42.667 112 -75s51.667 -71.5 66 -117.5s21.5 -97 21.5 -153c0 -56.667 -7.66699 -107.5 -23 -152.5s-38 -83.167 -68 -114.5s-66.833 -55.333 -110.5 -72s-93.834 -25 -150.501 -25zM373.002 139c16 0 30.1641 5.00098 42.4971 15.001s23 24 32 42
s15.833 39.667 20.5 65s7 53.666 7 84.999c0 30.667 -2.16699 59.167 -6.5 85.5s-11 49.333 -20 69s-20.5 35.167 -34.5 46.5s-30.667 17 -50 17c-15.333 0 -29.166 -5.16699 -41.499 -15.5s-23 -24.833 -32 -43.5s-16 -41 -21 -67s-7.5 -54.333 -7.5 -85
c0 -32.667 2.83301 -62.167 8.5 -88.5s13.334 -48.833 23.001 -67.5s21.334 -33 35.001 -43s28.5 -15 44.5 -15zM554.999 805.001c-14.667 -18 -31.6719 -31.667 -51.0049 -41s-43.333 -14 -72 -14c-15.333 0 -28.166 2 -38.499 6s-20.166 8.16699 -29.499 12.5
s-19 8.5 -29 12.5s-22.333 6 -37 6c-26.667 0 -50 -10 -70 -30l-44 100c15.333 19.333 32.333 34 51 44s40.667 15 66 15c16 0 29.333 -1.83301 40 -5.5s20.834 -7.66699 30.501 -12s19.5 -8.33301 29.5 -12s22 -5.5 36 -5.5c14.667 0 28.834 3 42.501 9
s23.834 12.667 30.501 20z" />
    <glyph glyph-name="Odieresis" unicode="&#xd6;" 
d="M373 -18c-52 0 -99.998 7.66699 -143.998 23s-81.833 38.333 -113.5 69s-56.334 69.167 -74.001 115.5s-26.5 100.833 -26.5 163.5c0 54 8.5 103.333 25.5 148s41 83.167 72 115.5s68 57.333 111 75s90.5 26.5 142.5 26.5c61.333 0 114.5 -8.83301 159.5 -26.5
s82.333 -42.667 112 -75s51.667 -71.5 66 -117.5s21.5 -97 21.5 -153c0 -56.667 -7.66699 -107.5 -23 -152.5s-38 -83.167 -68 -114.5s-66.833 -55.333 -110.5 -72s-93.834 -25 -150.501 -25zM373.002 139c16 0 30.1641 5.00098 42.4971 15.001s23 24 32 42
s15.833 39.667 20.5 65s7 53.666 7 84.999c0 30.667 -2.16699 59.167 -6.5 85.5s-11 49.333 -20 69s-20.5 35.167 -34.5 46.5s-30.667 17 -50 17c-15.333 0 -29.166 -5.16699 -41.499 -15.5s-23 -24.833 -32 -43.5s-16 -41 -21 -67s-7.5 -54.333 -7.5 -85
c0 -32.667 2.83301 -62.167 8.5 -88.5s13.334 -48.833 23.001 -67.5s21.334 -33 35.001 -43s28.5 -15 44.5 -15zM397.999 845.001c0 11.333 2.33301 23 7 35s11.5 23 20.5 33s20.333 18.167 34 24.5s29.167 9.5 46.5 9.5s32.833 -3.16699 46.5 -9.5s25.167 -14.5 34.5 -24.5
s16.5 -21 21.5 -33s7.5 -23.667 7.5 -35c0 -28 -9.33301 -51.833 -28 -71.5s-46 -29.5 -82 -29.5c-16 0 -30.5 3 -43.5 9s-24.333 13.833 -34 23.5s-17.167 20.5 -22.5 32.5s-8 24 -8 36zM122.999 845.001c0 11.333 2.33301 23 7 35s11.5 23 20.5 33s20.333 18.167 34 24.5
s29.167 9.5 46.5 9.5s32.833 -3.16699 46.5 -9.5s25.167 -14.5 34.5 -24.5s16.5 -21 21.5 -33s7.5 -23.667 7.5 -35c0 -28 -9.33301 -51.833 -28 -71.5s-46 -29.5 -82 -29.5c-16 0 -30.5 3 -43.5 9s-24.333 13.833 -34 23.5s-17.167 20.5 -22.5 32.5s-8 24 -8 36z" />
    <glyph glyph-name="multiply" unicode="&#xd7;" horiz-adv-x="722" 
d="M354 227l-169 -169l-115 116l168 168l-164 165l111 111l165 -164l165 165l116 -115l-166 -166l165 -164l-112 -112z" />
    <glyph glyph-name="Oslash" unicode="&#xd8;" 
d="M109 80c-30 31.333 -53.166 69.5 -69.499 114.5s-24.5 97.833 -24.5 158.5c0 54 8.5 103.333 25.5 148s41 83.167 72 115.5s68 57.333 111 75s90.5 26.5 142.5 26.5c32 0 61.833 -2.66699 89.5 -8s53.167 -12.666 76.5 -21.999l8 11h146l-54 -77
c32 -32.667 55.5 -72.334 70.5 -119.001s22.5 -99 22.5 -157c0 -56.667 -7.66699 -107.5 -23 -152.5s-38 -83.167 -68 -114.5s-66.833 -55.333 -110.5 -72s-93.834 -25 -150.501 -25c-60.667 0 -115.667 10.333 -165 31l-9 -13h-146zM262.001 353
c0 -9.33301 0.166992 -18 0.5 -26s0.833008 -16 1.5 -24l162 233c-16.667 18.667 -37.334 28 -62.001 28c-15.333 0 -29.166 -5.16699 -41.499 -15.5s-23 -24.833 -32 -43.5s-16 -41 -21 -67s-7.5 -54.333 -7.5 -85zM373.001 139c16 0 30.167 5.00098 42.5 15.001
s23 24 32 42s15.833 39.667 20.5 65s7 53.666 7 84.999c0 8 -0.166992 16 -0.5 24s-0.833008 15.667 -1.5 23l-158 -227c16 -18 35.333 -27 58 -27z" />
    <glyph glyph-name="Ugrave" unicode="&#xd9;" horiz-adv-x="737" 
d="M15 699l318.001 -0.00195312v-129h-54v-216c0 -40 2.16699 -72.667 6.5 -98s10.833 -45.166 19.5 -59.499s19.167 -24.166 31.5 -29.499s26.5 -8 42.5 -8c15.333 0 29.166 2.16699 41.499 6.5s23 13.333 32 27s15.833 33.334 20.5 59.001s7 60.167 7 103.5v212h-54v132
h296v-129h-54v-243c0 -118.667 -24.333 -205.667 -73 -261s-120 -83 -214 -83c-101.333 3.33301 -178.333 32.166 -231 86.499s-79 138.5 -79 252.5v247h-56v130zM364.001 899.998l78 -142h-125l-151 142h198z" />
    <glyph glyph-name="Uacute" unicode="&#xda;" horiz-adv-x="737" 
d="M15 699l318.001 -0.00195312v-129h-54v-216c0 -40 2.16699 -72.667 6.5 -98s10.833 -45.166 19.5 -59.499s19.167 -24.166 31.5 -29.499s26.5 -8 42.5 -8c15.333 0 29.166 2.16699 41.499 6.5s23 13.333 32 27s15.833 33.334 20.5 59.001s7 60.167 7 103.5v212h-54v132
h296v-129h-54v-243c0 -118.667 -24.333 -205.667 -73 -261s-120 -83 -214 -83c-101.333 3.33301 -178.333 32.166 -231 86.499s-79 138.5 -79 252.5v247h-56v130zM590.001 899.998l-151 -142h-125l78 142h198z" />
    <glyph glyph-name="Ucircumflex" unicode="&#xdb;" horiz-adv-x="737" 
d="M15 699l318.001 -0.00195312v-129h-54v-216c0 -40 2.16699 -72.667 6.5 -98s10.833 -45.166 19.5 -59.499s19.167 -24.166 31.5 -29.499s26.5 -8 42.5 -8c15.333 0 29.166 2.16699 41.499 6.5s23 13.333 32 27s15.833 33.334 20.5 59.001s7 60.167 7 103.5v212h-54v132
h296v-129h-54v-243c0 -118.667 -24.333 -205.667 -73 -261s-120 -83 -214 -83c-101.333 3.33301 -178.333 32.166 -231 86.499s-79 138.5 -79 252.5v247h-56v130zM513.001 744.998l-139 70l-135 -70l-50 93l191 119l189 -119z" />
    <glyph glyph-name="Udieresis" unicode="&#xdc;" horiz-adv-x="737" 
d="M15 699l318.001 -0.00195312v-129h-54v-216c0 -40 2.16699 -72.667 6.5 -98s10.833 -45.166 19.5 -59.499s19.167 -24.166 31.5 -29.499s26.5 -8 42.5 -8c15.333 0 29.166 2.16699 41.499 6.5s23 13.333 32 27s15.833 33.334 20.5 59.001s7 60.167 7 103.5v212h-54v132
h296v-129h-54v-243c0 -118.667 -24.333 -205.667 -73 -261s-120 -83 -214 -83c-101.333 3.33301 -178.333 32.166 -231 86.499s-79 138.5 -79 252.5v247h-56v130zM404.001 844.998c0 11.333 2.33301 23 7 35s11.5 23 20.5 33s20.333 18.167 34 24.5s29.167 9.5 46.5 9.5
s32.833 -3.16699 46.5 -9.5s25.167 -14.5 34.5 -24.5s16.5 -21 21.5 -33s7.5 -23.667 7.5 -35c0 -28 -9.33301 -51.833 -28 -71.5s-46 -29.5 -82 -29.5c-16 0 -30.5 3 -43.5 9s-24.333 13.833 -34 23.5s-17.167 20.5 -22.5 32.5s-8 24 -8 36zM129.001 844.998
c0 11.333 2.33301 23 7 35s11.5 23 20.5 33s20.333 18.167 34 24.5s29.167 9.5 46.5 9.5s32.833 -3.16699 46.5 -9.5s25.167 -14.5 34.5 -24.5s16.5 -21 21.5 -33s7.5 -23.667 7.5 -35c0 -28 -9.33301 -51.833 -28 -71.5s-46 -29.5 -82 -29.5c-16 0 -30.5 3 -43.5 9
s-24.333 13.833 -34 23.5s-17.167 20.5 -22.5 32.5s-8 24 -8 36z" />
    <glyph glyph-name="Yacute" unicode="&#xdd;" horiz-adv-x="669" 
d="M373 384c0.666992 4.66699 2.5 10.667 5.5 18s6.33301 15 10 23l11.5 24c4 8 7.33301 15 10 21l55 101h-55v128h269v-128h-54l-185 -325v-116h56v-130h-320v130h57v118l-194 323h-49v128h342v-128h-52l58 -106c1.33301 -4.66699 3.5 -10.667 6.5 -18l9.5 -23
c3.33301 -8 6.33301 -15.667 9 -23s4.66699 -13 6 -17h4zM578 900l-151 -142h-125l78 142h198z" />
    <glyph glyph-name="Thorn" unicode="&#xde;" horiz-adv-x="640" 
d="M18 699l332 -0.000976562v-132h-62v-35h61c58 0 105 -4.5 141 -13.5s64 -21.833 84 -38.5s33.5 -36.5 40.5 -59.5s10.5 -48.833 10.5 -77.5c0 -33.333 -7 -61.166 -21 -83.499s-33 -40.5 -57 -54.5s-51.833 -24 -83.5 -30s-65.5 -9 -101.5 -9h-74v-33h62v-133h-332v133
h63v434h-63v132zM288 401.999l-0.000976562 -128.002h43c14.667 0 28 0.666992 40 2s22.333 4.33301 31 9s15.334 11 20.001 19s7 18.667 7 32c0 14.667 -2.16699 26.334 -6.5 35.001s-10.5 15.334 -18.5 20.001s-17.667 7.66699 -29 9s-24.333 2 -39 2h-48z" />
    <glyph glyph-name="germandbls" unicode="&#xdf;" horiz-adv-x="665" 
d="M350 132c14 0 27.166 3.33398 39.499 10.001s23 15.167 32 25.5s16.167 22 21.5 35s8 25.833 8 38.5c0 13.333 -2.5 26.5 -7.5 39.5s-11.833 24.5 -20.5 34.5s-18.667 18.167 -30 24.5s-23.333 9.5 -36 9.5l-2 119c24 0 44.167 5.83301 60.5 17.5
s24.5 28.834 24.5 51.501c0 17.333 -3 32.333 -9 45s-14.167 23.167 -24.5 31.5s-22.166 14.5 -35.499 18.5s-27 6 -41 6c-5.33301 0 -11.833 -1 -19.5 -3s-15 -5.33301 -22 -10s-12.833 -10.334 -17.5 -17.001s-7 -14.334 -7 -23.001v-454h45v-131h-283v131h40v239h-41v130
h41v85c0 14 5.33301 31.5 16 52.5s26.667 41.167 48 60.5s48.5 35.833 81.5 49.5s72.167 20.5 117.5 20.5c39.333 0 75.833 -4.16699 109.5 -12.5s63 -21.166 88 -38.499s44.667 -39.333 59 -66s21.5 -58.334 21.5 -95.001c0 -17.333 -2.66699 -32.666 -8 -45.999
s-11.833 -25.166 -19.5 -35.499s-15.667 -19.333 -24 -27s-15.833 -13.834 -22.5 -18.501c8 -6 17.833 -15 29.5 -27s23 -26.5 34 -43.5s20.5 -35.833 28.5 -56.5s12 -42.334 12 -65.001c0 -37.333 -8.66699 -71.333 -26 -102s-39.833 -57 -67.5 -79s-58.5 -39 -92.5 -51
s-68 -18 -102 -18z" />
    <glyph glyph-name="agrave" unicode="&#xe0;" horiz-adv-x="600" 
d="M36 458c10 6 22.667 13.001 38 21.001s32.5 15.833 51.5 23.5s39.333 14 61 19s44.167 7.5 67.5 7.5c30 0 61 -3.16699 93 -9.5s61.167 -17.333 87.5 -33s48 -36.834 65 -63.501s25.5 -60 25.5 -100v-195h60v-128h-214l-24 45
c-9.33301 -12.667 -19.833 -23.167 -31.5 -31.5s-23.667 -14.833 -36 -19.5s-24.5 -8 -36.5 -10s-22.333 -3 -31 -3c-24 0 -47.667 3.33301 -71 10s-44.333 16.667 -63 30s-33.834 30.5 -45.501 51.5s-17.5 46.167 -17.5 75.5c0 28 5.5 53.333 16.5 76s26 42 45 58
s41.167 28.333 66.5 37s52 13 80 13c14.667 0 27.834 -1.5 39.501 -4.5s21.667 -6.5 30 -10.5s15 -8 20 -12s8.16699 -6.66699 9.5 -8v35c0 22.667 -9 37.667 -27 45s-40.667 11 -68 11c-30 0 -57.5 -5 -82.5 -15s-47.167 -20.333 -66.5 -31zM258 111.001
c15.333 0 28.667 3.66797 40 11.001s19.333 14.666 24 21.999v38c-0.666992 1.33301 -2.16699 3.5 -4.5 6.5s-5.83301 6.16699 -10.5 9.5s-10.5 6.33301 -17.5 9s-15.833 4 -26.5 4c-20 0 -34.667 -5 -44 -15s-14 -22.667 -14 -38c0 -14 5 -25.333 15 -34s22.667 -13 38 -13
zM227.001 701.002l78 -142h-125l-151 142h198z" />
    <glyph glyph-name="aacute" unicode="&#xe1;" horiz-adv-x="600" 
d="M36 458c10 6 22.667 13.001 38 21.001s32.5 15.833 51.5 23.5s39.333 14 61 19s44.167 7.5 67.5 7.5c30 0 61 -3.16699 93 -9.5s61.167 -17.333 87.5 -33s48 -36.834 65 -63.501s25.5 -60 25.5 -100v-195h60v-128h-214l-24 45
c-9.33301 -12.667 -19.833 -23.167 -31.5 -31.5s-23.667 -14.833 -36 -19.5s-24.5 -8 -36.5 -10s-22.333 -3 -31 -3c-24 0 -47.667 3.33301 -71 10s-44.333 16.667 -63 30s-33.834 30.5 -45.501 51.5s-17.5 46.167 -17.5 75.5c0 28 5.5 53.333 16.5 76s26 42 45 58
s41.167 28.333 66.5 37s52 13 80 13c14.667 0 27.834 -1.5 39.501 -4.5s21.667 -6.5 30 -10.5s15 -8 20 -12s8.16699 -6.66699 9.5 -8v35c0 22.667 -9 37.667 -27 45s-40.667 11 -68 11c-30 0 -57.5 -5 -82.5 -15s-47.167 -20.333 -66.5 -31zM258 111.001
c15.333 0 28.667 3.66797 40 11.001s19.333 14.666 24 21.999v38c-0.666992 1.33301 -2.16699 3.5 -4.5 6.5s-5.83301 6.16699 -10.5 9.5s-10.5 6.33301 -17.5 9s-15.833 4 -26.5 4c-20 0 -34.667 -5 -44 -15s-14 -22.667 -14 -38c0 -14 5 -25.333 15 -34s22.667 -13 38 -13
zM483.001 701.002l-151 -142h-125l78 142h198z" />
    <glyph glyph-name="acircumflex" unicode="&#xe2;" horiz-adv-x="600" 
d="M36 458c10 6 22.667 13.001 38 21.001s32.5 15.833 51.5 23.5s39.333 14 61 19s44.167 7.5 67.5 7.5c30 0 61 -3.16699 93 -9.5s61.167 -17.333 87.5 -33s48 -36.834 65 -63.501s25.5 -60 25.5 -100v-195h60v-128h-214l-24 45
c-9.33301 -12.667 -19.833 -23.167 -31.5 -31.5s-23.667 -14.833 -36 -19.5s-24.5 -8 -36.5 -10s-22.333 -3 -31 -3c-24 0 -47.667 3.33301 -71 10s-44.333 16.667 -63 30s-33.834 30.5 -45.501 51.5s-17.5 46.167 -17.5 75.5c0 28 5.5 53.333 16.5 76s26 42 45 58
s41.167 28.333 66.5 37s52 13 80 13c14.667 0 27.834 -1.5 39.501 -4.5s21.667 -6.5 30 -10.5s15 -8 20 -12s8.16699 -6.66699 9.5 -8v35c0 22.667 -9 37.667 -27 45s-40.667 11 -68 11c-30 0 -57.5 -5 -82.5 -15s-47.167 -20.333 -66.5 -31zM258 111.001
c15.333 0 28.667 3.66797 40 11.001s19.333 14.666 24 21.999v38c-0.666992 1.33301 -2.16699 3.5 -4.5 6.5s-5.83301 6.16699 -10.5 9.5s-10.5 6.33301 -17.5 9s-15.833 4 -26.5 4c-20 0 -34.667 -5 -44 -15s-14 -22.667 -14 -38c0 -14 5 -25.333 15 -34s22.667 -13 38 -13
zM417.001 546.002l-139 70l-135 -70l-50 93l191 119l189 -119z" />
    <glyph glyph-name="atilde" unicode="&#xe3;" horiz-adv-x="600" 
d="M36 458c10 6 22.667 13.001 38 21.001s32.5 15.833 51.5 23.5s39.333 14 61 19s44.167 7.5 67.5 7.5c30 0 61 -3.16699 93 -9.5s61.167 -17.333 87.5 -33s48 -36.834 65 -63.501s25.5 -60 25.5 -100v-195h60v-128h-214l-24 45
c-9.33301 -12.667 -19.833 -23.167 -31.5 -31.5s-23.667 -14.833 -36 -19.5s-24.5 -8 -36.5 -10s-22.333 -3 -31 -3c-24 0 -47.667 3.33301 -71 10s-44.333 16.667 -63 30s-33.834 30.5 -45.501 51.5s-17.5 46.167 -17.5 75.5c0 28 5.5 53.333 16.5 76s26 42 45 58
s41.167 28.333 66.5 37s52 13 80 13c14.667 0 27.834 -1.5 39.501 -4.5s21.667 -6.5 30 -10.5s15 -8 20 -12s8.16699 -6.66699 9.5 -8v35c0 22.667 -9 37.667 -27 45s-40.667 11 -68 11c-30 0 -57.5 -5 -82.5 -15s-47.167 -20.333 -66.5 -31zM258 111.001
c15.333 0 28.667 3.66797 40 11.001s19.333 14.666 24 21.999v38c-0.666992 1.33301 -2.16699 3.5 -4.5 6.5s-5.83301 6.16699 -10.5 9.5s-10.5 6.33301 -17.5 9s-15.833 4 -26.5 4c-20 0 -34.667 -5 -44 -15s-14 -22.667 -14 -38c0 -14 5 -25.333 15 -34s22.667 -13 38 -13
zM474.001 604.002c-14.667 -18 -31.6719 -31.667 -51.0049 -41s-43.333 -14 -72 -14c-15.333 0 -28.166 2 -38.499 6s-20.166 8.16699 -29.499 12.5s-19 8.5 -29 12.5s-22.333 6 -37 6c-26.667 0 -50 -10 -70 -30l-44 100c15.333 19.333 32.333 34 51 44s40.667 15 66 15
c16 0 29.333 -1.83301 40 -5.5s20.834 -7.66699 30.501 -12s19.5 -8.33301 29.5 -12s22 -5.5 36 -5.5c14.667 0 28.834 3 42.501 9s23.834 12.667 30.501 20z" />
    <glyph glyph-name="adieresis" unicode="&#xe4;" horiz-adv-x="600" 
d="M36 458c10 6 22.667 13.001 38 21.001s32.5 15.833 51.5 23.5s39.333 14 61 19s44.167 7.5 67.5 7.5c30 0 61 -3.16699 93 -9.5s61.167 -17.333 87.5 -33s48 -36.834 65 -63.501s25.5 -60 25.5 -100v-195h60v-128h-214l-24 45
c-9.33301 -12.667 -19.833 -23.167 -31.5 -31.5s-23.667 -14.833 -36 -19.5s-24.5 -8 -36.5 -10s-22.333 -3 -31 -3c-24 0 -47.667 3.33301 -71 10s-44.333 16.667 -63 30s-33.834 30.5 -45.501 51.5s-17.5 46.167 -17.5 75.5c0 28 5.5 53.333 16.5 76s26 42 45 58
s41.167 28.333 66.5 37s52 13 80 13c14.667 0 27.834 -1.5 39.501 -4.5s21.667 -6.5 30 -10.5s15 -8 20 -12s8.16699 -6.66699 9.5 -8v35c0 22.667 -9 37.667 -27 45s-40.667 11 -68 11c-30 0 -57.5 -5 -82.5 -15s-47.167 -20.333 -66.5 -31zM258 111.001
c15.333 0 28.667 3.66797 40 11.001s19.333 14.666 24 21.999v38c-0.666992 1.33301 -2.16699 3.5 -4.5 6.5s-5.83301 6.16699 -10.5 9.5s-10.5 6.33301 -17.5 9s-15.833 4 -26.5 4c-20 0 -34.667 -5 -44 -15s-14 -22.667 -14 -38c0 -14 5 -25.333 15 -34s22.667 -13 38 -13
zM328.001 646.002c0 11.333 2.33301 23 7 35s11.5 23 20.5 33s20.333 18.167 34 24.5s29.167 9.5 46.5 9.5s32.833 -3.16699 46.5 -9.5s25.167 -14.5 34.5 -24.5s16.5 -21 21.5 -33s7.5 -23.667 7.5 -35c0 -28 -9.33301 -51.833 -28 -71.5s-46 -29.5 -82 -29.5
c-16 0 -30.5 3 -43.5 9s-24.333 13.833 -34 23.5s-17.167 20.5 -22.5 32.5s-8 24 -8 36zM53.001 646.002c0 11.333 2.33301 23 7 35s11.5 23 20.5 33s20.333 18.167 34 24.5s29.167 9.5 46.5 9.5s32.833 -3.16699 46.5 -9.5s25.167 -14.5 34.5 -24.5s16.5 -21 21.5 -33
s7.5 -23.667 7.5 -35c0 -28 -9.33301 -51.833 -28 -71.5s-46 -29.5 -82 -29.5c-16 0 -30.5 3 -43.5 9s-24.333 13.833 -34 23.5s-17.167 20.5 -22.5 32.5s-8 24 -8 36z" />
    <glyph glyph-name="aring" unicode="&#xe5;" horiz-adv-x="600" 
d="M319 649c0 12 -4.00098 22 -12.001 30s-17 12 -27 12c-13.333 0 -24 -4 -32 -12s-12 -18 -12 -30s4 -22 12 -30s17.667 -12 29 -12c12.667 0 22.834 4 30.501 12s11.5 18 11.5 30zM393.999 649c0 -14.667 -3.16797 -28.334 -9.50098 -41.001
s-14.833 -23.834 -25.5 -33.501s-23 -17.334 -37 -23.001s-28.333 -8.5 -43 -8.5c-16.667 0 -32.167 2.83301 -46.5 8.5s-26.833 13.334 -37.5 23.001s-19 20.834 -25 33.501s-9 26.334 -9 41.001s3.16699 28.334 9.5 41.001s15 23.834 26 33.501s23.5 17.334 37.5 23.001
s29 8.5 45 8.5s30.833 -2.83301 44.5 -8.5s25.834 -13.334 36.501 -23.001s19 -20.834 25 -33.501s9 -26.334 9 -41.001zM35.998 458c10 6 22.667 13.001 38 21.001s32.5 15.833 51.5 23.5s39.333 14 61 19s44.167 7.5 67.5 7.5c30 0 61 -3.16699 93 -9.5
s61.167 -17.333 87.5 -33s48 -36.834 65 -63.501s25.5 -60 25.5 -100v-195h60v-128h-214l-24 45c-9.33301 -12.667 -19.833 -23.167 -31.5 -31.5s-23.667 -14.833 -36 -19.5s-24.5 -8 -36.5 -10s-22.333 -3 -31 -3c-24 0 -47.667 3.33301 -71 10s-44.333 16.667 -63 30
s-33.834 30.5 -45.501 51.5s-17.5 46.167 -17.5 75.5c0 28 5.5 53.333 16.5 76s26 42 45 58s41.167 28.333 66.5 37s52 13 80 13c14.667 0 27.834 -1.5 39.501 -4.5s21.667 -6.5 30 -10.5s15 -8 20 -12s8.16699 -6.66699 9.5 -8v35c0 22.667 -9 37.667 -27 45
s-40.667 11 -68 11c-30 0 -57.5 -5 -82.5 -15s-47.167 -20.333 -66.5 -31zM257.998 111.001c15.333 0 28.667 3.66797 40 11.001s19.333 14.666 24 21.999v38c-0.666992 1.33301 -2.16699 3.5 -4.5 6.5s-5.83301 6.16699 -10.5 9.5s-10.5 6.33301 -17.5 9s-15.833 4 -26.5 4
c-20 0 -34.667 -5 -44 -15s-14 -22.667 -14 -38c0 -14 5 -25.333 15 -34s22.667 -13 38 -13z" />
    <glyph glyph-name="ae" unicode="&#xe6;" horiz-adv-x="905" 
d="M856 69c-37.333 -32 -76.6631 -54.498 -117.996 -67.498s-88 -19.5 -140 -19.5c-37.333 0 -74.333 7.16699 -111 21.5s-68 37.166 -94 68.499c-9.33301 -12.667 -20.833 -24.5 -34.5 -35.5s-28.334 -20.667 -44.001 -29s-32.334 -14.833 -50.001 -19.5
s-35.167 -7 -52.5 -7c-24 0 -47.667 3.33301 -71 10s-44.333 16.667 -63 30s-33.834 30.5 -45.501 51.5s-17.5 46.167 -17.5 75.5c0 28 5.5 53.333 16.5 76s26 42 45 58s41.167 28.333 66.5 37s52 13 80 13c14.667 0 27.834 -1.5 39.501 -4.5s21.667 -6.5 30 -10.5
s15 -8 20 -12s8.16699 -6.66699 9.5 -8v35c0 22.667 -9 37.667 -27 45s-40.667 11 -68 11c-30 0 -57.5 -5 -82.5 -15s-47.167 -20.333 -66.5 -31l-42 116c10 6 22.667 13 38 21s32.5 15.833 51.5 23.5s39.333 14 61 19s44.167 7.5 67.5 7.5c34 0 68.5 -4 103.5 -12
s66.5 -22 94.5 -42c21.333 12.667 44.666 22.334 69.999 29.001s52.333 10 81 10c41.333 0 77.833 -6 109.5 -18s58.167 -28.667 79.5 -50s37.333 -46.5 48 -75.5s16 -60.5 16 -94.5c0 -13.333 -1 -26.5 -3 -39.5s-5 -25.167 -9 -36.5h-315
c1.33301 -6.66699 3.5 -14.667 6.5 -24s8.16699 -18.333 15.5 -27s17.333 -16 30 -22s29.667 -9 51 -9c8.66699 0 18.167 0.333008 28.5 1s21.5 2.66699 33.5 6s24.667 8.16602 38 14.499s26.666 15.166 39.999 26.499zM609.003 379.002
c-15.333 0 -27.832 -3.00293 -37.499 -9.00293s-17.334 -13.167 -23.001 -21.5s-9.66699 -17.166 -12 -26.499s-3.83301 -17 -4.5 -23h151c0 9.33301 -1 18.833 -3 28.5s-5.5 18.334 -10.5 26.001s-12.333 13.834 -22 18.501s-22.5 7 -38.5 7zM258.004 110.999
c15.333 0 28.667 3.66797 40 11.001s19.333 14.666 24 21.999v38c-0.666992 1.33301 -2.16699 3.5 -4.5 6.5s-5.83301 6.16699 -10.5 9.5s-10.5 6.33301 -17.5 9s-15.833 4 -26.5 4c-20 0 -34.667 -5 -44 -15s-14 -22.667 -14 -38c0 -14 5 -25.333 15 -34s22.667 -13 38 -13
z" />
    <glyph glyph-name="ccedilla" unicode="&#xe7;" horiz-adv-x="531" 
d="M370 -116c0 -12 -2.17383 -24.1631 -6.50684 -36.4961s-11.166 -23.333 -20.499 -33s-21.666 -17.5 -36.999 -23.5s-34.333 -9 -57 -9c-15.333 0 -31.166 2 -47.499 6s-29.833 8.66699 -40.5 14l32 62c16 -7.33301 32 -11 48 -11c22 0 33 8 33 24s-11 24 -33 24
c-6 0 -11.333 -0.166992 -16 -0.5s-8.66699 -0.833008 -12 -1.5l-10 17l23 74c-31.333 4 -60.666 12.667 -87.999 26s-51.166 31 -71.499 53s-36.333 48.333 -48 79s-17.5 65.667 -17.5 105c0 44 6.83301 82.167 20.5 114.5s31.834 59 54.501 80s48.834 36.5 78.501 46.5
s60.5 15 92.5 15c16.667 0 31.834 -2 45.501 -6s25.667 -9 36 -15s19.166 -12.333 26.499 -19s13 -12.334 17 -17.001l17 48h118v-226h-147c-0.666992 12 -2.16699 24.167 -4.5 36.5s-5.83301 23.666 -10.5 33.999s-11 18.666 -19 24.999s-17.667 9.5 -29 9.5
c-14.667 0 -27.5 -3.66699 -38.5 -11s-20.167 -17 -27.5 -29s-12.833 -25.667 -16.5 -41s-5.5 -31 -5.5 -47c0 -34 9.33301 -62.167 28 -84.5s44.667 -33.5 78 -33.5c25.333 0 47.333 5.16699 66 15.5s36 24.166 52 41.499l88 -102
c-21.333 -23.333 -50.5 -44.833 -87.5 -64.5s-79.167 -31.5 -126.5 -35.5l-14 -31c24 -2 42.833 -9.83301 56.5 -23.5s20.5 -30.167 20.5 -49.5z" />
    <glyph glyph-name="egrave" unicode="&#xe8;" horiz-adv-x="542" 
d="M527 69c-37.333 -32 -76.667 -54.499 -118 -67.499s-88 -19.5 -140 -19.5c-31.333 0 -62.666 5.16699 -93.999 15.5s-59.5 26.333 -84.5 48s-45.5 49.667 -61.5 84s-24 75.5 -24 123.5c0 40.667 7 77.167 21 109.5s33 59.833 57 82.5s52.333 39.834 85 51.501
s68 17.5 106 17.5c41.333 0 77.833 -6 109.5 -18s58.167 -28.667 79.5 -50s37.333 -46.5 48 -75.5s16 -60.5 16 -94.5c0 -13.333 -1 -26.5 -3 -39.5s-5 -25.167 -9 -36.5h-315c1.33301 -6.66699 3.5 -14.667 6.5 -24s8.16699 -18.333 15.5 -27s17.333 -16 30 -22
s29.667 -9 51 -9c8.66699 0 18.167 0.333008 28.5 1s21.5 2.66699 33.5 6s24.667 8.16602 38 14.499s26.666 15.166 39.999 26.499zM279.999 379.001c-15.333 0 -27.832 -3.00293 -37.499 -9.00293s-17.334 -13.167 -23.001 -21.5s-9.66699 -17.166 -12 -26.499
s-3.83301 -17 -4.5 -23h151c0 9.33301 -1 18.833 -3 28.5s-5.5 18.334 -10.5 26.001s-12.333 13.834 -22 18.501s-22.5 7 -38.5 7zM270 700.998l78 -142h-125l-151 142h198z" />
    <glyph glyph-name="eacute" unicode="&#xe9;" horiz-adv-x="542" 
d="M527 69c-37.333 -32 -76.667 -54.499 -118 -67.499s-88 -19.5 -140 -19.5c-31.333 0 -62.666 5.16699 -93.999 15.5s-59.5 26.333 -84.5 48s-45.5 49.667 -61.5 84s-24 75.5 -24 123.5c0 40.667 7 77.167 21 109.5s33 59.833 57 82.5s52.333 39.834 85 51.501
s68 17.5 106 17.5c41.333 0 77.833 -6 109.5 -18s58.167 -28.667 79.5 -50s37.333 -46.5 48 -75.5s16 -60.5 16 -94.5c0 -13.333 -1 -26.5 -3 -39.5s-5 -25.167 -9 -36.5h-315c1.33301 -6.66699 3.5 -14.667 6.5 -24s8.16699 -18.333 15.5 -27s17.333 -16 30 -22
s29.667 -9 51 -9c8.66699 0 18.167 0.333008 28.5 1s21.5 2.66699 33.5 6s24.667 8.16602 38 14.499s26.666 15.166 39.999 26.499zM279.999 379.001c-15.333 0 -27.832 -3.00293 -37.499 -9.00293s-17.334 -13.167 -23.001 -21.5s-9.66699 -17.166 -12 -26.499
s-3.83301 -17 -4.5 -23h151c0 9.33301 -1 18.833 -3 28.5s-5.5 18.334 -10.5 26.001s-12.333 13.834 -22 18.501s-22.5 7 -38.5 7zM454 700.998l-151 -142h-125l78 142h198z" />
    <glyph glyph-name="ecircumflex" unicode="&#xea;" horiz-adv-x="542" 
d="M527 69c-37.333 -32 -76.667 -54.499 -118 -67.499s-88 -19.5 -140 -19.5c-31.333 0 -62.666 5.16699 -93.999 15.5s-59.5 26.333 -84.5 48s-45.5 49.667 -61.5 84s-24 75.5 -24 123.5c0 40.667 7 77.167 21 109.5s33 59.833 57 82.5s52.333 39.834 85 51.501
s68 17.5 106 17.5c41.333 0 77.833 -6 109.5 -18s58.167 -28.667 79.5 -50s37.333 -46.5 48 -75.5s16 -60.5 16 -94.5c0 -13.333 -1 -26.5 -3 -39.5s-5 -25.167 -9 -36.5h-315c1.33301 -6.66699 3.5 -14.667 6.5 -24s8.16699 -18.333 15.5 -27s17.333 -16 30 -22
s29.667 -9 51 -9c8.66699 0 18.167 0.333008 28.5 1s21.5 2.66699 33.5 6s24.667 8.16602 38 14.499s26.666 15.166 39.999 26.499zM279.999 379.001c-15.333 0 -27.832 -3.00293 -37.499 -9.00293s-17.334 -13.167 -23.001 -21.5s-9.66699 -17.166 -12 -26.499
s-3.83301 -17 -4.5 -23h151c0 9.33301 -1 18.833 -3 28.5s-5.5 18.334 -10.5 26.001s-12.333 13.834 -22 18.501s-22.5 7 -38.5 7zM416 541.998l-139 70l-135 -70l-50 93l191 119l189 -119z" />
    <glyph glyph-name="edieresis" unicode="&#xeb;" horiz-adv-x="542" 
d="M527 69c-37.333 -32 -76.667 -54.499 -118 -67.499s-88 -19.5 -140 -19.5c-31.333 0 -62.666 5.16699 -93.999 15.5s-59.5 26.333 -84.5 48s-45.5 49.667 -61.5 84s-24 75.5 -24 123.5c0 40.667 7 77.167 21 109.5s33 59.833 57 82.5s52.333 39.834 85 51.501
s68 17.5 106 17.5c41.333 0 77.833 -6 109.5 -18s58.167 -28.667 79.5 -50s37.333 -46.5 48 -75.5s16 -60.5 16 -94.5c0 -13.333 -1 -26.5 -3 -39.5s-5 -25.167 -9 -36.5h-315c1.33301 -6.66699 3.5 -14.667 6.5 -24s8.16699 -18.333 15.5 -27s17.333 -16 30 -22
s29.667 -9 51 -9c8.66699 0 18.167 0.333008 28.5 1s21.5 2.66699 33.5 6s24.667 8.16602 38 14.499s26.666 15.166 39.999 26.499zM279.999 379.001c-15.333 0 -27.832 -3.00293 -37.499 -9.00293s-17.334 -13.167 -23.001 -21.5s-9.66699 -17.166 -12 -26.499
s-3.83301 -17 -4.5 -23h151c0 9.33301 -1 18.833 -3 28.5s-5.5 18.334 -10.5 26.001s-12.333 13.834 -22 18.501s-22.5 7 -38.5 7zM300 645.998c0 11.333 2.33301 23 7 35s11.5 23 20.5 33s20.333 18.167 34 24.5s29.167 9.5 46.5 9.5s32.833 -3.16699 46.5 -9.5
s25.167 -14.5 34.5 -24.5s16.5 -21 21.5 -33s7.5 -23.667 7.5 -35c0 -28 -9.33301 -51.833 -28 -71.5s-46 -29.5 -82 -29.5c-16 0 -30.5 3 -43.5 9s-24.333 13.833 -34 23.5s-17.167 20.5 -22.5 32.5s-8 24 -8 36zM25 645.998c0 11.333 2.33301 23 7 35s11.5 23 20.5 33
s20.333 18.167 34 24.5s29.167 9.5 46.5 9.5s32.833 -3.16699 46.5 -9.5s25.167 -14.5 34.5 -24.5s16.5 -21 21.5 -33s7.5 -23.667 7.5 -35c0 -28 -9.33301 -51.833 -28 -71.5s-46 -29.5 -82 -29.5c-16 0 -30.5 3 -43.5 9s-24.333 13.833 -34 23.5s-17.167 20.5 -22.5 32.5
s-8 24 -8 36z" />
    <glyph glyph-name="igrave" unicode="&#xec;" horiz-adv-x="330" 
d="M305 0h-280v131h42v239h-42v130h232v-369h48v-131zM225 701l80 -142h-127l-151 142h198z" />
    <glyph glyph-name="iacute" unicode="&#xed;" horiz-adv-x="330" 
d="M305 0h-280v131h42v239h-42v130h232v-369h48v-131zM303 701l-151 -142h-125l78 142h198z" />
    <glyph glyph-name="icircumflex" unicode="&#xee;" horiz-adv-x="330" 
d="M305 0h-280v131h42v239h-42v130h232v-369h48v-131zM273 546l-139 70l-135 -70l-50 93l191 119l189 -119z" />
    <glyph glyph-name="idieresis" unicode="&#xef;" horiz-adv-x="330" 
d="M305 0h-280v131h42v239h-42v130h232v-369h48v-131zM194 646c0 11.333 2.33301 23 7 35s11.5 23 20.5 33s20.333 18.167 34 24.5s29.167 9.5 46.5 9.5s32.833 -3.16699 46.5 -9.5s25.167 -14.5 34.5 -24.5s16.5 -21 21.5 -33s7.5 -23.667 7.5 -35
c0 -28 -9.33301 -51.833 -28 -71.5s-46 -29.5 -82 -29.5c-16 0 -30.5 3 -43.5 9s-24.333 13.833 -34 23.5s-17.167 20.5 -22.5 32.5s-8 24 -8 36zM-81 646c0 11.333 2.33301 23 7 35s11.5 23 20.5 33s20.333 18.167 34 24.5s29.167 9.5 46.5 9.5s32.833 -3.16699 46.5 -9.5
s25.167 -14.5 34.5 -24.5s16.5 -21 21.5 -33s7.5 -23.667 7.5 -35c0 -28 -9.33301 -51.833 -28 -71.5s-46 -29.5 -82 -29.5c-16 0 -30.5 3 -43.5 9s-24.333 13.833 -34 23.5s-17.167 20.5 -22.5 32.5s-8 24 -8 36z" />
    <glyph glyph-name="eth" unicode="&#xf0;" horiz-adv-x="571" 
d="M286 701l50.001 -65.998h150v-85h-84l92 -120c21.333 -24.667 38.166 -51.334 50.499 -80.001s18.5 -64 18.5 -106c0 -41.333 -7.16699 -77.833 -21.5 -109.5s-33.833 -58.5 -58.5 -80.5s-53.5 -38.667 -86.5 -50s-68.5 -17 -106.5 -17c-36 0 -70.833 5.5 -104.5 16.5
s-63.5 27.5 -89.5 49.5s-46.667 49.667 -62 83s-23 72 -23 116c0 41.333 7.83301 78.166 23.5 110.499s36.167 59.5 61.5 81.5s54.5 38.833 87.5 50.5s66.5 17.5 100.5 17.5l-40 38h-169v85h81l-68 66h198zM290.001 115.002c10.667 0 20.167 3.33301 28.5 10
s15.5 16 21.5 28s10.5 26.167 13.5 42.5s4.5 33.833 4.5 52.5s-1.66699 36.167 -5 52.5s-8 30.5 -14 42.5s-13.5 21.5 -22.5 28.5s-19.5 10.5 -31.5 10.5c-10 0 -19.167 -3.33301 -27.5 -10s-15.5 -16 -21.5 -28s-10.833 -26 -14.5 -42s-5.5 -33 -5.5 -51
c0 -41.333 7 -74.333 21 -99s31.667 -37 53 -37z" />
    <glyph glyph-name="ntilde" unicode="&#xf1;" horiz-adv-x="647" 
d="M333 0l-308 -0.000976562v131h42v239h-42v130h213l23 -62c17.333 23.333 37.5 42.5 60.5 57.5s50.5 22.5 82.5 22.5c38.667 0 69.834 -6.5 93.501 -19.5s42 -30 55 -51s21.667 -44.667 26 -71s6.5 -52.5 6.5 -78.5v-167h47v-131h-252v273
c0 8.66699 -0.166992 18.334 -0.5 29.001s-2.16602 20.667 -5.49902 30s-8.83301 17.333 -16.5 24s-18.834 10 -33.501 10c-12.667 0 -23.167 -2.83301 -31.5 -8.5s-14.833 -13 -19.5 -22s-7.83398 -19 -9.50098 -30s-2.5 -21.833 -2.5 -32.5v-142h72v-131zM490 605.999
c-14.667 -18 -31.6719 -31.667 -51.0049 -41s-43.333 -14 -72 -14c-15.333 0 -28.166 2 -38.499 6s-20.166 8.16699 -29.499 12.5s-19 8.5 -29 12.5s-22.333 6 -37 6c-26.667 0 -50 -10 -70 -30l-44 100c15.333 19.333 32.333 34 51 44s40.667 15 66 15
c16 0 29.333 -1.83301 40 -5.5s20.834 -7.66699 30.501 -12s19.5 -8.33301 29.5 -12s22 -5.5 36 -5.5c14.667 0 28.834 3 42.501 9s23.834 12.667 30.501 20z" />
    <glyph glyph-name="ograve" unicode="&#xf2;" horiz-adv-x="574" 
d="M290 -13c-36 0 -70.834 5.5 -104.501 16.5s-63.5 27.5 -89.5 49.5s-46.667 49.667 -62 83s-23 72 -23 116c0 42 7.83301 79.167 23.5 111.5s36.334 59.5 62.001 81.5s55 38.667 88 50s66.5 17 100.5 17c39.333 0 76 -6.16699 110 -18.5s63.5 -30 88.5 -53
s44.5 -51 58.5 -84s21 -70.5 21 -112.5c0 -41.333 -7.16699 -77.833 -21.5 -109.5s-33.833 -58.5 -58.5 -80.5s-53.5 -38.667 -86.5 -50s-68.5 -17 -106.5 -17zM289.999 115c10.667 0 20.167 3.33301 28.5 10s15.5 16 21.5 28s10.5 26.167 13.5 42.5s4.5 33.833 4.5 52.5
s-1.66699 36.167 -5 52.5s-8 30.5 -14 42.5s-13.5 21.5 -22.5 28.5s-19.5 10.5 -31.5 10.5c-10 0 -19.167 -3.33301 -27.5 -10s-15.5 -16 -21.5 -28s-10.833 -26 -14.5 -42s-5.5 -33 -5.5 -51c0 -41.333 7 -74.333 21 -99s31.667 -37 53 -37zM285.999 701l78 -142h-125
l-151 142h198z" />
    <glyph glyph-name="oacute" unicode="&#xf3;" horiz-adv-x="574" 
d="M290 -13c-36 0 -70.834 5.5 -104.501 16.5s-63.5 27.5 -89.5 49.5s-46.667 49.667 -62 83s-23 72 -23 116c0 42 7.83301 79.167 23.5 111.5s36.334 59.5 62.001 81.5s55 38.667 88 50s66.5 17 100.5 17c39.333 0 76 -6.16699 110 -18.5s63.5 -30 88.5 -53
s44.5 -51 58.5 -84s21 -70.5 21 -112.5c0 -41.333 -7.16699 -77.833 -21.5 -109.5s-33.833 -58.5 -58.5 -80.5s-53.5 -38.667 -86.5 -50s-68.5 -17 -106.5 -17zM289.999 115c10.667 0 20.167 3.33301 28.5 10s15.5 16 21.5 28s10.5 26.167 13.5 42.5s4.5 33.833 4.5 52.5
s-1.66699 36.167 -5 52.5s-8 30.5 -14 42.5s-13.5 21.5 -22.5 28.5s-19.5 10.5 -31.5 10.5c-10 0 -19.167 -3.33301 -27.5 -10s-15.5 -16 -21.5 -28s-10.833 -26 -14.5 -42s-5.5 -33 -5.5 -51c0 -41.333 7 -74.333 21 -99s31.667 -37 53 -37zM469.999 701l-151 -142h-125
l78 142h198z" />
    <glyph glyph-name="ocircumflex" unicode="&#xf4;" horiz-adv-x="574" 
d="M290 -13c-36 0 -70.834 5.5 -104.501 16.5s-63.5 27.5 -89.5 49.5s-46.667 49.667 -62 83s-23 72 -23 116c0 42 7.83301 79.167 23.5 111.5s36.334 59.5 62.001 81.5s55 38.667 88 50s66.5 17 100.5 17c39.333 0 76 -6.16699 110 -18.5s63.5 -30 88.5 -53
s44.5 -51 58.5 -84s21 -70.5 21 -112.5c0 -41.333 -7.16699 -77.833 -21.5 -109.5s-33.833 -58.5 -58.5 -80.5s-53.5 -38.667 -86.5 -50s-68.5 -17 -106.5 -17zM289.999 115c10.667 0 20.167 3.33301 28.5 10s15.5 16 21.5 28s10.5 26.167 13.5 42.5s4.5 33.833 4.5 52.5
s-1.66699 36.167 -5 52.5s-8 30.5 -14 42.5s-13.5 21.5 -22.5 28.5s-19.5 10.5 -31.5 10.5c-10 0 -19.167 -3.33301 -27.5 -10s-15.5 -16 -21.5 -28s-10.833 -26 -14.5 -42s-5.5 -33 -5.5 -51c0 -41.333 7 -74.333 21 -99s31.667 -37 53 -37zM403.999 546l-139 70l-135 -70
l-50 93l191 119l189 -119z" />
    <glyph glyph-name="otilde" unicode="&#xf5;" horiz-adv-x="574" 
d="M290 -13c-36 0 -70.834 5.5 -104.501 16.5s-63.5 27.5 -89.5 49.5s-46.667 49.667 -62 83s-23 72 -23 116c0 42 7.83301 79.167 23.5 111.5s36.334 59.5 62.001 81.5s55 38.667 88 50s66.5 17 100.5 17c39.333 0 76 -6.16699 110 -18.5s63.5 -30 88.5 -53
s44.5 -51 58.5 -84s21 -70.5 21 -112.5c0 -41.333 -7.16699 -77.833 -21.5 -109.5s-33.833 -58.5 -58.5 -80.5s-53.5 -38.667 -86.5 -50s-68.5 -17 -106.5 -17zM289.999 115c10.667 0 20.167 3.33301 28.5 10s15.5 16 21.5 28s10.5 26.167 13.5 42.5s4.5 33.833 4.5 52.5
s-1.66699 36.167 -5 52.5s-8 30.5 -14 42.5s-13.5 21.5 -22.5 28.5s-19.5 10.5 -31.5 10.5c-10 0 -19.167 -3.33301 -27.5 -10s-15.5 -16 -21.5 -28s-10.833 -26 -14.5 -42s-5.5 -33 -5.5 -51c0 -41.333 7 -74.333 21 -99s31.667 -37 53 -37zM471.999 606
c-14.667 -18 -31.6719 -31.667 -51.0049 -41s-43.333 -14 -72 -14c-15.333 0 -28.166 2 -38.499 6s-20.166 8.16699 -29.499 12.5s-19 8.5 -29 12.5s-22.333 6 -37 6c-26.667 0 -50 -10 -70 -30l-44 100c15.333 19.333 32.333 34 51 44s40.667 15 66 15
c16 0 29.333 -1.83301 40 -5.5s20.834 -7.66699 30.501 -12s19.5 -8.33301 29.5 -12s22 -5.5 36 -5.5c14.667 0 28.834 3 42.501 9s23.834 12.667 30.501 20z" />
    <glyph glyph-name="odieresis" unicode="&#xf6;" horiz-adv-x="574" 
d="M290 -13c-36 0 -70.834 5.5 -104.501 16.5s-63.5 27.5 -89.5 49.5s-46.667 49.667 -62 83s-23 72 -23 116c0 42 7.83301 79.167 23.5 111.5s36.334 59.5 62.001 81.5s55 38.667 88 50s66.5 17 100.5 17c39.333 0 76 -6.16699 110 -18.5s63.5 -30 88.5 -53
s44.5 -51 58.5 -84s21 -70.5 21 -112.5c0 -41.333 -7.16699 -77.833 -21.5 -109.5s-33.833 -58.5 -58.5 -80.5s-53.5 -38.667 -86.5 -50s-68.5 -17 -106.5 -17zM289.999 115c10.667 0 20.167 3.33301 28.5 10s15.5 16 21.5 28s10.5 26.167 13.5 42.5s4.5 33.833 4.5 52.5
s-1.66699 36.167 -5 52.5s-8 30.5 -14 42.5s-13.5 21.5 -22.5 28.5s-19.5 10.5 -31.5 10.5c-10 0 -19.167 -3.33301 -27.5 -10s-15.5 -16 -21.5 -28s-10.833 -26 -14.5 -42s-5.5 -33 -5.5 -51c0 -41.333 7 -74.333 21 -99s31.667 -37 53 -37zM315.999 646
c0 11.333 2.33301 23 7 35s11.5 23 20.5 33s20.333 18.167 34 24.5s29.167 9.5 46.5 9.5s32.833 -3.16699 46.5 -9.5s25.167 -14.5 34.5 -24.5s16.5 -21 21.5 -33s7.5 -23.667 7.5 -35c0 -28 -9.33301 -51.833 -28 -71.5s-46 -29.5 -82 -29.5c-16 0 -30.5 3 -43.5 9
s-24.333 13.833 -34 23.5s-17.167 20.5 -22.5 32.5s-8 24 -8 36zM40.999 646c0 11.333 2.33301 23 7 35s11.5 23 20.5 33s20.333 18.167 34 24.5s29.167 9.5 46.5 9.5s32.833 -3.16699 46.5 -9.5s25.167 -14.5 34.5 -24.5s16.5 -21 21.5 -33s7.5 -23.667 7.5 -35
c0 -28 -9.33301 -51.833 -28 -71.5s-46 -29.5 -82 -29.5c-16 0 -30.5 3 -43.5 9s-24.333 13.833 -34 23.5s-17.167 20.5 -22.5 32.5s-8 24 -8 36z" />
    <glyph glyph-name="divide" unicode="&#xf7;" horiz-adv-x="524" 
d="M155 98c0 12.667 2.33105 25.5 6.99805 38.5s11.834 25 21.501 36s21.334 20 35.001 27s29.5 10.5 47.5 10.5s34 -3.5 48 -10.5s25.833 -16 35.5 -27s17 -23 22 -36s7.5 -25.833 7.5 -38.5c0 -14.667 -2.66699 -28.5 -8 -41.5s-13 -24.167 -23 -33.5
s-22 -16.833 -36 -22.5s-29.333 -8.5 -46 -8.5c-16 0 -30.833 3 -44.5 9s-25.5 14 -35.5 24s-17.667 21.333 -23 34s-8 25.667 -8 39zM154.998 519c0 12.667 2.33105 25.5 6.99805 38.5s11.834 25 21.501 36s21.334 20 35.001 27s29.5 10.5 47.5 10.5s34 -3.5 48 -10.5
s25.833 -16 35.5 -27s17 -23 22 -36s7.5 -25.833 7.5 -38.5c0 -30 -9.83301 -55.167 -29.5 -75.5s-47.5 -30.5 -83.5 -30.5c-15.333 0 -29.833 3 -43.5 9s-25.5 14 -35.5 24s-17.833 21.333 -23.5 34s-8.5 25.667 -8.5 39zM57.9961 377h412v-133h-412v133z" />
    <glyph glyph-name="oslash" unicode="&#xf8;" horiz-adv-x="574" 
d="M83 64c-23.333 22 -41.166 48.5 -53.499 79.5s-18.5 67.167 -18.5 108.5c0 42 7.83301 79.167 23.5 111.5s36.334 59.5 62.001 81.5s55 38.667 88 50s66.5 17 100.5 17c23.333 0 45.666 -2.5 66.999 -7.5s41.666 -11.167 60.999 -18.5l12 15h118l-53 -67
c22.667 -22.667 40.5 -50 53.5 -82s19.5 -68 19.5 -108c0 -41.333 -7.16699 -77.833 -21.5 -109.5s-33.833 -58.5 -58.5 -80.5s-53.5 -38.667 -86.5 -50s-68.5 -17 -106.5 -17c-45.333 0 -88.333 8.66699 -129 26l-10 -13h-118zM290 115
c10.667 0 20.167 3.33398 28.5 10.001s15.5 16 21.5 28s10.5 26.167 13.5 42.5s4.5 33.833 4.5 52.5v7.5c0 2.33301 -0.333008 5.16602 -1 8.49902l-104 -134c10.667 -10 23 -15 37 -15zM216 234.001l104 133c-5.33301 4 -11 7.5 -17 10.5s-12 4.5 -18 4.5
c-10 0 -19.167 -3.33301 -27.5 -10s-15.5 -16 -21.5 -28s-10.833 -26 -14.5 -42s-5.5 -33 -5.5 -51v-17z" />
    <glyph glyph-name="ugrave" unicode="&#xf9;" horiz-adv-x="631" 
d="M15 500l242.001 -0.000976562v-241c0 -43.333 3.83301 -75.166 11.5 -95.499s21.834 -30.5 42.501 -30.5c17.333 0 32.166 7 44.499 21s18.5 32.333 18.5 55v159h-66v132h259v-367h49v-133h-189l-27 63l-19.5 -22.5c-7.66699 -9 -17 -17.5 -28 -25.5
s-24.167 -14.833 -39.5 -20.5s-33.666 -8.5 -54.999 -8.5c-38 0 -69.833 5 -95.5 15s-46.334 25 -62.001 45s-26.834 45.333 -33.501 76s-10 66.667 -10 108v138h-42v132zM314.001 700.999l78 -142h-125l-151 142h198z" />
    <glyph glyph-name="uacute" unicode="&#xfa;" horiz-adv-x="631" 
d="M15 500l242.001 -0.000976562v-241c0 -43.333 3.83301 -75.166 11.5 -95.499s21.834 -30.5 42.501 -30.5c17.333 0 32.166 7 44.499 21s18.5 32.333 18.5 55v159h-66v132h259v-367h49v-133h-189l-27 63l-19.5 -22.5c-7.66699 -9 -17 -17.5 -28 -25.5
s-24.167 -14.833 -39.5 -20.5s-33.666 -8.5 -54.999 -8.5c-38 0 -69.833 5 -95.5 15s-46.334 25 -62.001 45s-26.834 45.333 -33.501 76s-10 66.667 -10 108v138h-42v132zM498.001 700.999l-151 -142h-125l78 142h198z" />
    <glyph glyph-name="ucircumflex" unicode="&#xfb;" horiz-adv-x="631" 
d="M15 500l242.001 -0.000976562v-241c0 -43.333 3.83301 -75.166 11.5 -95.499s21.834 -30.5 42.501 -30.5c17.333 0 32.166 7 44.499 21s18.5 32.333 18.5 55v159h-66v132h259v-367h49v-133h-189l-27 63l-19.5 -22.5c-7.66699 -9 -17 -17.5 -28 -25.5
s-24.167 -14.833 -39.5 -20.5s-33.666 -8.5 -54.999 -8.5c-38 0 -69.833 5 -95.5 15s-46.334 25 -62.001 45s-26.834 45.333 -33.501 76s-10 66.667 -10 108v138h-42v132zM433.001 545.999l-139 70l-135 -70l-50 93l191 119l189 -119z" />
    <glyph glyph-name="udieresis" unicode="&#xfc;" horiz-adv-x="631" 
d="M15 500l242.001 -0.000976562v-241c0 -43.333 3.83301 -75.166 11.5 -95.499s21.834 -30.5 42.501 -30.5c17.333 0 32.166 7 44.499 21s18.5 32.333 18.5 55v159h-66v132h259v-367h49v-133h-189l-27 63l-19.5 -22.5c-7.66699 -9 -17 -17.5 -28 -25.5
s-24.167 -14.833 -39.5 -20.5s-33.666 -8.5 -54.999 -8.5c-38 0 -69.833 5 -95.5 15s-46.334 25 -62.001 45s-26.834 45.333 -33.501 76s-10 66.667 -10 108v138h-42v132zM344.001 645.999c0 11.333 2.33301 23 7 35s11.5 23 20.5 33s20.333 18.167 34 24.5
s29.167 9.5 46.5 9.5s32.833 -3.16699 46.5 -9.5s25.167 -14.5 34.5 -24.5s16.5 -21 21.5 -33s7.5 -23.667 7.5 -35c0 -28 -9.33301 -51.833 -28 -71.5s-46 -29.5 -82 -29.5c-16 0 -30.5 3 -43.5 9s-24.333 13.833 -34 23.5s-17.167 20.5 -22.5 32.5s-8 24 -8 36z
M69.001 645.999c0 11.333 2.33301 23 7 35s11.5 23 20.5 33s20.333 18.167 34 24.5s29.167 9.5 46.5 9.5s32.833 -3.16699 46.5 -9.5s25.167 -14.5 34.5 -24.5s16.5 -21 21.5 -33s7.5 -23.667 7.5 -35c0 -28 -9.33301 -51.833 -28 -71.5s-46 -29.5 -82 -29.5
c-16 0 -30.5 3 -43.5 9s-24.333 13.833 -34 23.5s-17.167 20.5 -22.5 32.5s-8 24 -8 36z" />
    <glyph glyph-name="yacute" unicode="&#xfd;" horiz-adv-x="580" 
d="M382 373l-46.001 0.00488281v127h254v-124h-48l-190 -462c-7.33301 -16 -15.833 -32.333 -25.5 -49s-22.5 -31.834 -38.5 -45.501s-36.167 -24.834 -60.5 -33.501s-54.5 -13 -90.5 -13c-26 1.33301 -48.833 6.66602 -68.5 15.999s-37.167 20.666 -52.5 33.999l75 118
c9.33301 -8.66699 19.833 -16.667 31.5 -24s23.167 -11 34.5 -11c13.333 0 24.833 5.66699 34.5 17s16.834 23.666 21.501 36.999l14 42l-195 370h-41v128h308v-127h-47l65 -156zM472.999 701.005l-156 -142h-120l78 142h198z" />
    <glyph glyph-name="thorn" unicode="&#xfe;" horiz-adv-x="638" 
d="M25 -73l42 0.00195312v694h-41v129h232v-295l13 10l18 12.5c7.33301 5 16.166 9.66699 26.499 14s21.833 8.16602 34.5 11.499s26.667 5 42 5c38.667 0 72.834 -7 102.501 -21s54.334 -33 74.001 -57s34.5 -51.833 44.5 -83.5s15 -65.167 15 -100.5
c0 -40 -5.83301 -75.833 -17.5 -107.5s-27.667 -58.5 -48 -80.5s-44.5 -39 -72.5 -51s-58 -18 -90 -18c-20.667 0 -38.834 1.66699 -54.501 5s-28.667 7.33301 -39 12s-18.5 9.16699 -24.5 13.5s-10 7.16602 -12 8.49902v-101h54v-131h-299v131zM413 244.002
c0 14.667 -1.66699 29.501 -5 44.501s-8.16602 28.167 -14.499 39.5s-14 20.666 -23 27.999s-18.833 11 -29.5 11c-18.667 0 -35.167 -10.333 -49.5 -31s-21.5 -49 -21.5 -85c0 -18.667 1.66699 -36 5 -52s8.16602 -30 14.499 -42s14 -21.333 23 -28s18.833 -10 29.5 -10
c21.333 0 38.5 11.333 51.5 34s19.5 53 19.5 91z" />
    <glyph glyph-name="ydieresis" unicode="&#xff;" horiz-adv-x="580" 
d="M382 373l-46.001 0.00488281v127h254v-124h-48l-190 -462c-7.33301 -16 -15.833 -32.333 -25.5 -49s-22.5 -31.834 -38.5 -45.501s-36.167 -24.834 -60.5 -33.501s-54.5 -13 -90.5 -13c-26 1.33301 -48.833 6.66602 -68.5 15.999s-37.167 20.666 -52.5 33.999l75 118
c9.33301 -8.66699 19.833 -16.667 31.5 -24s23.167 -11 34.5 -11c13.333 0 24.833 5.66699 34.5 17s16.834 23.666 21.501 36.999l14 42l-195 370h-41v128h308v-127h-47l65 -156zM318.999 646.005c0 11.333 2.33301 23 7 35s11.5 23 20.5 33s20.333 18.167 34 24.5
s29.167 9.5 46.5 9.5s32.833 -3.16699 46.5 -9.5s25.167 -14.5 34.5 -24.5s16.5 -21 21.5 -33s7.5 -23.667 7.5 -35c0 -28 -9.33301 -51.833 -28 -71.5s-46 -29.5 -82 -29.5c-16 0 -30.5 3 -43.5 9s-24.333 13.833 -34 23.5s-17.167 20.5 -22.5 32.5s-8 24 -8 36z
M43.999 646.005c0 11.333 2.33301 23 7 35s11.5 23 20.5 33s20.333 18.167 34 24.5s29.167 9.5 46.5 9.5s32.833 -3.16699 46.5 -9.5s25.167 -14.5 34.5 -24.5s16.5 -21 21.5 -33s7.5 -23.667 7.5 -35c0 -28 -9.33301 -51.833 -28 -71.5s-46 -29.5 -82 -29.5
c-16 0 -30.5 3 -43.5 9s-24.333 13.833 -34 23.5s-17.167 20.5 -22.5 32.5s-8 24 -8 36z" />
    <glyph glyph-name="Amacron" unicode="&#x100;" horiz-adv-x="823" 
d="M808 0h-401v131h95l-21 68h-205l-21 -68h78v-131h-318v131h68l135 439h-41v129h384l177 -568h70v-131zM313 319h131l-66 216zM111 897h558v-133h-558v133z" />
    <glyph glyph-name="amacron" unicode="&#x101;" horiz-adv-x="600" 
d="M36 458c10 6 22.667 13.001 38 21.001s32.5 15.833 51.5 23.5s39.333 14 61 19s44.167 7.5 67.5 7.5c30 0 61 -3.16699 93 -9.5s61.167 -17.333 87.5 -33s48 -36.834 65 -63.501s25.5 -60 25.5 -100v-195h60v-128h-214l-24 45
c-9.33301 -12.667 -19.833 -23.167 -31.5 -31.5s-23.667 -14.833 -36 -19.5s-24.5 -8 -36.5 -10s-22.333 -3 -31 -3c-24 0 -47.667 3.33301 -71 10s-44.333 16.667 -63 30s-33.834 30.5 -45.501 51.5s-17.5 46.167 -17.5 75.5c0 28 5.5 53.333 16.5 76s26 42 45 58
s41.167 28.333 66.5 37s52 13 80 13c14.667 0 27.834 -1.5 39.501 -4.5s21.667 -6.5 30 -10.5s15 -8 20 -12s8.16699 -6.66699 9.5 -8v35c0 22.667 -9 37.667 -27 45s-40.667 11 -68 11c-30 0 -57.5 -5 -82.5 -15s-47.167 -20.333 -66.5 -31zM258 111.001
c15.333 0 28.667 3.66797 40 11.001s19.333 14.666 24 21.999v38c-0.666992 1.33301 -2.16699 3.5 -4.5 6.5s-5.83301 6.16699 -10.5 9.5s-10.5 6.33301 -17.5 9s-15.833 4 -26.5 4c-20 0 -34.667 -5 -44 -15s-14 -22.667 -14 -38c0 -14 5 -25.333 15 -34s22.667 -13 38 -13
zM48.001 698.002h499v-133h-499v133z" />
    <glyph glyph-name="Abreve" unicode="&#x102;" horiz-adv-x="823" 
d="M808 0h-401v131h95l-21 68h-205l-21 -68h78v-131h-318v131h68l135 439h-41v129h384l177 -568h70v-131zM313 319h131l-66 216zM600 911c-3.33301 -26.667 -10.832 -50.335 -22.499 -71.002s-26.5 -38 -44.5 -52s-38.833 -24.667 -62.5 -32s-48.5 -11 -74.5 -11
c-24 0 -47.667 3.33301 -71 10s-44.333 16.834 -63 30.501s-34.5 30.834 -47.5 51.501s-21.5 44.667 -25.5 72h155c3.33301 -21.333 9.66602 -38 18.999 -50s20.333 -18 33 -18c13.333 0 24 6.5 32 19.5s13.667 29.5 17 49.5z" />
    <glyph glyph-name="abreve" unicode="&#x103;" horiz-adv-x="600" 
d="M36 458c10 6 22.667 13.001 38 21.001s32.5 15.833 51.5 23.5s39.333 14 61 19s44.167 7.5 67.5 7.5c30 0 61 -3.16699 93 -9.5s61.167 -17.333 87.5 -33s48 -36.834 65 -63.501s25.5 -60 25.5 -100v-195h60v-128h-214l-24 45
c-9.33301 -12.667 -19.833 -23.167 -31.5 -31.5s-23.667 -14.833 -36 -19.5s-24.5 -8 -36.5 -10s-22.333 -3 -31 -3c-24 0 -47.667 3.33301 -71 10s-44.333 16.667 -63 30s-33.834 30.5 -45.501 51.5s-17.5 46.167 -17.5 75.5c0 28 5.5 53.333 16.5 76s26 42 45 58
s41.167 28.333 66.5 37s52 13 80 13c14.667 0 27.834 -1.5 39.501 -4.5s21.667 -6.5 30 -10.5s15 -8 20 -12s8.16699 -6.66699 9.5 -8v35c0 22.667 -9 37.667 -27 45s-40.667 11 -68 11c-30 0 -57.5 -5 -82.5 -15s-47.167 -20.333 -66.5 -31zM258 111.001
c15.333 0 28.667 3.66797 40 11.001s19.333 14.666 24 21.999v38c-0.666992 1.33301 -2.16699 3.5 -4.5 6.5s-5.83301 6.16699 -10.5 9.5s-10.5 6.33301 -17.5 9s-15.833 4 -26.5 4c-20 0 -34.667 -5 -44 -15s-14 -22.667 -14 -38c0 -14 5 -25.333 15 -34s22.667 -13 38 -13
zM481.001 743.002c-3.33301 -26.667 -10.832 -50.335 -22.499 -71.002s-26.5 -38 -44.5 -52s-38.833 -24.667 -62.5 -32s-48.5 -11 -74.5 -11c-24 0 -47.667 3.33301 -71 10s-44.333 16.834 -63 30.501s-34.5 30.834 -47.5 51.501s-21.5 44.667 -25.5 72h155
c3.33301 -21.333 9.66602 -38 18.999 -50s20.333 -18 33 -18c13.333 0 24 6.5 32 19.5s13.667 29.5 17 49.5z" />
    <glyph glyph-name="Aogonek" unicode="&#x104;" horiz-adv-x="823" 
d="M808 0l-113.999 0.000976562l-19 -11c-13.333 -7.33301 -23.166 -17.5 -29.499 -30.5s-9.5 -25.5 -9.5 -37.5c0 -14 5.66699 -25.667 17 -35s23 -14 35 -14c14.667 0 33.167 3.16699 55.5 9.5s43.833 13.166 64.5 20.499v-143c-15.333 -6.66699 -34.333 -12.5 -57 -17.5
s-49.667 -7.5 -81 -7.5c-22.667 0 -44.334 2.16699 -65.001 6.5s-39 12.5 -55 24.5s-28.667 28.5 -38 49.5s-14 48.5 -14 82.5c0 26 3.66699 47 11 63s14.666 29.333 21.999 40h-124v131h95l-21 68h-205l-21 -68h78v-131h-318v131h68l135 439h-41v129h384l177 -568h70v-131z
M313.001 319.001h131l-66 216z" />
    <glyph glyph-name="aogonek" unicode="&#x105;" horiz-adv-x="600" 
d="M36 458c10 6 22.668 13.002 38.001 21.002s32.5 15.833 51.5 23.5s39.333 14 61 19s44.167 7.5 67.5 7.5c30 0 61 -3.16699 93 -9.5s61.167 -17.333 87.5 -33s48 -36.834 65 -63.501s25.5 -60 25.5 -100v-195h60v-128h-29l-19 -11
c-13.333 -7.33301 -23.166 -17.5 -29.499 -30.5s-9.5 -25.5 -9.5 -37.5c0 -14 5.66699 -25.667 17 -35s23 -14 35 -14c14.667 0 33.167 3.16699 55.5 9.5s43.833 13.166 64.5 20.499v-143c-15.333 -6.66699 -34.333 -12.5 -57 -17.5s-49.667 -7.5 -81 -7.5
c-22.667 0 -44.334 2.16699 -65.001 6.5s-39 12.5 -55 24.5s-28.667 28.5 -38 49.5s-14 48.5 -14 82.5c0 26 3.66699 47 11 63s14.666 29.333 21.999 40h-22l-24 45c-9.33301 -12.667 -19.833 -23.167 -31.5 -31.5s-23.667 -14.833 -36 -19.5s-24.5 -8 -36.5 -10
s-22.333 -3 -31 -3c-24 0 -47.667 3.33301 -71 10s-44.333 16.667 -63 30s-33.834 30.5 -45.501 51.5s-17.5 46.167 -17.5 75.5c0 28 5.5 53.333 16.5 76s26 42 45 58s41.167 28.333 66.5 37s52 13 80 13c14.667 0 27.834 -1.5 39.501 -4.5s21.667 -6.5 30 -10.5
s15 -8 20 -12s8.16699 -6.66699 9.5 -8v35c0 22.667 -9 37.667 -27 45s-40.667 11 -68 11c-30 0 -57.5 -5 -82.5 -15s-47.167 -20.333 -66.5 -31zM258.001 111.002c15.333 0 28.667 3.66797 40 11.001s19.333 14.666 24 21.999v38c-0.666992 1.33301 -2.16699 3.5 -4.5 6.5
s-5.83301 6.16699 -10.5 9.5s-10.5 6.33301 -17.5 9s-15.833 4 -26.5 4c-20 0 -34.667 -5 -44 -15s-14 -22.667 -14 -38c0 -14 5 -25.333 15 -34s22.667 -13 38 -13z" />
    <glyph glyph-name="Cacute" unicode="&#x106;" horiz-adv-x="686" 
d="M671 125c-17.333 -18.667 -36.6699 -36.5 -58.0029 -53.5s-44.666 -32 -69.999 -45s-52.666 -23.333 -81.999 -31s-60.333 -11.5 -93 -11.5c-53.333 0 -101.666 8.16699 -144.999 24.5s-80.333 40 -111 71s-54.5 68.667 -71.5 113s-25.5 94.5 -25.5 150.5
c0 57.333 9.66699 108.833 29 154.5s44 84.334 74 116.001s62.833 55.834 98.5 72.501s69.834 25 102.501 25c24.667 0 46.167 -3 64.5 -9s33.833 -12.833 46.5 -20.5s22.5 -15.334 29.5 -23.001s11.5 -12.834 13.5 -15.501l23 56h157v-284h-179
c-0.666992 16 -3.33398 31.667 -8.00098 47s-11.167 28.833 -19.5 40.5s-19 21 -32 28s-28.5 10.5 -46.5 10.5s-34.333 -5.16699 -49 -15.5s-27.167 -24.5 -37.5 -42.5s-18.333 -39 -24 -63s-8.5 -49.667 -8.5 -77c0 -24.667 3.16699 -48.334 9.5 -71.001
s15.666 -42.667 27.999 -60s27.5 -31.166 45.5 -41.499s39 -15.5 63 -15.5c20.667 0 40.334 4.66699 59.001 14s35 19.833 49 31.5s25.5 22.667 34.5 33s14.5 16.833 16.5 19.5zM526.996 900l-151 -142h-125l78 142h198z" />
    <glyph glyph-name="cacute" unicode="&#x107;" horiz-adv-x="531" 
d="M360 274c-0.666992 12 -2.16797 24.1709 -4.50098 36.5039s-5.83301 23.666 -10.5 33.999s-11 18.666 -19 24.999s-17.667 9.5 -29 9.5c-14.667 0 -27.5 -3.66699 -38.5 -11s-20.167 -17 -27.5 -29s-12.833 -25.667 -16.5 -41s-5.5 -31 -5.5 -47
c0 -34 9.33301 -62.167 28 -84.5s44.667 -33.5 78 -33.5c25.333 0 47.333 5.16699 66 15.5s36 24.166 52 41.499l88 -102c-12 -12.667 -26.333 -25.167 -43 -37.5s-35.5 -23.166 -56.5 -32.499s-43.833 -17 -68.5 -23s-50.334 -9 -77.001 -9
c-36.667 0 -71.667 5.5 -105 16.5s-62.5 27.667 -87.5 50s-45 50.166 -60 83.499s-22.5 72.333 -22.5 117c0 44 6.83301 82.167 20.5 114.5s31.834 59 54.501 80s48.834 36.5 78.501 46.5s60.5 15 92.5 15c16.667 0 31.834 -2 45.501 -6s25.667 -9 36 -15
s19.166 -12.333 26.499 -19s13 -12.334 17 -17.001l17 48h118v-226h-147zM449.999 701.004l-151 -142h-125l78 142h198z" />
    <glyph glyph-name="Ccircumflex" unicode="&#x108;" horiz-adv-x="686" 
d="M671 125c-17.333 -18.667 -36.6699 -36.5 -58.0029 -53.5s-44.666 -32 -69.999 -45s-52.666 -23.333 -81.999 -31s-60.333 -11.5 -93 -11.5c-53.333 0 -101.666 8.16699 -144.999 24.5s-80.333 40 -111 71s-54.5 68.667 -71.5 113s-25.5 94.5 -25.5 150.5
c0 57.333 9.66699 108.833 29 154.5s44 84.334 74 116.001s62.833 55.834 98.5 72.501s69.834 25 102.501 25c24.667 0 46.167 -3 64.5 -9s33.833 -12.833 46.5 -20.5s22.5 -15.334 29.5 -23.001s11.5 -12.834 13.5 -15.501l23 56h157v-284h-179
c-0.666992 16 -3.33398 31.667 -8.00098 47s-11.167 28.833 -19.5 40.5s-19 21 -32 28s-28.5 10.5 -46.5 10.5s-34.333 -5.16699 -49 -15.5s-27.167 -24.5 -37.5 -42.5s-18.333 -39 -24 -63s-8.5 -49.667 -8.5 -77c0 -24.667 3.16699 -48.334 9.5 -71.001
s15.666 -42.667 27.999 -60s27.5 -31.166 45.5 -41.499s39 -15.5 63 -15.5c20.667 0 40.334 4.66699 59.001 14s35 19.833 49 31.5s25.5 22.667 34.5 33s14.5 16.833 16.5 19.5zM476.996 745l-139 70l-135 -70l-50 93l191 119l189 -119z" />
    <glyph glyph-name="ccircumflex" unicode="&#x109;" horiz-adv-x="531" 
d="M360 274c-0.666992 12 -2.16797 24.1709 -4.50098 36.5039s-5.83301 23.666 -10.5 33.999s-11 18.666 -19 24.999s-17.667 9.5 -29 9.5c-14.667 0 -27.5 -3.66699 -38.5 -11s-20.167 -17 -27.5 -29s-12.833 -25.667 -16.5 -41s-5.5 -31 -5.5 -47
c0 -34 9.33301 -62.167 28 -84.5s44.667 -33.5 78 -33.5c25.333 0 47.333 5.16699 66 15.5s36 24.166 52 41.499l88 -102c-12 -12.667 -26.333 -25.167 -43 -37.5s-35.5 -23.166 -56.5 -32.499s-43.833 -17 -68.5 -23s-50.334 -9 -77.001 -9
c-36.667 0 -71.667 5.5 -105 16.5s-62.5 27.667 -87.5 50s-45 50.166 -60 83.499s-22.5 72.333 -22.5 117c0 44 6.83301 82.167 20.5 114.5s31.834 59 54.501 80s48.834 36.5 78.501 46.5s60.5 15 92.5 15c16.667 0 31.834 -2 45.501 -6s25.667 -9 36 -15
s19.166 -12.333 26.499 -19s13 -12.334 17 -17.001l17 48h118v-226h-147zM398.999 546.004l-139 70l-135 -70l-50 93l191 119l189 -119z" />
    <glyph glyph-name="Cdotaccent" unicode="&#x10a;" horiz-adv-x="686" 
d="M671 125c-17.333 -18.667 -36.6699 -36.5 -58.0029 -53.5s-44.666 -32 -69.999 -45s-52.666 -23.333 -81.999 -31s-60.333 -11.5 -93 -11.5c-53.333 0 -101.666 8.16699 -144.999 24.5s-80.333 40 -111 71s-54.5 68.667 -71.5 113s-25.5 94.5 -25.5 150.5
c0 57.333 9.66699 108.833 29 154.5s44 84.334 74 116.001s62.833 55.834 98.5 72.501s69.834 25 102.501 25c24.667 0 46.167 -3 64.5 -9s33.833 -12.833 46.5 -20.5s22.5 -15.334 29.5 -23.001s11.5 -12.834 13.5 -15.501l23 56h157v-284h-179
c-0.666992 16 -3.33398 31.667 -8.00098 47s-11.167 28.833 -19.5 40.5s-19 21 -32 28s-28.5 10.5 -46.5 10.5s-34.333 -5.16699 -49 -15.5s-27.167 -24.5 -37.5 -42.5s-18.333 -39 -24 -63s-8.5 -49.667 -8.5 -77c0 -24.667 3.16699 -48.334 9.5 -71.001
s15.666 -42.667 27.999 -60s27.5 -31.166 45.5 -41.499s39 -15.5 63 -15.5c20.667 0 40.334 4.66699 59.001 14s35 19.833 49 31.5s25.5 22.667 34.5 33s14.5 16.833 16.5 19.5zM233.996 845c0 11.333 2.33301 23 7 35s11.5 23 20.5 33s20.333 18.167 34 24.5
s29.167 9.5 46.5 9.5s32.833 -3.16699 46.5 -9.5s25.167 -14.5 34.5 -24.5s16.5 -21 21.5 -33s7.5 -23.667 7.5 -35c0 -28 -9.33301 -51.833 -28 -71.5s-46 -29.5 -82 -29.5c-16 0 -30.5 3 -43.5 9s-24.333 13.833 -34 23.5s-17.167 20.5 -22.5 32.5s-8 24 -8 36z" />
    <glyph glyph-name="cdotaccent" unicode="&#x10b;" horiz-adv-x="531" 
d="M360 274c-0.666992 12 -2.16797 24.1709 -4.50098 36.5039s-5.83301 23.666 -10.5 33.999s-11 18.666 -19 24.999s-17.667 9.5 -29 9.5c-14.667 0 -27.5 -3.66699 -38.5 -11s-20.167 -17 -27.5 -29s-12.833 -25.667 -16.5 -41s-5.5 -31 -5.5 -47
c0 -34 9.33301 -62.167 28 -84.5s44.667 -33.5 78 -33.5c25.333 0 47.333 5.16699 66 15.5s36 24.166 52 41.499l88 -102c-12 -12.667 -26.333 -25.167 -43 -37.5s-35.5 -23.166 -56.5 -32.499s-43.833 -17 -68.5 -23s-50.334 -9 -77.001 -9
c-36.667 0 -71.667 5.5 -105 16.5s-62.5 27.667 -87.5 50s-45 50.166 -60 83.499s-22.5 72.333 -22.5 117c0 44 6.83301 82.167 20.5 114.5s31.834 59 54.501 80s48.834 36.5 78.501 46.5s60.5 15 92.5 15c16.667 0 31.834 -2 45.501 -6s25.667 -9 36 -15
s19.166 -12.333 26.499 -19s13 -12.334 17 -17.001l17 48h118v-226h-147zM155.999 646.004c0 11.333 2.33301 23 7 35s11.5 23 20.5 33s20.333 18.167 34 24.5s29.167 9.5 46.5 9.5s32.833 -3.16699 46.5 -9.5s25.167 -14.5 34.5 -24.5s16.5 -21 21.5 -33
s7.5 -23.667 7.5 -35c0 -28 -9.33301 -51.833 -28 -71.5s-46 -29.5 -82 -29.5c-16 0 -30.5 3 -43.5 9s-24.333 13.833 -34 23.5s-17.167 20.5 -22.5 32.5s-8 24 -8 36z" />
    <glyph glyph-name="Ccaron" unicode="&#x10c;" horiz-adv-x="686" 
d="M671 125c-17.333 -18.667 -36.6699 -36.5 -58.0029 -53.5s-44.666 -32 -69.999 -45s-52.666 -23.333 -81.999 -31s-60.333 -11.5 -93 -11.5c-53.333 0 -101.666 8.16699 -144.999 24.5s-80.333 40 -111 71s-54.5 68.667 -71.5 113s-25.5 94.5 -25.5 150.5
c0 57.333 9.66699 108.833 29 154.5s44 84.334 74 116.001s62.833 55.834 98.5 72.501s69.834 25 102.501 25c24.667 0 46.167 -3 64.5 -9s33.833 -12.833 46.5 -20.5s22.5 -15.334 29.5 -23.001s11.5 -12.834 13.5 -15.501l23 56h157v-284h-179
c-0.666992 16 -3.33398 31.667 -8.00098 47s-11.167 28.833 -19.5 40.5s-19 21 -32 28s-28.5 10.5 -46.5 10.5s-34.333 -5.16699 -49 -15.5s-27.167 -24.5 -37.5 -42.5s-18.333 -39 -24 -63s-8.5 -49.667 -8.5 -77c0 -24.667 3.16699 -48.334 9.5 -71.001
s15.666 -42.667 27.999 -60s27.5 -31.166 45.5 -41.499s39 -15.5 63 -15.5c20.667 0 40.334 4.66699 59.001 14s35 19.833 49 31.5s25.5 22.667 34.5 33s14.5 16.833 16.5 19.5zM208.996 939l139 -70l135 70l50 -93l-191 -119l-189 119z" />
    <glyph glyph-name="ccaron" unicode="&#x10d;" horiz-adv-x="531" 
d="M360 274c-0.666992 12 -2.16797 24.1709 -4.50098 36.5039s-5.83301 23.666 -10.5 33.999s-11 18.666 -19 24.999s-17.667 9.5 -29 9.5c-14.667 0 -27.5 -3.66699 -38.5 -11s-20.167 -17 -27.5 -29s-12.833 -25.667 -16.5 -41s-5.5 -31 -5.5 -47
c0 -34 9.33301 -62.167 28 -84.5s44.667 -33.5 78 -33.5c25.333 0 47.333 5.16699 66 15.5s36 24.166 52 41.499l88 -102c-12 -12.667 -26.333 -25.167 -43 -37.5s-35.5 -23.166 -56.5 -32.499s-43.833 -17 -68.5 -23s-50.334 -9 -77.001 -9
c-36.667 0 -71.667 5.5 -105 16.5s-62.5 27.667 -87.5 50s-45 50.166 -60 83.499s-22.5 72.333 -22.5 117c0 44 6.83301 82.167 20.5 114.5s31.834 59 54.501 80s48.834 36.5 78.501 46.5s60.5 15 92.5 15c16.667 0 31.834 -2 45.501 -6s25.667 -9 36 -15
s19.166 -12.333 26.499 -19s13 -12.334 17 -17.001l17 48h118v-226h-147zM131.999 740.004l139 -70l135 70l50 -93l-191 -119l-189 119z" />
    <glyph glyph-name="Dcaron" unicode="&#x10e;" horiz-adv-x="720" 
d="M25 0v132.999h62v434h-62v132h305c60.667 0 114.5 -8.83301 161.5 -26.5s86.667 -41.667 119 -72s57 -66.166 74 -107.499s25.5 -86 25.5 -134c0 -114.667 -33 -203.167 -99 -265.5s-161 -93.5 -285 -93.5h-301zM480 358.999c0 26.667 -2.83301 52.502 -8.5 77.502
s-14.5 47.167 -26.5 66.5s-27.5 34.833 -46.5 46.5s-41.833 17.5 -68.5 17.5h-38v-434h38c26.667 0 49.5 6 68.5 18s34.5 28.167 46.5 48.5s20.833 44.166 26.5 71.499s8.5 56.666 8.5 87.999zM226 939.001l139 -70l135 70l50 -93l-191 -119l-189 119z" />
    <glyph glyph-name="dcaron" unicode="&#x10f;" horiz-adv-x="779" 
d="M368 620h-46v130h249v-620h48v-130h-234l-17 37c-3.33301 -3.33301 -8.5 -7.5 -15.5 -12.5s-15.833 -10 -26.5 -15s-23 -9.33301 -37 -13s-29.667 -5.5 -47 -5.5c-35.333 0 -67.333 7.16699 -96 21.5s-53 33.666 -73 57.999s-35.5 52.5 -46.5 84.5
s-16.5 65.333 -16.5 100c0 38.667 6.33301 73.834 19 105.501s29.667 58.5 51 80.5s46 39 74 51s57.333 18 88 18c35.333 0 62.833 -4.83301 82.5 -14.5s34.167 -17.5 43.5 -23.5v148zM606 520c10.667 14 20.167 28.166 28.5 42.499s15.333 29.333 21 45s10 32.5 13 50.5
s4.5 38 4.5 60v17.5c0 5.66699 -0.333008 11.834 -1 18.501l126 -34v-9c0 -45.333 -10 -88.333 -30 -129s-47.333 -77 -82 -109zM225 254.999c0 -15.333 1.66699 -30.334 5 -45.001s8.16602 -27.667 14.499 -39s13.833 -20.666 22.5 -27.999s18.667 -11 30 -11
c18.667 0 35.167 10.333 49.5 31s21.5 49 21.5 85c0 18.667 -1.66699 36 -5 52s-8.16602 30 -14.499 42s-14 21.333 -23 28s-18.833 10 -29.5 10c-21.333 0 -38.5 -11.333 -51.5 -34s-19.5 -53 -19.5 -91z" />
    <glyph glyph-name="Dcroat" unicode="&#x110;" horiz-adv-x="720" 
d="M19 388l68 -0.000976562v179h-62v132h305c60.667 0 114.5 -8.83301 161.5 -26.5s86.667 -41.667 119 -72s57 -66.166 74 -107.499s25.5 -86 25.5 -134c0 -114.667 -33 -203.167 -99 -265.5s-161 -93.5 -285 -93.5h-301v133h62v167h-68v88zM480 358.999
c0 26.667 -2.83301 52.502 -8.5 77.502s-14.5 47.167 -26.5 66.5s-27.5 34.833 -46.5 46.5s-41.833 17.5 -68.5 17.5h-38v-179h62v-88h-62v-167h38c26.667 0 49.5 6 68.5 18s34.5 28.167 46.5 48.5s20.833 44.166 26.5 71.499s8.5 56.666 8.5 87.999z" />
    <glyph glyph-name="dcroat" unicode="&#x111;" horiz-adv-x="634" 
d="M267 593h101v27h-46v130h249v-157h78v-65h-78v-398h48v-130h-234l-17 37c-3.33301 -3.33301 -8.5 -7.5 -15.5 -12.5s-15.833 -10 -26.5 -15s-23 -9.33301 -37 -13s-29.667 -5.5 -47 -5.5c-35.333 0 -67.333 7.16699 -96 21.5s-53 33.666 -73 57.999
s-35.5 52.5 -46.5 84.5s-16.5 65.333 -16.5 100c0 38.667 6.33301 73.834 19 105.501s29.667 58.5 51 80.5s46 39 74 51s57.333 18 88 18c35.333 0 62.833 -4.83301 82.5 -14.5s34.167 -17.5 43.5 -23.5v56h-101v65zM225 255c0 -15.333 1.66699 -30.334 5 -45.001
s8.16602 -27.667 14.499 -39s13.833 -20.666 22.5 -27.999s18.667 -11 30 -11c18.667 0 35.167 10.333 49.5 31s21.5 49 21.5 85c0 18.667 -1.66699 36 -5 52s-8.16602 30 -14.499 42s-14 21.333 -23 28s-18.833 10 -29.5 10c-21.333 0 -38.5 -11.333 -51.5 -34
s-19.5 -53 -19.5 -91z" />
    <glyph glyph-name="Emacron" unicode="&#x112;" horiz-adv-x="653" 
d="M25 699h603v-221h-173v89h-160v-138h190v-133h-190v-163h160v93h173v-226h-603v133h63v434h-63v132zM47 897h558v-133h-558v133z" />
    <glyph glyph-name="emacron" unicode="&#x113;" horiz-adv-x="542" 
d="M527 69c-37.333 -32 -76.667 -54.499 -118 -67.499s-88 -19.5 -140 -19.5c-31.333 0 -62.666 5.16699 -93.999 15.5s-59.5 26.333 -84.5 48s-45.5 49.667 -61.5 84s-24 75.5 -24 123.5c0 40.667 7 77.167 21 109.5s33 59.833 57 82.5s52.333 39.834 85 51.501
s68 17.5 106 17.5c41.333 0 77.833 -6 109.5 -18s58.167 -28.667 79.5 -50s37.333 -46.5 48 -75.5s16 -60.5 16 -94.5c0 -13.333 -1 -26.5 -3 -39.5s-5 -25.167 -9 -36.5h-315c1.33301 -6.66699 3.5 -14.667 6.5 -24s8.16699 -18.333 15.5 -27s17.333 -16 30 -22
s29.667 -9 51 -9c8.66699 0 18.167 0.333008 28.5 1s21.5 2.66699 33.5 6s24.667 8.16602 38 14.499s26.666 15.166 39.999 26.499zM279.999 379.001c-15.333 0 -27.832 -3.00293 -37.499 -9.00293s-17.334 -13.167 -23.001 -21.5s-9.66699 -17.166 -12 -26.499
s-3.83301 -17 -4.5 -23h151c0 9.33301 -1 18.833 -3 28.5s-5.5 18.334 -10.5 26.001s-12.333 13.834 -22 18.501s-22.5 7 -38.5 7zM31 694.998h483v-130h-483v130z" />
    <glyph glyph-name="Ebreve" unicode="&#x114;" horiz-adv-x="653" 
d="M25 699h603v-221h-173v89h-160v-138h190v-133h-190v-163h160v93h173v-226h-603v133h63v434h-63v132zM533 919c-3.33301 -26.667 -10.832 -50.335 -22.499 -71.002s-26.5 -38 -44.5 -52s-38.833 -24.667 -62.5 -32s-48.5 -11 -74.5 -11c-24 0 -47.667 3.33301 -71 10
s-44.333 16.834 -63 30.501s-34.5 30.834 -47.5 51.501s-21.5 44.667 -25.5 72h155c3.33301 -21.333 9.66602 -38 18.999 -50s20.333 -18 33 -18c13.333 0 24 6.5 32 19.5s13.667 29.5 17 49.5z" />
    <glyph glyph-name="ebreve" unicode="&#x115;" horiz-adv-x="542" 
d="M527 69c-37.333 -32 -76.667 -54.499 -118 -67.499s-88 -19.5 -140 -19.5c-31.333 0 -62.666 5.16699 -93.999 15.5s-59.5 26.333 -84.5 48s-45.5 49.667 -61.5 84s-24 75.5 -24 123.5c0 40.667 7 77.167 21 109.5s33 59.833 57 82.5s52.333 39.834 85 51.501
s68 17.5 106 17.5c41.333 0 77.833 -6 109.5 -18s58.167 -28.667 79.5 -50s37.333 -46.5 48 -75.5s16 -60.5 16 -94.5c0 -13.333 -1 -26.5 -3 -39.5s-5 -25.167 -9 -36.5h-315c1.33301 -6.66699 3.5 -14.667 6.5 -24s8.16699 -18.333 15.5 -27s17.333 -16 30 -22
s29.667 -9 51 -9c8.66699 0 18.167 0.333008 28.5 1s21.5 2.66699 33.5 6s24.667 8.16602 38 14.499s26.666 15.166 39.999 26.499zM279.999 379.001c-15.333 0 -27.832 -3.00293 -37.499 -9.00293s-17.334 -13.167 -23.001 -21.5s-9.66699 -17.166 -12 -26.499
s-3.83301 -17 -4.5 -23h151c0 9.33301 -1 18.833 -3 28.5s-5.5 18.334 -10.5 26.001s-12.333 13.834 -22 18.501s-22.5 7 -38.5 7zM497 713.998c-3.33301 -26.667 -10.832 -50.335 -22.499 -71.002s-26.5 -38 -44.5 -52s-38.833 -24.667 -62.5 -32s-48.5 -11 -74.5 -11
c-24 0 -47.667 3.33301 -71 10s-44.333 16.834 -63 30.501s-34.5 30.834 -47.5 51.501s-21.5 44.667 -25.5 72h155c3.33301 -21.333 9.66602 -38 18.999 -50s20.333 -18 33 -18c13.333 0 24 6.5 32 19.5s13.667 29.5 17 49.5z" />
    <glyph glyph-name="Edotaccent" unicode="&#x116;" horiz-adv-x="653" 
d="M25 699h603v-221h-173v89h-160v-138h190v-133h-190v-163h160v93h173v-226h-603v133h63v434h-63v132zM217 845c0 11.333 2.33301 23 7 35s11.5 23 20.5 33s20.333 18.167 34 24.5s29.167 9.5 46.5 9.5s32.833 -3.16699 46.5 -9.5s25.167 -14.5 34.5 -24.5
s16.5 -21 21.5 -33s7.5 -23.667 7.5 -35c0 -28 -9.33301 -51.833 -28 -71.5s-46 -29.5 -82 -29.5c-16 0 -30.5 3 -43.5 9s-24.333 13.833 -34 23.5s-17.167 20.5 -22.5 32.5s-8 24 -8 36z" />
    <glyph glyph-name="edotaccent" unicode="&#x117;" horiz-adv-x="542" 
d="M527 69c-37.333 -32 -76.667 -54.499 -118 -67.499s-88 -19.5 -140 -19.5c-31.333 0 -62.666 5.16699 -93.999 15.5s-59.5 26.333 -84.5 48s-45.5 49.667 -61.5 84s-24 75.5 -24 123.5c0 40.667 7 77.167 21 109.5s33 59.833 57 82.5s52.333 39.834 85 51.501
s68 17.5 106 17.5c41.333 0 77.833 -6 109.5 -18s58.167 -28.667 79.5 -50s37.333 -46.5 48 -75.5s16 -60.5 16 -94.5c0 -13.333 -1 -26.5 -3 -39.5s-5 -25.167 -9 -36.5h-315c1.33301 -6.66699 3.5 -14.667 6.5 -24s8.16699 -18.333 15.5 -27s17.333 -16 30 -22
s29.667 -9 51 -9c8.66699 0 18.167 0.333008 28.5 1s21.5 2.66699 33.5 6s24.667 8.16602 38 14.499s26.666 15.166 39.999 26.499zM279.999 379.001c-15.333 0 -27.832 -3.00293 -37.499 -9.00293s-17.334 -13.167 -23.001 -21.5s-9.66699 -17.166 -12 -26.499
s-3.83301 -17 -4.5 -23h151c0 9.33301 -1 18.833 -3 28.5s-5.5 18.334 -10.5 26.001s-12.333 13.834 -22 18.501s-22.5 7 -38.5 7zM162 645.998c0 11.333 2.33301 23 7 35s11.5 23 20.5 33s20.333 18.167 34 24.5s29.167 9.5 46.5 9.5s32.833 -3.16699 46.5 -9.5
s25.167 -14.5 34.5 -24.5s16.5 -21 21.5 -33s7.5 -23.667 7.5 -35c0 -28 -9.33301 -51.833 -28 -71.5s-46 -29.5 -82 -29.5c-16 0 -30.5 3 -43.5 9s-24.333 13.833 -34 23.5s-17.167 20.5 -22.5 32.5s-8 24 -8 36z" />
    <glyph glyph-name="Eogonek" unicode="&#x118;" horiz-adv-x="653" 
d="M25 699l603.001 0.000976562v-221h-173v89h-160v-138h190v-133h-190v-163h160v93h173v-226h-114l-19 -11c-13.333 -7.33301 -23.166 -17.5 -29.499 -30.5s-9.5 -25.5 -9.5 -37.5c0 -14 5.66699 -25.667 17 -35s23 -14 35 -14c14.667 0 33.167 3.16699 55.5 9.5
s43.833 13.166 64.5 20.499v-143c-15.333 -6.66699 -34.333 -12.5 -57 -17.5s-49.667 -7.5 -81 -7.5c-22.667 0 -44.334 2.16699 -65.001 6.5s-39 12.5 -55 24.5s-28.667 28.5 -38 49.5s-14 48.5 -14 82.5c0 26 3.66699 47 11 63s14.666 29.333 21.999 40h-326v133h63v434
h-63v132z" />
    <glyph glyph-name="eogonek" unicode="&#x119;" horiz-adv-x="542" 
d="M527 69c-28 -24 -56.8291 -42.499 -86.4961 -55.499s-61.834 -21.833 -96.501 -26.5c-12 -8 -20.833 -18.167 -26.5 -30.5s-8.5 -24.166 -8.5 -35.499c0 -14 5.66699 -25.667 17 -35s23 -14 35 -14c14.667 0 33.167 3.16699 55.5 9.5s43.833 13.166 64.5 20.499v-143
c-15.333 -6.66699 -34.333 -12.5 -57 -17.5s-49.667 -7.5 -81 -7.5c-22.667 0 -44.334 2.16699 -65.001 6.5s-39 12.5 -55 24.5s-28.667 28.5 -38 49.5s-14 48.5 -14 82.5c0 21.333 2.66699 39.833 8 55.5s11.666 28.167 18.999 37.5v1
c-25.333 6 -49.666 15.833 -72.999 29.5s-43.833 31.167 -61.5 52.5s-31.834 46.833 -42.501 76.5s-16 64.167 -16 103.5c0 40.667 7 77.167 21 109.5s33 59.833 57 82.5s52.333 39.834 85 51.501s68 17.5 106 17.5c41.333 0 77.833 -6 109.5 -18s58.167 -28.667 79.5 -50
s37.333 -46.5 48 -75.5s16 -60.5 16 -94.5c0 -13.333 -1 -26.5 -3 -39.5s-5 -25.167 -9 -36.5h-315c1.33301 -6.66699 3.5 -14.667 6.5 -24s8.16699 -18.333 15.5 -27s17.333 -16 30 -22s29.667 -9 51 -9c8.66699 0 18.167 0.333008 28.5 1s21.5 2.66699 33.5 6
s24.667 8.16602 38 14.499s26.666 15.166 39.999 26.499zM280.004 379.001c-15.333 0 -27.832 -3.00293 -37.499 -9.00293s-17.334 -13.167 -23.001 -21.5s-9.66699 -17.166 -12 -26.499s-3.83301 -17 -4.5 -23h151c0 9.33301 -1 18.833 -3 28.5s-5.5 18.334 -10.5 26.001
s-12.333 13.834 -22 18.501s-22.5 7 -38.5 7z" />
    <glyph glyph-name="Ecaron" unicode="&#x11a;" horiz-adv-x="653" 
d="M25 699h603v-221h-173v89h-160v-138h190v-133h-190v-163h160v93h173v-226h-603v133h63v434h-63v132zM192 939l139 -70l135 70l50 -93l-191 -119l-189 119z" />
    <glyph glyph-name="ecaron" unicode="&#x11b;" horiz-adv-x="542" 
d="M527 69c-37.333 -32 -76.667 -54.499 -118 -67.499s-88 -19.5 -140 -19.5c-31.333 0 -62.666 5.16699 -93.999 15.5s-59.5 26.333 -84.5 48s-45.5 49.667 -61.5 84s-24 75.5 -24 123.5c0 40.667 7 77.167 21 109.5s33 59.833 57 82.5s52.333 39.834 85 51.501
s68 17.5 106 17.5c41.333 0 77.833 -6 109.5 -18s58.167 -28.667 79.5 -50s37.333 -46.5 48 -75.5s16 -60.5 16 -94.5c0 -13.333 -1 -26.5 -3 -39.5s-5 -25.167 -9 -36.5h-315c1.33301 -6.66699 3.5 -14.667 6.5 -24s8.16699 -18.333 15.5 -27s17.333 -16 30 -22
s29.667 -9 51 -9c8.66699 0 18.167 0.333008 28.5 1s21.5 2.66699 33.5 6s24.667 8.16602 38 14.499s26.666 15.166 39.999 26.499zM279.999 379.001c-15.333 0 -27.832 -3.00293 -37.499 -9.00293s-17.334 -13.167 -23.001 -21.5s-9.66699 -17.166 -12 -26.499
s-3.83301 -17 -4.5 -23h151c0 9.33301 -1 18.833 -3 28.5s-5.5 18.334 -10.5 26.001s-12.333 13.834 -22 18.501s-22.5 7 -38.5 7zM137 739.998l139 -70l135 70l50 -93l-191 -119l-189 119z" />
    <glyph glyph-name="Gcircumflex" unicode="&#x11c;" horiz-adv-x="776" 
d="M490 63c-11.333 -18.667 -31.332 -35.3359 -59.999 -50.0029s-62.334 -22 -101.001 -22c-44 0 -85 8.16699 -123 24.5s-71.167 39.833 -99.5 70.5s-50.666 67.667 -66.999 111s-24.5 92 -24.5 146c0 54.667 8.66699 104.5 26 149.5s40.333 83.667 69 116
s61.334 57.5 98.001 75.5s74.667 27 114 27c36 0 65.667 -3.66699 89 -11s42.166 -15.666 56.499 -24.999s25.166 -18.666 32.499 -27.999s13 -16 17 -20l21 72h149v-295h-179c-0.666992 20 -4.16699 38 -10.5 54s-14.833 29.333 -25.5 40s-22.667 18.834 -36 24.501
s-27.333 8.5 -42 8.5c-20 0 -38.5 -5.16699 -55.5 -15.5s-31.5 -24 -43.5 -41s-21.333 -37 -28 -60s-10 -46.833 -10 -71.5c0 -25.333 3 -49.166 9 -71.499s14.833 -41.833 26.5 -58.5s26 -29.834 43 -39.501s36.5 -14.5 58.5 -14.5c28.667 0 50 4.83301 64 14.5
s24.667 21.167 32 34.5v42h-61v107h332v-107h-40v-250h-200zM522.001 744.998l-139 70l-135 -70l-50 93l191 119l189 -119z" />
    <glyph glyph-name="gcircumflex" unicode="&#x11d;" horiz-adv-x="640" 
d="M77 -6c6 -5.33301 14.8369 -11.499 26.5039 -18.499s25.167 -14 40.5 -21s32.166 -12.833 50.499 -17.5s37.166 -7 56.499 -7c22.667 0 41.334 3 56.001 9s26.5 13.5 35.5 22.5s15.333 19 19 30s5.5 21.833 5.5 32.5v34c-3.33301 -4.66699 -8.33301 -10.167 -15 -16.5
s-14.834 -12.333 -24.501 -18s-21 -10.5 -34 -14.5s-27.5 -6 -43.5 -6c-43.333 0 -80.166 7.16699 -110.499 21.5s-55 33.166 -74 56.499s-33 50 -42 80s-13.5 60.667 -13.5 92c0 38.667 5.33301 73.834 16 105.501s26.5 58.667 47.5 81s47.167 39.666 78.5 51.999
s67.666 18.5 108.999 18.5c22 0 42.667 -4.33301 62 -13s34 -18 44 -28l20 31h238v-131h-60v-299c0 -41.333 -6.33301 -78.833 -19 -112.5s-32 -62.5 -58 -86.5s-58.5 -42.667 -97.5 -56s-84.833 -20 -137.5 -20c-27.333 0 -52.833 3 -76.5 9s-45.334 13.5 -65.001 22.5
s-36.834 18.5 -51.501 28.5s-26.667 19.333 -36 28zM223.004 255.001c0 -15.333 1.66699 -30.334 5 -45.001s8.16602 -27.667 14.499 -39s13.833 -20.666 22.5 -27.999s18.667 -11 30 -11c18.667 0 35.167 10.333 49.5 31s21.5 49 21.5 85c0 18.667 -1.66699 36 -5 52
s-8.16602 30 -14.499 42s-14 21.333 -23 28s-18.833 10 -29.5 10c-21.333 0 -38.5 -11.333 -51.5 -34s-19.5 -53 -19.5 -91zM454.004 546l-139 70l-135 -70l-50 93l191 119l189 -119z" />
    <glyph glyph-name="Gbreve" unicode="&#x11e;" horiz-adv-x="776" 
d="M490 63c-11.333 -18.667 -31.332 -35.3359 -59.999 -50.0029s-62.334 -22 -101.001 -22c-44 0 -85 8.16699 -123 24.5s-71.167 39.833 -99.5 70.5s-50.666 67.667 -66.999 111s-24.5 92 -24.5 146c0 54.667 8.66699 104.5 26 149.5s40.333 83.667 69 116
s61.334 57.5 98.001 75.5s74.667 27 114 27c36 0 65.667 -3.66699 89 -11s42.166 -15.666 56.499 -24.999s25.166 -18.666 32.499 -27.999s13 -16 17 -20l21 72h149v-295h-179c-0.666992 20 -4.16699 38 -10.5 54s-14.833 29.333 -25.5 40s-22.667 18.834 -36 24.501
s-27.333 8.5 -42 8.5c-20 0 -38.5 -5.16699 -55.5 -15.5s-31.5 -24 -43.5 -41s-21.333 -37 -28 -60s-10 -46.833 -10 -71.5c0 -25.333 3 -49.166 9 -71.499s14.833 -41.833 26.5 -58.5s26 -29.834 43 -39.501s36.5 -14.5 58.5 -14.5c28.667 0 50 4.83301 64 14.5
s24.667 21.167 32 34.5v42h-61v107h332v-107h-40v-250h-200zM593.001 941.998c-3.33301 -26.667 -10.832 -50.335 -22.499 -71.002s-26.5 -38 -44.5 -52s-38.833 -24.667 -62.5 -32s-48.5 -11 -74.5 -11c-24 0 -47.667 3.33301 -71 10s-44.333 16.834 -63 30.501
s-34.5 30.834 -47.5 51.501s-21.5 44.667 -25.5 72h155c3.33301 -21.333 9.66602 -38 18.999 -50s20.333 -18 33 -18c13.333 0 24 6.5 32 19.5s13.667 29.5 17 49.5z" />
    <glyph glyph-name="gbreve" unicode="&#x11f;" horiz-adv-x="640" 
d="M77 -6c6 -5.33301 14.8369 -11.499 26.5039 -18.499s25.167 -14 40.5 -21s32.166 -12.833 50.499 -17.5s37.166 -7 56.499 -7c22.667 0 41.334 3 56.001 9s26.5 13.5 35.5 22.5s15.333 19 19 30s5.5 21.833 5.5 32.5v34c-3.33301 -4.66699 -8.33301 -10.167 -15 -16.5
s-14.834 -12.333 -24.501 -18s-21 -10.5 -34 -14.5s-27.5 -6 -43.5 -6c-43.333 0 -80.166 7.16699 -110.499 21.5s-55 33.166 -74 56.499s-33 50 -42 80s-13.5 60.667 -13.5 92c0 38.667 5.33301 73.834 16 105.501s26.5 58.667 47.5 81s47.167 39.666 78.5 51.999
s67.666 18.5 108.999 18.5c22 0 42.667 -4.33301 62 -13s34 -18 44 -28l20 31h238v-131h-60v-299c0 -41.333 -6.33301 -78.833 -19 -112.5s-32 -62.5 -58 -86.5s-58.5 -42.667 -97.5 -56s-84.833 -20 -137.5 -20c-27.333 0 -52.833 3 -76.5 9s-45.334 13.5 -65.001 22.5
s-36.834 18.5 -51.501 28.5s-26.667 19.333 -36 28zM223.004 255.001c0 -15.333 1.66699 -30.334 5 -45.001s8.16602 -27.667 14.499 -39s13.833 -20.666 22.5 -27.999s18.667 -11 30 -11c18.667 0 35.167 10.333 49.5 31s21.5 49 21.5 85c0 18.667 -1.66699 36 -5 52
s-8.16602 30 -14.499 42s-14 21.333 -23 28s-18.833 10 -29.5 10c-21.333 0 -38.5 -11.333 -51.5 -34s-19.5 -53 -19.5 -91zM525.004 743c-3.33301 -26.667 -10.832 -50.335 -22.499 -71.002s-26.5 -38 -44.5 -52s-38.833 -24.667 -62.5 -32s-48.5 -11 -74.5 -11
c-24 0 -47.667 3.33301 -71 10s-44.333 16.834 -63 30.501s-34.5 30.834 -47.5 51.501s-21.5 44.667 -25.5 72h155c3.33301 -21.333 9.66602 -38 18.999 -50s20.333 -18 33 -18c13.333 0 24 6.5 32 19.5s13.667 29.5 17 49.5z" />
    <glyph glyph-name="Gdotaccent" unicode="&#x120;" horiz-adv-x="776" 
d="M490 63c-11.333 -18.667 -31.332 -35.3359 -59.999 -50.0029s-62.334 -22 -101.001 -22c-44 0 -85 8.16699 -123 24.5s-71.167 39.833 -99.5 70.5s-50.666 67.667 -66.999 111s-24.5 92 -24.5 146c0 54.667 8.66699 104.5 26 149.5s40.333 83.667 69 116
s61.334 57.5 98.001 75.5s74.667 27 114 27c36 0 65.667 -3.66699 89 -11s42.166 -15.666 56.499 -24.999s25.166 -18.666 32.499 -27.999s13 -16 17 -20l21 72h149v-295h-179c-0.666992 20 -4.16699 38 -10.5 54s-14.833 29.333 -25.5 40s-22.667 18.834 -36 24.501
s-27.333 8.5 -42 8.5c-20 0 -38.5 -5.16699 -55.5 -15.5s-31.5 -24 -43.5 -41s-21.333 -37 -28 -60s-10 -46.833 -10 -71.5c0 -25.333 3 -49.166 9 -71.499s14.833 -41.833 26.5 -58.5s26 -29.834 43 -39.501s36.5 -14.5 58.5 -14.5c28.667 0 50 4.83301 64 14.5
s24.667 21.167 32 34.5v42h-61v107h332v-107h-40v-250h-200zM279.001 844.998c0 11.333 2.33301 23 7 35s11.5 23 20.5 33s20.333 18.167 34 24.5s29.167 9.5 46.5 9.5s32.833 -3.16699 46.5 -9.5s25.167 -14.5 34.5 -24.5s16.5 -21 21.5 -33s7.5 -23.667 7.5 -35
c0 -28 -9.33301 -51.833 -28 -71.5s-46 -29.5 -82 -29.5c-16 0 -30.5 3 -43.5 9s-24.333 13.833 -34 23.5s-17.167 20.5 -22.5 32.5s-8 24 -8 36z" />
    <glyph glyph-name="gdotaccent" unicode="&#x121;" horiz-adv-x="640" 
d="M77 -6c6 -5.33301 14.8369 -11.499 26.5039 -18.499s25.167 -14 40.5 -21s32.166 -12.833 50.499 -17.5s37.166 -7 56.499 -7c22.667 0 41.334 3 56.001 9s26.5 13.5 35.5 22.5s15.333 19 19 30s5.5 21.833 5.5 32.5v34c-3.33301 -4.66699 -8.33301 -10.167 -15 -16.5
s-14.834 -12.333 -24.501 -18s-21 -10.5 -34 -14.5s-27.5 -6 -43.5 -6c-43.333 0 -80.166 7.16699 -110.499 21.5s-55 33.166 -74 56.499s-33 50 -42 80s-13.5 60.667 -13.5 92c0 38.667 5.33301 73.834 16 105.501s26.5 58.667 47.5 81s47.167 39.666 78.5 51.999
s67.666 18.5 108.999 18.5c22 0 42.667 -4.33301 62 -13s34 -18 44 -28l20 31h238v-131h-60v-299c0 -41.333 -6.33301 -78.833 -19 -112.5s-32 -62.5 -58 -86.5s-58.5 -42.667 -97.5 -56s-84.833 -20 -137.5 -20c-27.333 0 -52.833 3 -76.5 9s-45.334 13.5 -65.001 22.5
s-36.834 18.5 -51.501 28.5s-26.667 19.333 -36 28zM223.004 255.001c0 -15.333 1.66699 -30.334 5 -45.001s8.16602 -27.667 14.499 -39s13.833 -20.666 22.5 -27.999s18.667 -11 30 -11c18.667 0 35.167 10.333 49.5 31s21.5 49 21.5 85c0 18.667 -1.66699 36 -5 52
s-8.16602 30 -14.499 42s-14 21.333 -23 28s-18.833 10 -29.5 10c-21.333 0 -38.5 -11.333 -51.5 -34s-19.5 -53 -19.5 -91zM211.004 646c0 11.333 2.33301 23 7 35s11.5 23 20.5 33s20.333 18.167 34 24.5s29.167 9.5 46.5 9.5s32.833 -3.16699 46.5 -9.5
s25.167 -14.5 34.5 -24.5s16.5 -21 21.5 -33s7.5 -23.667 7.5 -35c0 -28 -9.33301 -51.833 -28 -71.5s-46 -29.5 -82 -29.5c-16 0 -30.5 3 -43.5 9s-24.333 13.833 -34 23.5s-17.167 20.5 -22.5 32.5s-8 24 -8 36z" />
    <glyph glyph-name="Gcommaaccent" unicode="&#x122;" horiz-adv-x="776" 
d="M490 63c-11.333 -18.667 -31.332 -35.3359 -59.999 -50.0029s-62.334 -22 -101.001 -22c-44 0 -85 8.16699 -123 24.5s-71.167 39.833 -99.5 70.5s-50.666 67.667 -66.999 111s-24.5 92 -24.5 146c0 54.667 8.66699 104.5 26 149.5s40.333 83.667 69 116
s61.334 57.5 98.001 75.5s74.667 27 114 27c36 0 65.667 -3.66699 89 -11s42.166 -15.666 56.499 -24.999s25.166 -18.666 32.499 -27.999s13 -16 17 -20l21 72h149v-295h-179c-0.666992 20 -4.16699 38 -10.5 54s-14.833 29.333 -25.5 40s-22.667 18.834 -36 24.501
s-27.333 8.5 -42 8.5c-20 0 -38.5 -5.16699 -55.5 -15.5s-31.5 -24 -43.5 -41s-21.333 -37 -28 -60s-10 -46.833 -10 -71.5c0 -25.333 3 -49.166 9 -71.499s14.833 -41.833 26.5 -58.5s26 -29.834 43 -39.501s36.5 -14.5 58.5 -14.5c28.667 0 50 4.83301 64 14.5
s24.667 21.167 32 34.5v42h-61v107h332v-107h-40v-250h-200zM279.001 -258.002l28.499 36.001c7.66699 10 13.834 19.667 18.501 29s8 19.166 10 29.499s3 23.166 3 38.499c0 16.667 -1 39 -3 67l158 -3v-12c0 -48.667 -9.66699 -91.667 -29 -129
s-49.333 -73.666 -90 -108.999z" />
    <glyph glyph-name="gcommaaccent" unicode="&#x123;" horiz-adv-x="640" 
d="M77 -6c6 -5.33301 14.8369 -11.499 26.5039 -18.499s25.167 -14 40.5 -21s32.166 -12.833 50.499 -17.5s37.166 -7 56.499 -7c22.667 0 41.334 3 56.001 9s26.5 13.5 35.5 22.5s15.333 19 19 30s5.5 21.833 5.5 32.5v34c-3.33301 -4.66699 -8.33301 -10.167 -15 -16.5
s-14.834 -12.333 -24.501 -18s-21 -10.5 -34 -14.5s-27.5 -6 -43.5 -6c-43.333 0 -80.166 7.16699 -110.499 21.5s-55 33.166 -74 56.499s-33 50 -42 80s-13.5 60.667 -13.5 92c0 38.667 5.33301 73.834 16 105.501s26.5 58.667 47.5 81s47.167 39.666 78.5 51.999
s67.666 18.5 108.999 18.5c22 0 42.667 -4.33301 62 -13s34 -18 44 -28l20 31h238v-131h-60v-299c0 -41.333 -6.33301 -78.833 -19 -112.5s-32 -62.5 -58 -86.5s-58.5 -42.667 -97.5 -56s-84.833 -20 -137.5 -20c-27.333 0 -52.833 3 -76.5 9s-45.334 13.5 -65.001 22.5
s-36.834 18.5 -51.501 28.5s-26.667 19.333 -36 28zM454.004 743.001c-28 -26 -49.167 -53.001 -63.5 -81.001s-21.5 -62.333 -21.5 -103c0 -5.33301 0.166992 -10.666 0.5 -15.999s0.833008 -11 1.5 -17l-161 32v8c0 42 12.833 81.833 38.5 119.5s60.5 71.5 104.5 101.5z
M223.004 255c0 -15.333 1.66699 -30.334 5 -45.001s8.16602 -27.667 14.499 -39s13.833 -20.666 22.5 -27.999s18.667 -11 30 -11c18.667 0 35.167 10.333 49.5 31s21.5 49 21.5 85c0 18.667 -1.66699 36 -5 52s-8.16602 30 -14.499 42s-14 21.333 -23 28
s-18.833 10 -29.5 10c-21.333 0 -38.5 -11.333 -51.5 -34s-19.5 -53 -19.5 -91z" />
    <glyph glyph-name="Hcircumflex" unicode="&#x124;" horiz-adv-x="768" 
d="M25 699h324v-132h-62v-151h190v151h-59v132h325v-132h-58v-435h58v-132h-325v132h59v151h-190v-151h62v-132h-324v132h55v435h-55v132zM518 745l-139 70l-135 -70l-50 93l191 119l189 -119z" />
    <glyph glyph-name="hcircumflex" unicode="&#x125;" horiz-adv-x="661" 
d="M339 0l-313.998 -0.00195312v131h42v489h-42v130h242v-312c2.66699 4.66699 9 11.334 19 20.001s22.167 17.5 36.5 26.5s30.333 16.833 48 23.5s35.5 10 53.5 10c38.667 0 69.5 -6.5 92.5 -19.5s40.667 -30 53 -51s20.333 -44.667 24 -71s5.5 -52.5 5.5 -78.5v-167h47
v-131h-257v272c0 8.66699 -0.333008 18.334 -1 29.001s-2.83398 20.667 -6.50098 30s-9.5 17.333 -17.5 24s-19.333 10 -34 10c-12.667 0 -23.167 -2.83301 -31.5 -8.5s-14.833 -13 -19.5 -22s-7.83398 -19 -9.50098 -30s-2.5 -21.833 -2.5 -32.5v-141h72v-131z
M277.002 778.998l-139 70l-135 -70l-50 93l191 119l189 -119z" />
    <glyph glyph-name="Hbar" unicode="&#x126;" horiz-adv-x="768" 
d="M9 498h71v69h-55v132h324v-132h-62v-69h190v69h-59v132h325v-132h-58v-69h69v-81h-69v-285h58v-132h-325v132h59v93h-190v-93h62v-132h-324v132h55v285h-71v81zM477 358v59h-190v-59h190z" />
    <glyph glyph-name="hbar" unicode="&#x127;" horiz-adv-x="670" 
d="M29 613l47.002 -0.00195312v49h-42v88h242v-137h198v-77h-198v-98c2.66699 4.66699 9 11.334 19 20.001s22.167 17.5 36.5 26.5s30.333 16.833 48 23.5s35.5 10 53.5 10c38.667 0 69.5 -6.5 92.5 -19.5s40.667 -30 53 -51s20.333 -44.667 24 -71s5.5 -52.5 5.5 -78.5
v-167h47v-131h-257v272c0 8.66699 -0.333008 18.334 -1 29.001s-2.83398 20.667 -6.50098 30s-9.5 17.333 -17.5 24s-19.333 10 -34 10c-12.667 0 -23.167 -2.83301 -31.5 -8.5s-14.833 -13 -19.5 -22s-7.83398 -19 -9.50098 -30s-2.5 -21.833 -2.5 -32.5v-141h72v-131h-314
v131h42v405h-47v77z" />
    <glyph glyph-name="Itilde" unicode="&#x128;" horiz-adv-x="382" 
d="M25 699h332v-132h-62v-434h62v-133h-332v133h63v434h-63v132zM377 805c-14.667 -18 -31.6719 -31.667 -51.0049 -41s-43.333 -14 -72 -14c-15.333 0 -28.166 2 -38.499 6s-20.166 8.16699 -29.499 12.5s-19 8.5 -29 12.5s-22.333 6 -37 6c-26.667 0 -50 -10 -70 -30
l-44 100c15.333 19.333 32.333 34 51 44s40.667 15 66 15c16 0 29.333 -1.83301 40 -5.5s20.834 -7.66699 30.501 -12s19.5 -8.33301 29.5 -12s22 -5.5 36 -5.5c14.667 0 28.834 3 42.501 9s23.834 12.667 30.501 20z" />
    <glyph glyph-name="itilde" unicode="&#x129;" horiz-adv-x="330" 
d="M305 0h-280v131h42v239h-42v130h232v-369h48v-131zM351 606c-14.667 -18 -31.6719 -31.667 -51.0049 -41s-43.333 -14 -72 -14c-15.333 0 -28.166 2 -38.499 6s-20.166 8.16699 -29.499 12.5s-19 8.5 -29 12.5s-22.333 6 -37 6c-26.667 0 -50 -10 -70 -30l-44 100
c15.333 19.333 32.333 34 51 44s40.667 15 66 15c16 0 29.333 -1.83301 40 -5.5s20.834 -7.66699 30.501 -12s19.5 -8.33301 29.5 -12s22 -5.5 36 -5.5c14.667 0 28.834 3 42.501 9s23.834 12.667 30.501 20z" />
    <glyph glyph-name="Imacron" unicode="&#x12a;" horiz-adv-x="382" 
d="M25 699h332v-132h-62v-434h62v-133h-332v133h63v434h-63v132zM31 898h326v-135h-326v135z" />
    <glyph glyph-name="imacron" unicode="&#x12b;" horiz-adv-x="330" 
d="M305 0h-280v131h42v239h-42v130h232v-369h48v-131zM6 698h299l19 -133h-318v133z" />
    <glyph glyph-name="Ibreve" unicode="&#x12c;" horiz-adv-x="382" 
d="M25 699h332v-132h-62v-434h62v-133h-332v133h63v434h-63v132zM397 919c-3.33301 -26.667 -10.832 -50.335 -22.499 -71.002s-26.5 -38 -44.5 -52s-38.833 -24.667 -62.5 -32s-48.5 -11 -74.5 -11c-24 0 -47.667 3.33301 -71 10s-44.333 16.834 -63 30.501
s-34.5 30.834 -47.5 51.501s-21.5 44.667 -25.5 72h155c3.33301 -21.333 9.66602 -38 18.999 -50s20.333 -18 33 -18c13.333 0 24 6.5 32 19.5s13.667 29.5 17 49.5z" />
    <glyph glyph-name="ibreve" unicode="&#x12d;" horiz-adv-x="330" 
d="M305 0h-280v131h42v239h-42v130h232v-369h48v-131zM370 743c-3.33301 -26.667 -10.832 -50.335 -22.499 -71.002s-26.5 -38 -44.5 -52s-38.833 -24.667 -62.5 -32s-48.5 -11 -74.5 -11c-24 0 -47.667 3.33301 -71 10s-44.333 16.834 -63 30.501
s-34.5 30.834 -47.5 51.501s-21.5 44.667 -25.5 72h155c3.33301 -21.333 9.66602 -38 18.999 -50s20.333 -18 33 -18c13.333 0 24 6.5 32 19.5s13.667 29.5 17 49.5z" />
    <glyph glyph-name="Iogonek" unicode="&#x12e;" horiz-adv-x="382" 
d="M25 699l332.001 0.000976562v-132h-62v-434h62v-133h-114l-19 -11c-13.333 -7.33301 -23.166 -17.5 -29.499 -30.5s-9.5 -25.5 -9.5 -37.5c0 -14 5.66699 -25.667 17 -35s23 -14 35 -14c14.667 0 33.167 3.16699 55.5 9.5s43.833 13.166 64.5 20.499v-143
c-15.333 -6.66699 -34.333 -12.5 -57 -17.5s-49.667 -7.5 -81 -7.5c-22.667 0 -44.334 2.16699 -65.001 6.5s-39 12.5 -55 24.5s-28.667 28.5 -38 49.5s-14 48.5 -14 82.5c0 26 3.66699 47 11 63s14.666 29.333 21.999 40h-55v133h63v434h-63v132z" />
    <glyph glyph-name="iogonek" unicode="&#x12f;" horiz-adv-x="330" 
d="M305 0l-98.999 0.000976562l-19 -11c-13.333 -7.33301 -23.166 -17.5 -29.499 -30.5s-9.5 -25.5 -9.5 -37.5c0 -14 5.66699 -25.667 17 -35s23 -14 35 -14c14.667 0 33.167 3.16699 55.5 9.5s43.833 13.166 64.5 20.499v-143c-15.333 -6.66699 -34.333 -12.5 -57 -17.5
s-49.667 -7.5 -81 -7.5c-22.667 0 -44.334 2.16699 -65.001 6.5s-39 12.5 -55 24.5s-28.667 28.5 -38 49.5s-14 48.5 -14 82.5c0 26 3.66699 47 11 63s14.666 29.333 21.999 40h-18v131h42v239h-42v130h232v-369h48v-131zM53.001 646.001c0 11.333 2.33301 23 7 35
s11.5 23 20.5 33s20.333 18.167 34 24.5s29.167 9.5 46.5 9.5s32.833 -3.16699 46.5 -9.5s25.167 -14.5 34.5 -24.5s16.5 -21 21.5 -33s7.5 -23.667 7.5 -35c0 -28 -9.33301 -51.833 -28 -71.5s-46 -29.5 -82 -29.5c-16 0 -30.5 3 -43.5 9s-24.333 13.833 -34 23.5
s-17.167 20.5 -22.5 32.5s-8 24 -8 36z" />
    <glyph glyph-name="Idotaccent" unicode="&#x130;" horiz-adv-x="382" 
d="M25 699h332v-132h-62v-434h62v-133h-332v133h63v434h-63v132zM82 845c0 11.333 2.33301 23 7 35s11.5 23 20.5 33s20.333 18.167 34 24.5s29.167 9.5 46.5 9.5s32.833 -3.16699 46.5 -9.5s25.167 -14.5 34.5 -24.5s16.5 -21 21.5 -33s7.5 -23.667 7.5 -35
c0 -28 -9.33301 -51.833 -28 -71.5s-46 -29.5 -82 -29.5c-16 0 -30.5 3 -43.5 9s-24.333 13.833 -34 23.5s-17.167 20.5 -22.5 32.5s-8 24 -8 36z" />
    <glyph glyph-name="dotlessi" unicode="&#x131;" horiz-adv-x="330" 
d="M305 0h-280v131h42v239h-42v130h232v-369h48v-131z" />
    <glyph glyph-name="IJ" unicode="&#x132;" horiz-adv-x="734" 
d="M277 -61c12.667 -6 27.667 -8.99805 45 -8.99805c24.667 0 44.667 10.667 60 32s23 58.666 23 111.999v494h-110v-435h62v-133h-332v133h63v434h-63v132h670v-131h-83v-494c0 -44 -5 -83.333 -15 -118s-26.167 -63.834 -48.5 -87.501s-51.5 -41.667 -87.5 -54
s-79.667 -18.5 -131 -18.5c-9.33301 0 -18.5 1 -27.5 3s-17.167 4.66699 -24.5 8z" />
    <glyph glyph-name="ij" unicode="&#x133;" horiz-adv-x="586" 
d="M305 0h-280v131h42v239h-42v130h232v-369h48v-131zM53 646c0 11.333 2.33301 23 7 35s11.5 23 20.5 33s20.333 18.167 34 24.5s29.167 9.5 46.5 9.5s32.833 -3.16699 46.5 -9.5s25.167 -14.5 34.5 -24.5s16.5 -21 21.5 -33s7.5 -23.667 7.5 -35
c0 -28 -9.33301 -51.833 -28 -71.5s-46 -29.5 -82 -29.5c-16 0 -30.5 3 -43.5 9s-24.333 13.833 -34 23.5s-17.167 20.5 -22.5 32.5s-8 24 -8 36zM341 370l-42.001 -0.000976562v130h232v-430c0 -31.333 -3.33301 -63.333 -10 -96s-20.667 -62.667 -42 -90
s-52 -49.666 -92 -66.999s-93.333 -26 -160 -26v134c28.667 0 50.834 5.33301 66.501 16s27 23.5 34 38.5s11 30.833 12 47.5s1.5 31 1.5 43v300zM326.999 645.999c0 11.333 2.33301 23 7 35s11.5 23 20.5 33s20.333 18.167 34 24.5s29.167 9.5 46.5 9.5
s32.833 -3.16699 46.5 -9.5s25.167 -14.5 34.5 -24.5s16.5 -21 21.5 -33s7.5 -23.667 7.5 -35c0 -28 -9.33301 -51.833 -28 -71.5s-46 -29.5 -82 -29.5c-16 0 -30.5 3 -43.5 9s-24.333 13.833 -34 23.5s-17.167 20.5 -22.5 32.5s-8 24 -8 36z" />
    <glyph glyph-name="Jcircumflex" unicode="&#x134;" horiz-adv-x="463" 
d="M20 -61c12.667 -6 27.667 -8.99805 45 -8.99805c24.667 0 44.667 10.667 60 32s23 58.666 23 111.999v494h-86v131h376v-131h-83v-494c0 -44 -5 -83.333 -15 -118s-26.167 -63.834 -48.5 -87.501s-51.5 -41.667 -87.5 -54s-79.667 -18.5 -131 -18.5
c-9.33301 0 -18.5 1 -27.5 3s-17.167 4.66699 -24.5 8zM389 745.002l-139 70l-135 -70l-50 93l191 119l189 -119z" />
    <glyph glyph-name="jcircumflex" unicode="&#x135;" horiz-adv-x="360" 
d="M128 370l-42.001 -0.000976562v130h232v-430c0 -31.333 -3.33301 -63.333 -10 -96s-20.667 -62.667 -42 -90s-52 -49.666 -92 -66.999s-93.333 -26 -160 -26v134c28.667 0 50.834 5.33301 66.501 16s27 23.5 34 38.5s11 30.833 12 47.5s1.5 31 1.5 43v300z
M338.999 539.999l-139 70l-135 -70l-50 93l191 119l189 -119z" />
    <glyph glyph-name="Kcommaaccent" unicode="&#x136;" horiz-adv-x="815" 
d="M340 570h-54v-163l186 163h-72v129h333v-129h-58l-145 -125l202 -315h58v-130h-390v130h68l-108 170l-74 -63v-107h54v-130h-315v130h54v440h-54v129h315v-129zM298 -258l28.499 36.001c7.66699 10 13.834 19.667 18.501 29s8 19.166 10 29.499s3 23.166 3 38.499
c0 16.667 -1 39 -3 67l158 -3v-12c0 -48.667 -9.66699 -91.667 -29 -129s-49.333 -73.666 -90 -108.999z" />
    <glyph glyph-name="kcommaaccent" unicode="&#x137;" horiz-adv-x="654" 
d="M38 0v130h41v489h-41v131h231v-452l116 69h-72v132h280v-132h-77l-68 -43l135 -193h50v-131h-296v131h42l-76 108l-35 -24v-84h37v-131h-267zM218 -258l28.499 36.001c7.66699 10 13.834 19.667 18.501 29s8 19.166 10 29.499s3 23.166 3 38.499c0 16.667 -1 39 -3 67
l158 -3v-12c0 -48.667 -9.66699 -91.667 -29 -129s-49.333 -73.666 -90 -108.999z" />
    <glyph glyph-name="kgreenlandic" unicode="&#x138;" horiz-adv-x="654" 
d="M38 0v130h41v237h-41v131h231v-200l116 69h-72v132h280v-132h-77l-68 -43l135 -193h50v-131h-296v131h42l-76 108l-35 -24v-84h37v-131h-267z" />
    <glyph glyph-name="Lacute" unicode="&#x139;" horiz-adv-x="610" 
d="M25 699h316v-132h-53v-434h129v127h168v-260h-560v133h55v434h-55v132zM443 900l-151 -142h-125l78 142h198z" />
    <glyph glyph-name="lacute" unicode="&#x13a;" horiz-adv-x="332" 
d="M317 0h-292v131h43v490h-42v129h232v-619h59v-131zM369 924l-151 -142h-125l78 142h198z" />
    <glyph glyph-name="Lcommaaccent" unicode="&#x13b;" horiz-adv-x="610" 
d="M25 699h316v-132h-53v-434h129v127h168v-260h-560v133h55v434h-55v132zM196 -258l28.499 36.001c7.66699 10 13.834 19.667 18.501 29s8 19.166 10 29.499s3 23.166 3 38.499c0 16.667 -1 39 -3 67l158 -3v-12c0 -48.667 -9.66699 -91.667 -29 -129
s-49.333 -73.666 -90 -108.999z" />
    <glyph glyph-name="lcommaaccent" unicode="&#x13c;" horiz-adv-x="332" 
d="M317 0h-292v131h43v490h-42v129h232v-619h59v-131zM57 -258l28.499 36.001c7.66699 10 13.834 19.667 18.501 29s8 19.166 10 29.499s3 23.166 3 38.499c0 16.667 -1 39 -3 67l158 -3v-12c0 -48.667 -9.66699 -91.667 -29 -129s-49.333 -73.666 -90 -108.999z" />
    <glyph glyph-name="Lcaron" unicode="&#x13d;" horiz-adv-x="610" 
d="M25 699h316v-132h-53v-434h129v127h168v-260h-560v133h55v434h-55v132zM333 459c24.667 28.667 43.833 58.5 57.5 89.5s20.5 68.833 20.5 113.5v17c0 6 -0.333008 12.333 -1 19l147 -35c0 -48 -11.333 -93.5 -34 -136.5s-55 -81.5 -97 -115.5z" />
    <glyph glyph-name="lcaron" unicode="&#x13e;" horiz-adv-x="486" 
d="M317 0h-292v131h43v490h-42v129h232v-619h59v-131zM282 527c25.333 26 44.834 53 58.501 81s20.5 62 20.5 102c0 5.33301 -0.166992 10.833 -0.5 16.5s-0.833008 11.834 -1.5 18.501l149 -33c0 -44 -11.333 -85.333 -34 -124s-55.334 -73.334 -98.001 -104.001z" />
    <glyph glyph-name="Ldot" unicode="&#x13f;" horiz-adv-x="610" 
d="M25 699h316v-132h-53v-434h129v127h168v-260h-560v133h55v434h-55v132zM324 415c0 12.667 2.33105 25.5 6.99805 38.5s11.834 25 21.501 36s21.334 20 35.001 27s29.5 10.5 47.5 10.5s34 -3.5 48 -10.5s25.833 -16 35.5 -27s17 -23 22 -36s7.5 -25.833 7.5 -38.5
c0 -30 -9.83301 -55.167 -29.5 -75.5s-47.5 -30.5 -83.5 -30.5c-15.333 0 -29.833 3 -43.5 9s-25.5 14 -35.5 24s-17.833 21.333 -23.5 34s-8.5 25.667 -8.5 39z" />
    <glyph glyph-name="ldot" unicode="&#x140;" horiz-adv-x="539" 
d="M317 0h-292v131h43v490h-42v129h232v-619h59v-131zM291 402c0 12.667 2.33105 25.5 6.99805 38.5s11.834 25 21.501 36s21.334 20 35.001 27s29.5 10.5 47.5 10.5s34 -3.5 48 -10.5s25.833 -16 35.5 -27s17 -23 22 -36s7.5 -25.833 7.5 -38.5
c0 -30 -9.83301 -55.167 -29.5 -75.5s-47.5 -30.5 -83.5 -30.5c-15.333 0 -29.833 3 -43.5 9s-25.5 14 -35.5 24s-17.833 21.333 -23.5 34s-8.5 25.667 -8.5 39z" />
    <glyph glyph-name="Lslash" unicode="&#x141;" horiz-adv-x="610" 
d="M25 699h316v-132h-53v-97l77 31v-133l-77 -31v-204h129v127h168v-260h-560v133h55v121l-57 -23v133l57 23v180h-55v132z" />
    <glyph glyph-name="lslash" unicode="&#x142;" horiz-adv-x="332" 
d="M-22 305l90 53v263h-42v129h232v-278l97 58v-133l-97 -58v-208h59v-131h-292v131h43v94l-90 -53v133z" />
    <glyph glyph-name="Nacute" unicode="&#x143;" horiz-adv-x="816" 
d="M791 570h-66v-570h-215l-255 381v-252h77v-129h-307v129h59v441h-58v129h287l246 -367v238h-69v129h301v-129zM546 900l-151 -142h-125l78 142h198z" />
    <glyph glyph-name="nacute" unicode="&#x144;" horiz-adv-x="647" 
d="M333 0l-308 -0.000976562v131h42v239h-42v130h213l23 -62c17.333 23.333 37.5 42.5 60.5 57.5s50.5 22.5 82.5 22.5c38.667 0 69.834 -6.5 93.501 -19.5s42 -30 55 -51s21.667 -44.667 26 -71s6.5 -52.5 6.5 -78.5v-167h47v-131h-252v273
c0 8.66699 -0.166992 18.334 -0.5 29.001s-2.16602 20.667 -5.49902 30s-8.83301 17.333 -16.5 24s-18.834 10 -33.501 10c-12.667 0 -23.167 -2.83301 -31.5 -8.5s-14.833 -13 -19.5 -22s-7.83398 -19 -9.50098 -30s-2.5 -21.833 -2.5 -32.5v-142h72v-131zM461 700.999
l-128 -142h-148l78 142h198z" />
    <glyph glyph-name="Ncommaaccent" unicode="&#x145;" horiz-adv-x="816" 
d="M791 570h-66v-570h-215l-255 381v-252h77v-129h-307v129h59v441h-58v129h287l246 -367v238h-69v129h301v-129zM299 -258l28.499 36.001c7.66699 10 13.834 19.667 18.501 29s8 19.166 10 29.499s3 23.166 3 38.499c0 16.667 -1 39 -3 67l158 -3v-12
c0 -48.667 -9.66699 -91.667 -29 -129s-49.333 -73.666 -90 -108.999z" />
    <glyph glyph-name="ncommaaccent" unicode="&#x146;" horiz-adv-x="647" 
d="M333 0l-308 -0.000976562v131h42v239h-42v130h213l23 -62c17.333 23.333 37.5 42.5 60.5 57.5s50.5 22.5 82.5 22.5c38.667 0 69.834 -6.5 93.501 -19.5s42 -30 55 -51s21.667 -44.667 26 -71s6.5 -52.5 6.5 -78.5v-167h47v-131h-252v273
c0 8.66699 -0.166992 18.334 -0.5 29.001s-2.16602 20.667 -5.49902 30s-8.83301 17.333 -16.5 24s-18.834 10 -33.501 10c-12.667 0 -23.167 -2.83301 -31.5 -8.5s-14.833 -13 -19.5 -22s-7.83398 -19 -9.50098 -30s-2.5 -21.833 -2.5 -32.5v-142h72v-131zM214 -258.001
l28.499 36.001c7.66699 10 13.834 19.667 18.501 29s8 19.166 10 29.499s3 23.166 3 38.499c0 16.667 -1 39 -3 67l158 -3v-12c0 -48.667 -9.66699 -91.667 -29 -129s-49.333 -73.666 -90 -108.999z" />
    <glyph glyph-name="Ncaron" unicode="&#x147;" horiz-adv-x="816" 
d="M791 570h-66v-570h-215l-255 381v-252h77v-129h-307v129h59v441h-58v129h287l246 -367v238h-69v129h301v-129zM274 939l139 -70l135 70l50 -93l-191 -119l-189 119z" />
    <glyph glyph-name="ncaron" unicode="&#x148;" horiz-adv-x="647" 
d="M333 0l-308 -0.000976562v131h42v239h-42v130h213l23 -62c17.333 23.333 37.5 42.5 60.5 57.5s50.5 22.5 82.5 22.5c38.667 0 69.834 -6.5 93.501 -19.5s42 -30 55 -51s21.667 -44.667 26 -71s6.5 -52.5 6.5 -78.5v-167h47v-131h-252v273
c0 8.66699 -0.166992 18.334 -0.5 29.001s-2.16602 20.667 -5.49902 30s-8.83301 17.333 -16.5 24s-18.834 10 -33.501 10c-12.667 0 -23.167 -2.83301 -31.5 -8.5s-14.833 -13 -19.5 -22s-7.83398 -19 -9.50098 -30s-2.5 -21.833 -2.5 -32.5v-142h72v-131zM156 739.999
l139 -70l135 70l50 -93l-191 -119l-189 119z" />
    <glyph glyph-name="napostrophe" unicode="&#x149;" horiz-adv-x="800" 
d="M486 0l-308 -0.000976562v131h42v239h-42v130h213l23 -62c17.333 23.333 37.5 42.5 60.5 57.5s50.5 22.5 82.5 22.5c38.667 0 69.834 -6.5 93.501 -19.5s42 -30 55 -51s21.667 -44.667 26 -71s6.5 -52.5 6.5 -78.5v-167h47v-131h-252v273
c0 8.66699 -0.166992 18.334 -0.5 29.001s-2.16602 20.667 -5.49902 30s-8.83301 17.333 -16.5 24s-18.834 10 -33.501 10c-12.667 0 -23.167 -2.83301 -31.5 -8.5s-14.833 -13 -19.5 -22s-7.83398 -19 -9.50098 -30s-2.5 -21.833 -2.5 -32.5v-142h72v-131zM-21 457.999
l28.499 36.001c7.66699 10 13.834 19.667 18.501 29s8 19.166 10 29.499s3 23.166 3 38.499c0 16.667 -1 39 -3 67l158 -3v-12c0 -48.667 -9.66699 -91.667 -29 -129s-49.333 -73.666 -90 -108.999z" />
    <glyph glyph-name="Eng" unicode="&#x14a;" horiz-adv-x="816" 
d="M791 570l-66 0.000976562v-496c0 -44 -5 -83.333 -15 -118s-26.167 -63.834 -48.5 -87.501s-51.5 -41.667 -87.5 -54s-79.667 -18.5 -131 -18.5c-9.33301 0 -18.5 1 -27.5 3s-17.167 4.66699 -24.5 8l-1 132c12.667 -6 27.667 -9 45 -9c18 0 33.5 5.33301 46.5 16
s22.833 28.667 29.5 54l-256 381v-252h77v-129h-307v129h59v441h-58v129h287l246 -367v238h-69v129h301v-129z" />
    <glyph glyph-name="eng" unicode="&#x14b;" horiz-adv-x="620" 
d="M252 -61c12.667 -6 27.6689 -9 45.002 -9c23.333 0 42.666 9.5 57.999 28.5s23.666 52.167 24.999 99.5v215c0 8.66699 -0.166992 18.334 -0.5 29.001s-2.16602 20.667 -5.49902 30s-8.83301 17.333 -16.5 24s-18.834 10 -33.501 10
c-12.667 0 -23.167 -2.83301 -31.5 -8.5s-14.833 -13 -19.5 -22s-7.83398 -19 -9.50098 -30s-2.5 -21.833 -2.5 -32.5v-142h72v-131h-308v131h42v239h-42v130h213l23 -62c17.333 23.333 37.5 42.5 60.5 57.5s50.5 22.5 82.5 22.5c38.667 0 69.834 -6.5 93.501 -19.5
s42 -30 55 -51s21.667 -44.667 26 -71s6.5 -52.5 6.5 -78.5l2 -233c0 -44 -5 -82.833 -15 -116.5s-26.167 -61.834 -48.5 -84.501s-51.5 -39.667 -87.5 -51s-79.667 -17 -131 -17c-9.33301 0 -18.5 1 -27.5 3s-17.167 4.66699 -24.5 8z" />
    <glyph glyph-name="Omacron" unicode="&#x14c;" 
d="M373 -18c-52 0 -99.998 7.66699 -143.998 23s-81.833 38.333 -113.5 69s-56.334 69.167 -74.001 115.5s-26.5 100.833 -26.5 163.5c0 54 8.5 103.333 25.5 148s41 83.167 72 115.5s68 57.333 111 75s90.5 26.5 142.5 26.5c61.333 0 114.5 -8.83301 159.5 -26.5
s82.333 -42.667 112 -75s51.667 -71.5 66 -117.5s21.5 -97 21.5 -153c0 -56.667 -7.66699 -107.5 -23 -152.5s-38 -83.167 -68 -114.5s-66.833 -55.333 -110.5 -72s-93.834 -25 -150.501 -25zM373.002 139c16 0 30.1641 5.00098 42.4971 15.001s23 24 32 42
s15.833 39.667 20.5 65s7 53.666 7 84.999c0 30.667 -2.16699 59.167 -6.5 85.5s-11 49.333 -20 69s-20.5 35.167 -34.5 46.5s-30.667 17 -50 17c-15.333 0 -29.166 -5.16699 -41.499 -15.5s-23 -24.833 -32 -43.5s-16 -41 -21 -67s-7.5 -54.333 -7.5 -85
c0 -32.667 2.83301 -62.167 8.5 -88.5s13.334 -48.833 23.001 -67.5s21.334 -33 35.001 -43s28.5 -15 44.5 -15zM90.999 897.001h558v-133h-558v133z" />
    <glyph glyph-name="omacron" unicode="&#x14d;" horiz-adv-x="574" 
d="M290 -13c-36 0 -70.834 5.5 -104.501 16.5s-63.5 27.5 -89.5 49.5s-46.667 49.667 -62 83s-23 72 -23 116c0 42 7.83301 79.167 23.5 111.5s36.334 59.5 62.001 81.5s55 38.667 88 50s66.5 17 100.5 17c39.333 0 76 -6.16699 110 -18.5s63.5 -30 88.5 -53
s44.5 -51 58.5 -84s21 -70.5 21 -112.5c0 -41.333 -7.16699 -77.833 -21.5 -109.5s-33.833 -58.5 -58.5 -80.5s-53.5 -38.667 -86.5 -50s-68.5 -17 -106.5 -17zM289.999 115c10.667 0 20.167 3.33301 28.5 10s15.5 16 21.5 28s10.5 26.167 13.5 42.5s4.5 33.833 4.5 52.5
s-1.66699 36.167 -5 52.5s-8 30.5 -14 42.5s-13.5 21.5 -22.5 28.5s-19.5 10.5 -31.5 10.5c-10 0 -19.167 -3.33301 -27.5 -10s-15.5 -16 -21.5 -28s-10.833 -26 -14.5 -42s-5.5 -33 -5.5 -51c0 -41.333 7 -74.333 21 -99s31.667 -37 53 -37zM7.99902 698h558v-133h-558v133
z" />
    <glyph glyph-name="Obreve" unicode="&#x14e;" 
d="M373 -18c-52 0 -99.998 7.66699 -143.998 23s-81.833 38.333 -113.5 69s-56.334 69.167 -74.001 115.5s-26.5 100.833 -26.5 163.5c0 54 8.5 103.333 25.5 148s41 83.167 72 115.5s68 57.333 111 75s90.5 26.5 142.5 26.5c61.333 0 114.5 -8.83301 159.5 -26.5
s82.333 -42.667 112 -75s51.667 -71.5 66 -117.5s21.5 -97 21.5 -153c0 -56.667 -7.66699 -107.5 -23 -152.5s-38 -83.167 -68 -114.5s-66.833 -55.333 -110.5 -72s-93.834 -25 -150.501 -25zM373.002 139c16 0 30.1641 5.00098 42.4971 15.001s23 24 32 42
s15.833 39.667 20.5 65s7 53.666 7 84.999c0 30.667 -2.16699 59.167 -6.5 85.5s-11 49.333 -20 69s-20.5 35.167 -34.5 46.5s-30.667 17 -50 17c-15.333 0 -29.166 -5.16699 -41.499 -15.5s-23 -24.833 -32 -43.5s-16 -41 -21 -67s-7.5 -54.333 -7.5 -85
c0 -32.667 2.83301 -62.167 8.5 -88.5s13.334 -48.833 23.001 -67.5s21.334 -33 35.001 -43s28.5 -15 44.5 -15zM584.999 919.001c-3.33301 -26.667 -10.832 -50.335 -22.499 -71.002s-26.5 -38 -44.5 -52s-38.833 -24.667 -62.5 -32s-48.5 -11 -74.5 -11
c-24 0 -47.667 3.33301 -71 10s-44.333 16.834 -63 30.501s-34.5 30.834 -47.5 51.501s-21.5 44.667 -25.5 72h155c3.33301 -21.333 9.66602 -38 18.999 -50s20.333 -18 33 -18c13.333 0 24 6.5 32 19.5s13.667 29.5 17 49.5z" />
    <glyph glyph-name="obreve" unicode="&#x14f;" horiz-adv-x="574" 
d="M290 -13c-36 0 -70.834 5.5 -104.501 16.5s-63.5 27.5 -89.5 49.5s-46.667 49.667 -62 83s-23 72 -23 116c0 42 7.83301 79.167 23.5 111.5s36.334 59.5 62.001 81.5s55 38.667 88 50s66.5 17 100.5 17c39.333 0 76 -6.16699 110 -18.5s63.5 -30 88.5 -53
s44.5 -51 58.5 -84s21 -70.5 21 -112.5c0 -41.333 -7.16699 -77.833 -21.5 -109.5s-33.833 -58.5 -58.5 -80.5s-53.5 -38.667 -86.5 -50s-68.5 -17 -106.5 -17zM289.999 115c10.667 0 20.167 3.33301 28.5 10s15.5 16 21.5 28s10.5 26.167 13.5 42.5s4.5 33.833 4.5 52.5
s-1.66699 36.167 -5 52.5s-8 30.5 -14 42.5s-13.5 21.5 -22.5 28.5s-19.5 10.5 -31.5 10.5c-10 0 -19.167 -3.33301 -27.5 -10s-15.5 -16 -21.5 -28s-10.833 -26 -14.5 -42s-5.5 -33 -5.5 -51c0 -41.333 7 -74.333 21 -99s31.667 -37 53 -37zM505.999 720
c-3.33301 -26.667 -10.832 -50.335 -22.499 -71.002s-26.5 -38 -44.5 -52s-38.833 -24.667 -62.5 -32s-48.5 -11 -74.5 -11c-24 0 -47.667 3.33301 -71 10s-44.333 16.834 -63 30.501s-34.5 30.834 -47.5 51.501s-21.5 44.667 -25.5 72h155
c3.33301 -21.333 9.66602 -38 18.999 -50s20.333 -18 33 -18c13.333 0 24 6.5 32 19.5s13.667 29.5 17 49.5z" />
    <glyph glyph-name="Ohungarumlaut" unicode="&#x150;" 
d="M373 -18c-52 0 -99.998 7.66699 -143.998 23s-81.833 38.333 -113.5 69s-56.334 69.167 -74.001 115.5s-26.5 100.833 -26.5 163.5c0 54 8.5 103.333 25.5 148s41 83.167 72 115.5s68 57.333 111 75s90.5 26.5 142.5 26.5c61.333 0 114.5 -8.83301 159.5 -26.5
s82.333 -42.667 112 -75s51.667 -71.5 66 -117.5s21.5 -97 21.5 -153c0 -56.667 -7.66699 -107.5 -23 -152.5s-38 -83.167 -68 -114.5s-66.833 -55.333 -110.5 -72s-93.834 -25 -150.501 -25zM373.002 139c16 0 30.1641 5.00098 42.4971 15.001s23 24 32 42
s15.833 39.667 20.5 65s7 53.666 7 84.999c0 30.667 -2.16699 59.167 -6.5 85.5s-11 49.333 -20 69s-20.5 35.167 -34.5 46.5s-30.667 17 -50 17c-15.333 0 -29.166 -5.16699 -41.499 -15.5s-23 -24.833 -32 -43.5s-16 -41 -21 -67s-7.5 -54.333 -7.5 -85
c0 -32.667 2.83301 -62.167 8.5 -88.5s13.334 -48.833 23.001 -67.5s21.334 -33 35.001 -43s28.5 -15 44.5 -15zM448.999 900.001l-151 -142h-125l78 142h198zM690.999 900.001l-151 -142h-125l78 142h198z" />
    <glyph glyph-name="ohungarumlaut" unicode="&#x151;" horiz-adv-x="574" 
d="M290 -13c-36 0 -70.834 5.5 -104.501 16.5s-63.5 27.5 -89.5 49.5s-46.667 49.667 -62 83s-23 72 -23 116c0 42 7.83301 79.167 23.5 111.5s36.334 59.5 62.001 81.5s55 38.667 88 50s66.5 17 100.5 17c39.333 0 76 -6.16699 110 -18.5s63.5 -30 88.5 -53
s44.5 -51 58.5 -84s21 -70.5 21 -112.5c0 -41.333 -7.16699 -77.833 -21.5 -109.5s-33.833 -58.5 -58.5 -80.5s-53.5 -38.667 -86.5 -50s-68.5 -17 -106.5 -17zM289.999 115c10.667 0 20.167 3.33301 28.5 10s15.5 16 21.5 28s10.5 26.167 13.5 42.5s4.5 33.833 4.5 52.5
s-1.66699 36.167 -5 52.5s-8 30.5 -14 42.5s-13.5 21.5 -22.5 28.5s-19.5 10.5 -31.5 10.5c-10 0 -19.167 -3.33301 -27.5 -10s-15.5 -16 -21.5 -28s-10.833 -26 -14.5 -42s-5.5 -33 -5.5 -51c0 -41.333 7 -74.333 21 -99s31.667 -37 53 -37zM366.999 701l-151 -142h-125
l78 142h198zM608.999 701l-151 -142h-125l78 142h198z" />
    <glyph glyph-name="OE" unicode="&#x152;" horiz-adv-x="978" 
d="M408 700h545v-222h-173v89h-160v-138h190v-133h-190v-163h160v93h173v-226h-490c-20 -2 -40 -3 -60 -3c-56 0 -107 7.33301 -153 22s-85.333 37 -118 67s-58 67.333 -76 112s-27 97 -27 157c0.666992 52.667 10.5 100.167 29.5 142.5s45.167 78.5 78.5 108.5
s73 53.167 119 69.5s96.667 24.5 152 24.5zM413 149l-0.00195312 408.004c-4 2 -7.33301 3 -10 3c-16.667 0 -33.167 -5.16699 -49.5 -15.5s-31 -24.833 -44 -43.5s-23.667 -40.834 -32 -66.501s-12.5 -53.834 -12.5 -84.501s4.16699 -58.334 12.5 -83.001
s19.333 -45.834 33 -63.501s28.834 -31.167 45.501 -40.5s33.334 -14 50.001 -14h7z" />
    <glyph glyph-name="oe" unicode="&#x153;" horiz-adv-x="900" 
d="M884 69c-37.333 -32 -76.666 -54.5 -117.999 -67.5s-88 -19.5 -140 -19.5c-28.667 0 -57.5 4.33301 -86.5 13s-55.833 22 -80.5 40c-23.333 -16 -49.333 -28 -78 -36s-59 -12 -91 -12c-36 0 -70.833 5.5 -104.5 16.5s-63.5 27.5 -89.5 49.5s-46.667 49.667 -62 83
s-23 72 -23 116c0 42 7.83301 79.167 23.5 111.5s36.334 59.5 62.001 81.5s55 38.667 88 50s66.5 17 100.5 17s65.5 -4.66699 94.5 -14s55.167 -22 78.5 -38c23.333 17.333 49.5 30.666 78.5 39.999s60.5 14 94.5 14c41.333 0 77.833 -6 109.5 -18s58.167 -28.667 79.5 -50
s37.333 -46.5 48 -75.5s16 -60.5 16 -94.5c0 -13.333 -1 -26.5 -3 -39.5s-5 -25.167 -9 -36.5h-312c-0.666992 -1.33301 -1 -2.66602 -1 -3.99902s-0.333008 -2.66602 -1 -3.99902c2 -7.33301 4.66699 -15.166 8 -23.499s8.83301 -16.333 16.5 -24s17.667 -14 30 -19
s28.166 -7.5 47.499 -7.5c8.66699 0 18.167 0.333008 28.5 1s21.5 2.66699 33.5 6s24.667 8.16602 38 14.499s26.666 15.166 39.999 26.499zM290 115c10.667 0 20.167 3.33301 28.5 10s15.5 16 21.5 28s10.5 26.167 13.5 42.5s4.5 33.833 4.5 52.5s-1.66699 36.167 -5 52.5
s-8 30.5 -14 42.5s-13.5 21.5 -22.5 28.5s-19.5 10.5 -31.5 10.5c-10 0 -19.167 -3.33301 -27.5 -10s-15.5 -16 -21.5 -28s-10.833 -26 -14.5 -42s-5.5 -33 -5.5 -51c0 -41.333 7 -74.333 21 -99s31.667 -37 53 -37zM637 379c-15.333 0 -27.832 -3.00293 -37.499 -9.00293
s-17.334 -13.167 -23.001 -21.5s-9.66699 -17.166 -12 -26.499s-3.83301 -17 -4.5 -23h151c0 9.33301 -1 18.833 -3 28.5s-5.5 18.334 -10.5 26.001s-12.333 13.834 -22 18.501s-22.5 7 -38.5 7z" />
    <glyph glyph-name="Racute" unicode="&#x154;" horiz-adv-x="737" 
d="M25 699l325.002 -0.000976562c58 0 105 -5.33301 141 -16s64.167 -25.334 84.5 -44.001s34 -40.5 41 -65.5s10.5 -51.833 10.5 -80.5c0 -19.333 -3.66699 -37.333 -11 -54s-17.5 -31.167 -30.5 -43.5s-28.333 -22.666 -46 -30.999s-36.834 -13.833 -57.501 -16.5
c17.333 -2.66699 33.833 -8.16699 49.5 -16.5s29.5 -18.833 41.5 -31.5s21.667 -27 29 -43s11 -33 11 -51c0 -21.333 1.66699 -38 5 -50s9.66602 -18 18.999 -18c15.333 0 23 10.667 23 32v33h67v-55c0 -20.667 -2.33301 -40.667 -7 -60s-12.667 -36.333 -24 -51
s-26.333 -26.5 -45 -35.5s-42 -13.5 -70 -13.5c-66 0 -114.833 16.333 -146.5 49s-47.5 78.334 -47.5 137.001c0 22.667 -1 41.334 -3 56.001s-6.5 26.167 -13.5 34.5s-17.167 14.166 -30.5 17.499s-31 5 -53 5v-155h61v-132h-323v132h56v436h-56v131zM287.002 568.999
l0.000976562 -170.001h45c29.333 0 52.666 6.83301 69.999 20.5s26 33.834 26 60.501c0 30 -7.83301 52.333 -23.5 67s-38.167 22 -67.5 22h-50zM506.003 899.998l-151 -142h-125l78 142h198z" />
    <glyph glyph-name="racute" unicode="&#x155;" horiz-adv-x="414" 
d="M308 0h-283v131h44v239h-43v130h188l30 -64c6.66699 12 13.667 23.333 21 34s16.666 20.167 27.999 28.5s25.333 14.833 42 19.5s38 7 64 7v-180c-45.333 0 -80.166 -7.5 -104.499 -22.5s-36.5 -44.5 -36.5 -88.5v-103h50v-131zM403 701l-151 -142h-125l78 142h198z" />
    <glyph glyph-name="Rcommaaccent" unicode="&#x156;" horiz-adv-x="737" 
d="M25 699l325.002 -0.000976562c58 0 105 -5.33301 141 -16s64.167 -25.334 84.5 -44.001s34 -40.5 41 -65.5s10.5 -51.833 10.5 -80.5c0 -19.333 -3.66699 -37.333 -11 -54s-17.5 -31.167 -30.5 -43.5s-28.333 -22.666 -46 -30.999s-36.834 -13.833 -57.501 -16.5
c17.333 -2.66699 33.833 -8.16699 49.5 -16.5s29.5 -18.833 41.5 -31.5s21.667 -27 29 -43s11 -33 11 -51c0 -21.333 1.66699 -38 5 -50s9.66602 -18 18.999 -18c15.333 0 23 10.667 23 32v33h67v-55c0 -20.667 -2.33301 -40.667 -7 -60s-12.667 -36.333 -24 -51
s-26.333 -26.5 -45 -35.5s-42 -13.5 -70 -13.5c-66 0 -114.833 16.333 -146.5 49s-47.5 78.334 -47.5 137.001c0 22.667 -1 41.334 -3 56.001s-6.5 26.167 -13.5 34.5s-17.167 14.166 -30.5 17.499s-31 5 -53 5v-155h61v-132h-323v132h56v436h-56v131zM259.002 -258.001
l28.499 36.001c7.66699 10 13.834 19.667 18.501 29s8 19.166 10 29.499s3 23.166 3 38.499c0 16.667 -1 39 -3 67l158 -3v-12c0 -48.667 -9.66699 -91.667 -29 -129s-49.333 -73.666 -90 -108.999zM287.001 569l0.000976562 -170.001h45
c29.333 0 52.666 6.83301 69.999 20.5s26 33.834 26 60.501c0 30 -7.83301 52.333 -23.5 67s-38.167 22 -67.5 22h-50z" />
    <glyph glyph-name="rcommaaccent" unicode="&#x157;" horiz-adv-x="414" 
d="M308 0h-283v131h44v239h-43v130h188l30 -64c6.66699 12 13.667 23.333 21 34s16.666 20.167 27.999 28.5s25.333 14.833 42 19.5s38 7 64 7v-180c-45.333 0 -80.166 -7.5 -104.499 -22.5s-36.5 -44.5 -36.5 -88.5v-103h50v-131zM98 -258l28.499 36.001
c7.66699 10 13.834 19.667 18.501 29s8 19.166 10 29.499s3 23.166 3 38.499c0 16.667 -1 39 -3 67l158 -3v-12c0 -48.667 -9.66699 -91.667 -29 -129s-49.333 -73.666 -90 -108.999z" />
    <glyph glyph-name="Rcaron" unicode="&#x158;" horiz-adv-x="737" 
d="M25 699l325.002 -0.000976562c58 0 105 -5.33301 141 -16s64.167 -25.334 84.5 -44.001s34 -40.5 41 -65.5s10.5 -51.833 10.5 -80.5c0 -19.333 -3.66699 -37.333 -11 -54s-17.5 -31.167 -30.5 -43.5s-28.333 -22.666 -46 -30.999s-36.834 -13.833 -57.501 -16.5
c17.333 -2.66699 33.833 -8.16699 49.5 -16.5s29.5 -18.833 41.5 -31.5s21.667 -27 29 -43s11 -33 11 -51c0 -21.333 1.66699 -38 5 -50s9.66602 -18 18.999 -18c15.333 0 23 10.667 23 32v33h67v-55c0 -20.667 -2.33301 -40.667 -7 -60s-12.667 -36.333 -24 -51
s-26.333 -26.5 -45 -35.5s-42 -13.5 -70 -13.5c-66 0 -114.833 16.333 -146.5 49s-47.5 78.334 -47.5 137.001c0 22.667 -1 41.334 -3 56.001s-6.5 26.167 -13.5 34.5s-17.167 14.166 -30.5 17.499s-31 5 -53 5v-155h61v-132h-323v132h56v436h-56v131zM287.002 568.999
l0.000976562 -170.001h45c29.333 0 52.666 6.83301 69.999 20.5s26 33.834 26 60.501c0 30 -7.83301 52.333 -23.5 67s-38.167 22 -67.5 22h-50zM234.003 938.998l139 -70l135 70l50 -93l-191 -119l-189 119z" />
    <glyph glyph-name="rcaron" unicode="&#x159;" horiz-adv-x="414" 
d="M308 0h-283v131h44v239h-43v130h188l30 -64c6.66699 12 13.667 23.333 21 34s16.666 20.167 27.999 28.5s25.333 14.833 42 19.5s38 7 64 7v-180c-45.333 0 -80.166 -7.5 -104.499 -22.5s-36.5 -44.5 -36.5 -88.5v-103h50v-131zM73 740l139 -70l135 70l50 -93l-191 -119
l-189 119z" />
    <glyph glyph-name="Sacute" unicode="&#x15a;" horiz-adv-x="710" 
d="M25 0l-0.00683594 251.999h186c0 -20.667 4.66699 -37.5 14 -50.5s20.5 -23.167 33.5 -30.5s26.667 -12.333 41 -15s26.833 -4 37.5 -4c8.66699 0 18 0.666992 28 2s19.167 3.83301 27.5 7.5s15.333 8.66699 21 15s8.5 14.833 8.5 25.5c0 12.667 -9.5 23.167 -28.5 31.5
s-42.667 16.5 -71 24.5s-59.166 17.167 -92.499 27.5s-64.166 24.5 -92.499 42.5s-52 40.833 -71 68.5s-28.5 62.834 -28.5 105.501c0 36.667 7.83301 68.667 23.5 96s35.334 49.666 59.001 66.999s49.334 30.333 77.001 39s53.834 13 78.501 13
c20.667 0 41.334 -1.83301 62.001 -5.5s40.334 -9.5 59.001 -17.5s35.5 -18.5 50.5 -31.5s27.5 -28.833 37.5 -47.5l10 84h172v-251h-181c0 18.667 -3.33301 35.167 -10 49.5s-15.834 26.5 -27.501 36.5s-25.334 17.5 -41.001 22.5s-32.167 7.5 -49.5 7.5
c-7.33301 0 -15 -1.16699 -23 -3.5s-15.5 -5.66602 -22.5 -9.99902s-12.667 -9.83301 -17 -16.5s-6.5 -14.334 -6.5 -23.001c0 -17.333 9.83301 -31.666 29.5 -42.999s44.167 -22 73.5 -32l95 -32.5c34 -11.667 65.667 -26.167 95 -43.5s53.833 -39 73.5 -65
s29.5 -58.667 29.5 -98s-8.16699 -72.333 -24.5 -99s-37.333 -48.5 -63 -65.5s-54.167 -29.167 -85.5 -36.5s-62 -11 -92 -11c-25.333 0 -48.666 2.66699 -69.999 8s-40.666 12.333 -57.999 21s-32.833 18.5 -46.5 29.5s-25.167 22.167 -34.5 33.5l-11 -77h-175z
M548.993 899.999l-151 -142h-125l78 142h198z" />
    <glyph glyph-name="sacute" unicode="&#x15b;" horiz-adv-x="508" 
d="M15 0l0.000976562 180.004h134c0 -13.333 4.16699 -24.333 12.5 -33s18.166 -15.5 29.499 -20.5s23 -8.5 35 -10.5s21.667 -3 29 -3c10 0 19.833 2.16699 29.5 6.5s14.5 13.5 14.5 27.5c0 9.33301 -6.83301 16.833 -20.5 22.5s-31 11.167 -52 16.5
s-43.5 11.666 -67.5 18.999s-46.5 17.5 -67.5 30.5s-38.333 30 -52 51s-20.5 47.833 -20.5 80.5c0 25.333 5.83301 47.166 17.5 65.499s26.334 33.333 44.001 45s36.667 20.334 57 26.001s39.5 8.5 57.5 8.5c34 0 64.667 -7.66699 92 -23s46.333 -33.666 57 -54.999l8 66
h123v-180h-130c0 10.667 -3 20.5 -9 29.5s-13.833 17 -23.5 24s-20.5 12.5 -32.5 16.5s-24.333 6 -37 6c-10.667 0 -19.834 -2.83301 -27.501 -8.5s-11.5 -14.834 -11.5 -27.501c0 -11.333 7 -20.333 21 -27s31.5 -13.167 52.5 -19.5l68.5 -21
c24.667 -7.66699 47.5 -17.834 68.5 -30.501s38.5 -28.834 52.5 -48.501s21 -44.834 21 -75.501c0 -23.333 -5.16699 -44.333 -15.5 -63s-24 -34.5 -41 -47.5s-36.833 -22.833 -59.5 -29.5s-46 -10 -70 -10c-36 0 -67.5 7.33301 -94.5 22s-46.5 31.667 -58.5 51l-9 -61h-125
zM428.001 701.004l-151 -142h-125l78 142h198z" />
    <glyph glyph-name="Scircumflex" unicode="&#x15c;" horiz-adv-x="710" 
d="M25 0l-0.00683594 251.999h186c0 -20.667 4.66699 -37.5 14 -50.5s20.5 -23.167 33.5 -30.5s26.667 -12.333 41 -15s26.833 -4 37.5 -4c8.66699 0 18 0.666992 28 2s19.167 3.83301 27.5 7.5s15.333 8.66699 21 15s8.5 14.833 8.5 25.5c0 12.667 -9.5 23.167 -28.5 31.5
s-42.667 16.5 -71 24.5s-59.166 17.167 -92.499 27.5s-64.166 24.5 -92.499 42.5s-52 40.833 -71 68.5s-28.5 62.834 -28.5 105.501c0 36.667 7.83301 68.667 23.5 96s35.334 49.666 59.001 66.999s49.334 30.333 77.001 39s53.834 13 78.501 13
c20.667 0 41.334 -1.83301 62.001 -5.5s40.334 -9.5 59.001 -17.5s35.5 -18.5 50.5 -31.5s27.5 -28.833 37.5 -47.5l10 84h172v-251h-181c0 18.667 -3.33301 35.167 -10 49.5s-15.834 26.5 -27.501 36.5s-25.334 17.5 -41.001 22.5s-32.167 7.5 -49.5 7.5
c-7.33301 0 -15 -1.16699 -23 -3.5s-15.5 -5.66602 -22.5 -9.99902s-12.667 -9.83301 -17 -16.5s-6.5 -14.334 -6.5 -23.001c0 -17.333 9.83301 -31.666 29.5 -42.999s44.167 -22 73.5 -32l95 -32.5c34 -11.667 65.667 -26.167 95 -43.5s53.833 -39 73.5 -65
s29.5 -58.667 29.5 -98s-8.16699 -72.333 -24.5 -99s-37.333 -48.5 -63 -65.5s-54.167 -29.167 -85.5 -36.5s-62 -11 -92 -11c-25.333 0 -48.666 2.66699 -69.999 8s-40.666 12.333 -57.999 21s-32.833 18.5 -46.5 29.5s-25.167 22.167 -34.5 33.5l-11 -77h-175z
M488.993 744.999l-139 70l-135 -70l-50 93l191 119l189 -119z" />
    <glyph glyph-name="scircumflex" unicode="&#x15d;" horiz-adv-x="508" 
d="M15 0l0.000976562 180.004h134c0 -13.333 4.16699 -24.333 12.5 -33s18.166 -15.5 29.499 -20.5s23 -8.5 35 -10.5s21.667 -3 29 -3c10 0 19.833 2.16699 29.5 6.5s14.5 13.5 14.5 27.5c0 9.33301 -6.83301 16.833 -20.5 22.5s-31 11.167 -52 16.5
s-43.5 11.666 -67.5 18.999s-46.5 17.5 -67.5 30.5s-38.333 30 -52 51s-20.5 47.833 -20.5 80.5c0 25.333 5.83301 47.166 17.5 65.499s26.334 33.333 44.001 45s36.667 20.334 57 26.001s39.5 8.5 57.5 8.5c34 0 64.667 -7.66699 92 -23s46.333 -33.666 57 -54.999l8 66
h123v-180h-130c0 10.667 -3 20.5 -9 29.5s-13.833 17 -23.5 24s-20.5 12.5 -32.5 16.5s-24.333 6 -37 6c-10.667 0 -19.834 -2.83301 -27.501 -8.5s-11.5 -14.834 -11.5 -27.501c0 -11.333 7 -20.333 21 -27s31.5 -13.167 52.5 -19.5l68.5 -21
c24.667 -7.66699 47.5 -17.834 68.5 -30.501s38.5 -28.834 52.5 -48.501s21 -44.834 21 -75.501c0 -23.333 -5.16699 -44.333 -15.5 -63s-24 -34.5 -41 -47.5s-36.833 -22.833 -59.5 -29.5s-46 -10 -70 -10c-36 0 -67.5 7.33301 -94.5 22s-46.5 31.667 -58.5 51l-9 -61h-125
zM388.001 546.004l-139 70l-135 -70l-50 93l191 119l189 -119z" />
    <glyph glyph-name="Scedilla" unicode="&#x15e;" horiz-adv-x="710" 
d="M459 -98c0 -12 -2.1748 -24.168 -6.50781 -36.501s-11.166 -23.333 -20.499 -33s-21.666 -17.5 -36.999 -23.5s-34.333 -9 -57 -9c-15.333 0 -31.166 2 -47.499 6s-29.833 8.66699 -40.5 14l32 62c16 -7.33301 32 -11 48 -11c22 0 33 8 33 24s-11 24 -33 24
c-6 0 -11.333 -0.166992 -16 -0.5s-8.66699 -0.833008 -12 -1.5l-10 17l22 70c-23.333 9.33301 -43.5 20.5 -60.5 33.5s-31.167 26.167 -42.5 39.5l-11 -77h-175v252h186c0 -20.667 4.66699 -37.5 14 -50.5s20.5 -23.167 33.5 -30.5s26.667 -12.333 41 -15
s26.833 -4 37.5 -4c8.66699 0 18 0.666992 28 2s19.167 3.83301 27.5 7.5s15.333 8.66699 21 15s8.5 14.833 8.5 25.5c0 12.667 -9.5 23.167 -28.5 31.5s-42.667 16.5 -71 24.5s-59.166 17.167 -92.499 27.5s-64.166 24.5 -92.499 42.5s-52 40.833 -71 68.5
s-28.5 62.834 -28.5 105.501c0 36.667 7.83301 68.667 23.5 96s35.334 49.666 59.001 66.999s49.334 30.333 77.001 39s53.834 13 78.501 13c20.667 0 41.334 -1.83301 62.001 -5.5s40.334 -9.5 59.001 -17.5s35.5 -18.5 50.5 -31.5s27.5 -28.833 37.5 -47.5l10 84h172v-251
h-181c0 18.667 -3.33301 35.167 -10 49.5s-15.834 26.5 -27.501 36.5s-25.334 17.5 -41.001 22.5s-32.167 7.5 -49.5 7.5c-7.33301 0 -15 -1.16699 -23 -3.5s-15.5 -5.66602 -22.5 -9.99902s-12.667 -9.83301 -17 -16.5s-6.5 -14.334 -6.5 -23.001
c0 -17.333 9.83301 -31.666 29.5 -42.999s44.167 -22 73.5 -32l95 -32.5c34 -11.667 65.667 -26.167 95 -43.5s53.833 -39 73.5 -65s29.5 -58.667 29.5 -98s-8.16699 -72.333 -24.5 -99s-37.333 -48.5 -63 -65.5s-54.167 -29.167 -85.5 -36.5s-62 -11 -92 -11
c-5.33301 0 -10.833 0.166992 -16.5 0.5s-11.167 0.833008 -16.5 1.5l-5 -12c24 -2 42.833 -9.83301 56.5 -23.5s20.5 -30.167 20.5 -49.5z" />
    <glyph glyph-name="scedilla" unicode="&#x15f;" horiz-adv-x="508" 
d="M358 -98c0 -12 -2.16895 -24.1631 -6.50195 -36.4961s-11.166 -23.333 -20.499 -33s-21.666 -17.5 -36.999 -23.5s-34.333 -9 -57 -9c-15.333 0 -31.166 2 -47.499 6s-29.833 8.66699 -40.5 14l32 62c16 -7.33301 32 -11 48 -11c22 0 33 8 33 24s-11 24 -33 24
c-6 0 -11.333 -0.166992 -16 -0.5s-8.66699 -0.833008 -12 -1.5l-10 17l23 73c-29.333 14 -51 32 -65 54l-9 -61h-125v180h134c0 -13.333 4.16699 -24.333 12.5 -33s18.166 -15.5 29.499 -20.5s23 -8.5 35 -10.5s21.667 -3 29 -3c10 0 19.833 2.16699 29.5 6.5
s14.5 13.5 14.5 27.5c0 9.33301 -6.83301 16.833 -20.5 22.5s-31 11.167 -52 16.5s-43.5 11.666 -67.5 18.999s-46.5 17.5 -67.5 30.5s-38.333 30 -52 51s-20.5 47.833 -20.5 80.5c0 25.333 5.83301 47.166 17.5 65.499s26.334 33.333 44.001 45s36.667 20.334 57 26.001
s39.5 8.5 57.5 8.5c34 0 64.667 -7.66699 92 -23s46.333 -33.666 57 -54.999l8 66h123v-180h-130c0 10.667 -3 20.5 -9 29.5s-13.833 17 -23.5 24s-20.5 12.5 -32.5 16.5s-24.333 6 -37 6c-10.667 0 -19.834 -2.83301 -27.501 -8.5s-11.5 -14.834 -11.5 -27.501
c0 -11.333 7 -20.333 21 -27s31.5 -13.167 52.5 -19.5l68.5 -21c24.667 -7.66699 47.5 -17.834 68.5 -30.501s38.5 -28.834 52.5 -48.501s21 -44.834 21 -75.501c0 -23.333 -5.16699 -44.333 -15.5 -63s-24 -34.5 -41 -47.5s-36.833 -22.833 -59.5 -29.5s-46 -10 -70 -10
c-6.66699 0 -11.667 0.333008 -15 1l-6 -14c24 -2 42.833 -9.83301 56.5 -23.5s20.5 -30.167 20.5 -49.5z" />
    <glyph glyph-name="Scaron" unicode="&#x160;" horiz-adv-x="710" 
d="M233 940l139 -70l135 70l50 -93l-191 -119l-189 119zM25 0l-0.00683594 251.999h186c0 -20.667 4.66699 -37.5 14 -50.5s20.5 -23.167 33.5 -30.5s26.667 -12.333 41 -15s26.833 -4 37.5 -4c8.66699 0 18 0.666992 28 2s19.167 3.83301 27.5 7.5s15.333 8.66699 21 15
s8.5 14.833 8.5 25.5c0 12.667 -9.5 23.167 -28.5 31.5s-42.667 16.5 -71 24.5s-59.166 17.167 -92.499 27.5s-64.166 24.5 -92.499 42.5s-52 40.833 -71 68.5s-28.5 62.834 -28.5 105.501c0 36.667 7.83301 68.667 23.5 96s35.334 49.666 59.001 66.999
s49.334 30.333 77.001 39s53.834 13 78.501 13c20.667 0 41.334 -1.83301 62.001 -5.5s40.334 -9.5 59.001 -17.5s35.5 -18.5 50.5 -31.5s27.5 -28.833 37.5 -47.5l10 84h172v-251h-181c0 18.667 -3.33301 35.167 -10 49.5s-15.834 26.5 -27.501 36.5
s-25.334 17.5 -41.001 22.5s-32.167 7.5 -49.5 7.5c-7.33301 0 -15 -1.16699 -23 -3.5s-15.5 -5.66602 -22.5 -9.99902s-12.667 -9.83301 -17 -16.5s-6.5 -14.334 -6.5 -23.001c0 -17.333 9.83301 -31.666 29.5 -42.999s44.167 -22 73.5 -32l95 -32.5
c34 -11.667 65.667 -26.167 95 -43.5s53.833 -39 73.5 -65s29.5 -58.667 29.5 -98s-8.16699 -72.333 -24.5 -99s-37.333 -48.5 -63 -65.5s-54.167 -29.167 -85.5 -36.5s-62 -11 -92 -11c-25.333 0 -48.666 2.66699 -69.999 8s-40.666 12.333 -57.999 21
s-32.833 18.5 -46.5 29.5s-25.167 22.167 -34.5 33.5l-11 -77h-175z" />
    <glyph glyph-name="scaron" unicode="&#x161;" horiz-adv-x="508" 
d="M112 742l139 -70l135 70l50 -93l-191 -119l-189 119zM15 0l0.000976562 180.004h134c0 -13.333 4.16699 -24.333 12.5 -33s18.166 -15.5 29.499 -20.5s23 -8.5 35 -10.5s21.667 -3 29 -3c10 0 19.833 2.16699 29.5 6.5s14.5 13.5 14.5 27.5
c0 9.33301 -6.83301 16.833 -20.5 22.5s-31 11.167 -52 16.5s-43.5 11.666 -67.5 18.999s-46.5 17.5 -67.5 30.5s-38.333 30 -52 51s-20.5 47.833 -20.5 80.5c0 25.333 5.83301 47.166 17.5 65.499s26.334 33.333 44.001 45s36.667 20.334 57 26.001s39.5 8.5 57.5 8.5
c34 0 64.667 -7.66699 92 -23s46.333 -33.666 57 -54.999l8 66h123v-180h-130c0 10.667 -3 20.5 -9 29.5s-13.833 17 -23.5 24s-20.5 12.5 -32.5 16.5s-24.333 6 -37 6c-10.667 0 -19.834 -2.83301 -27.501 -8.5s-11.5 -14.834 -11.5 -27.501c0 -11.333 7 -20.333 21 -27
s31.5 -13.167 52.5 -19.5l68.5 -21c24.667 -7.66699 47.5 -17.834 68.5 -30.501s38.5 -28.834 52.5 -48.501s21 -44.834 21 -75.501c0 -23.333 -5.16699 -44.333 -15.5 -63s-24 -34.5 -41 -47.5s-36.833 -22.833 -59.5 -29.5s-46 -10 -70 -10c-36 0 -67.5 7.33301 -94.5 22
s-46.5 31.667 -58.5 51l-9 -61h-125z" />
    <glyph glyph-name="Tcommaaccent" unicode="&#x162;" horiz-adv-x="701" 
d="M686 699v-260h-147v128h-84v-434h83v-133h-372v133h82v434h-86v-128h-147v260h671zM241 -258l28.499 36.001c7.66699 10 13.834 19.667 18.501 29s8 19.166 10 29.499s3 23.166 3 38.499c0 16.667 -1 39 -3 67l158 -3v-12c0 -48.667 -9.66699 -91.667 -29 -129
s-49.333 -73.666 -90 -108.999z" />
    <glyph glyph-name="tcommaaccent" unicode="&#x163;" horiz-adv-x="363" 
d="M15 500l53.999 -0.00195312v92l184 59v-151h95v-130h-95v-178c0 -4.66699 -0.166992 -9.33398 -0.5 -14.001s-0.5 -9.66699 -0.5 -15c0 -13.333 1.83301 -25.166 5.5 -35.499s12.834 -15.5 27.501 -15.5c6.66699 0 16.5 1.83301 29.5 5.5s24.167 7.5 33.5 11.5v-128
c-7.33301 -3.33301 -16.666 -6.16602 -27.999 -8.49902s-23 -4.16602 -35 -5.49902s-23.167 -2.5 -33.5 -3.5s-18.5 -1.5 -24.5 -1.5c-37.333 0 -66.5 5 -87.5 15s-36.5 24 -46.5 42s-16.333 40 -19 66s-4.33398 55 -5.00098 87v178h-54v130zM71.999 -258.002l28.499 36.001
c7.66699 10 13.834 19.667 18.501 29s8 19.166 10 29.499s3 23.166 3 38.499c0 16.667 -1 39 -3 67l158 -3v-12c0 -48.667 -9.66699 -91.667 -29 -129s-49.333 -73.666 -90 -108.999z" />
    <glyph glyph-name="Tcaron" unicode="&#x164;" horiz-adv-x="701" 
d="M686 699v-260h-147v128h-84v-434h83v-133h-372v133h82v434h-86v-128h-147v260h671zM216 939l139 -70l135 70l50 -93l-191 -119l-189 119z" />
    <glyph glyph-name="tcaron" unicode="&#x165;" horiz-adv-x="488" 
d="M15 500l53.999 -0.00195312v92l184 59v-151h95v-130h-95v-178c0 -4.66699 -0.166992 -9.33398 -0.5 -14.001s-0.5 -9.66699 -0.5 -15c0 -13.333 1.83301 -25.166 5.5 -35.499s12.834 -15.5 27.501 -15.5c6.66699 0 16.5 1.83301 29.5 5.5s24.167 7.5 33.5 11.5v-128
c-7.33301 -3.33301 -16.666 -6.16602 -27.999 -8.49902s-23 -4.16602 -35 -5.49902s-23.167 -2.5 -33.5 -3.5s-18.5 -1.5 -24.5 -1.5c-37.333 0 -66.5 5 -87.5 15s-36.5 24 -46.5 42s-16.333 40 -19 66s-4.33398 55 -5.00098 87v178h-54v130zM276.999 546.998
c20.667 24.667 36.499 50.168 47.499 76.501s16.5 58.5 16.5 96.5v16c0 5.33301 -0.333008 10.666 -1 15.999l122 -30v-8c0 -40 -9.66699 -77.5 -29 -112.5s-45.666 -66.5 -78.999 -94.5z" />
    <glyph glyph-name="Tbar" unicode="&#x166;" horiz-adv-x="701" 
d="M71 357h177v210h-86v-128h-147v260h671v-260h-147v128h-84v-210h174v-133h-174v-91h83v-133h-372v133h82v91h-177v133z" />
    <glyph glyph-name="tbar" unicode="&#x167;" horiz-adv-x="363" 
d="M-97 698l557.999 -0.00195312v-133h-208v-65h95v-130h-95v-178c0 -4.66699 -0.166992 -9.33398 -0.5 -14.001s-0.5 -9.66699 -0.5 -15c0 -13.333 1.83301 -25.166 5.5 -35.499s12.834 -15.5 27.501 -15.5c6.66699 0 16.5 1.83301 29.5 5.5s24.167 7.5 33.5 11.5v-128
c-7.33301 -3.33301 -16.666 -6.16602 -27.999 -8.49902s-23 -4.16602 -35 -5.49902s-23.167 -2.5 -33.5 -3.5s-18.5 -1.5 -24.5 -1.5c-37.333 0 -66.5 5 -87.5 15s-36.5 24 -46.5 42s-16.333 40 -19 66s-4.33398 55 -5.00098 87v178h-54v130h54v65h-166v133z" />
    <glyph glyph-name="Utilde" unicode="&#x168;" horiz-adv-x="737" 
d="M15 699l318.001 -0.00195312v-129h-54v-216c0 -40 2.16699 -72.667 6.5 -98s10.833 -45.166 19.5 -59.499s19.167 -24.166 31.5 -29.499s26.5 -8 42.5 -8c15.333 0 29.166 2.16699 41.499 6.5s23 13.333 32 27s15.833 33.334 20.5 59.001s7 60.167 7 103.5v212h-54v132
h296v-129h-54v-243c0 -118.667 -24.333 -205.667 -73 -261s-120 -83 -214 -83c-101.333 3.33301 -178.333 32.166 -231 86.499s-79 138.5 -79 252.5v247h-56v130zM554.001 804.998c-14.667 -18 -31.6719 -31.667 -51.0049 -41s-43.333 -14 -72 -14
c-15.333 0 -28.166 2 -38.499 6s-20.166 8.16699 -29.499 12.5s-19 8.5 -29 12.5s-22.333 6 -37 6c-26.667 0 -50 -10 -70 -30l-44 100c15.333 19.333 32.333 34 51 44s40.667 15 66 15c16 0 29.333 -1.83301 40 -5.5s20.834 -7.66699 30.501 -12s19.5 -8.33301 29.5 -12
s22 -5.5 36 -5.5c14.667 0 28.834 3 42.501 9s23.834 12.667 30.501 20z" />
    <glyph glyph-name="utilde" unicode="&#x169;" horiz-adv-x="631" 
d="M15 500l242.001 -0.000976562v-241c0 -43.333 3.83301 -75.166 11.5 -95.499s21.834 -30.5 42.501 -30.5c17.333 0 32.166 7 44.499 21s18.5 32.333 18.5 55v159h-66v132h259v-367h49v-133h-189l-27 63l-19.5 -22.5c-7.66699 -9 -17 -17.5 -28 -25.5
s-24.167 -14.833 -39.5 -20.5s-33.666 -8.5 -54.999 -8.5c-38 0 -69.833 5 -95.5 15s-46.334 25 -62.001 45s-26.834 45.333 -33.501 76s-10 66.667 -10 108v138h-42v132zM501.001 605.999c-14.667 -18 -31.6719 -31.667 -51.0049 -41s-43.333 -14 -72 -14
c-15.333 0 -28.166 2 -38.499 6s-20.166 8.16699 -29.499 12.5s-19 8.5 -29 12.5s-22.333 6 -37 6c-26.667 0 -50 -10 -70 -30l-44 100c15.333 19.333 32.333 34 51 44s40.667 15 66 15c16 0 29.333 -1.83301 40 -5.5s20.834 -7.66699 30.501 -12s19.5 -8.33301 29.5 -12
s22 -5.5 36 -5.5c14.667 0 28.834 3 42.501 9s23.834 12.667 30.501 20z" />
    <glyph glyph-name="Umacron" unicode="&#x16a;" horiz-adv-x="737" 
d="M15 699l318.001 -0.00195312v-129h-54v-216c0 -40 2.16699 -72.667 6.5 -98s10.833 -45.166 19.5 -59.499s19.167 -24.166 31.5 -29.499s26.5 -8 42.5 -8c15.333 0 29.166 2.16699 41.499 6.5s23 13.333 32 27s15.833 33.334 20.5 59.001s7 60.167 7 103.5v212h-54v132
h296v-129h-54v-243c0 -118.667 -24.333 -205.667 -73 -261s-120 -83 -214 -83c-101.333 3.33301 -178.333 32.166 -231 86.499s-79 138.5 -79 252.5v247h-56v130zM89.001 896.998h558v-133h-558v133z" />
    <glyph glyph-name="umacron" unicode="&#x16b;" horiz-adv-x="631" 
d="M15 500l242.001 -0.000976562v-241c0 -43.333 3.83301 -75.166 11.5 -95.499s21.834 -30.5 42.501 -30.5c17.333 0 32.166 7 44.499 21s18.5 32.333 18.5 55v159h-66v132h259v-367h49v-133h-189l-27 63l-19.5 -22.5c-7.66699 -9 -17 -17.5 -28 -25.5
s-24.167 -14.833 -39.5 -20.5s-33.666 -8.5 -54.999 -8.5c-38 0 -69.833 5 -95.5 15s-46.334 25 -62.001 45s-26.834 45.333 -33.501 76s-10 66.667 -10 108v138h-42v132zM36.001 697.999h558v-133h-558v133z" />
    </font>
</defs>
</svg>
